M48
;GenerationSoftware,Autodesk,EAGLE,9.6.2*%
;CreationDate,2020-06-06T06:39:21Z*%
FMAT,2
ICI,OFF
METRIC,TZ,000.000
T2C0.300
T1C0.900
%
G90
M71
T1
X7000Y10270
X7000Y5190
X7000Y7730
X7000Y12810
X40080Y16328
X37540Y16328
X35000Y16328
X32460Y16328
X29920Y16328
T2
X13250Y14500
X9375Y11250
X28750Y15875
X21500Y1250
X31500Y1250
X12875Y3625
X12875Y10625
X10000Y7500
X13250Y2000
X12000Y15250
X18750Y1000
X36500Y9254
X45720Y9000
X72720Y9000
X99720Y9000
X126720Y9000
X153720Y9000
X180720Y9000
X207720Y9000
X234720Y9000
X261720Y9000
X288720Y9000
X335000Y9000
M30