G04 EAGLE Gerber RS-274X export*
G75*
%MOMM*%
%FSLAX34Y34*%
%LPD*%
%INSolder Mask top*%
%IPPOS*%
%AMOC8*
5,1,8,0,0,1.08239X$1,22.5*%
G01*
%ADD10C,0.001000*%
%ADD11R,1.500000X1.600000*%
%ADD12R,1.100000X1.000000*%
%ADD13R,2.000000X2.000000*%
%ADD14C,0.076000*%
%ADD15R,1.500000X1.200000*%
%ADD16C,1.350000*%
%ADD17C,2.200000*%
%ADD18C,0.604800*%
%ADD19C,0.325000*%
%ADD20C,0.254000*%
%ADD21C,0.200000*%
%ADD22C,0.400000*%
%ADD23C,1.200000*%

G36*
X450121Y96624D02*
X450121Y96624D01*
X450122Y96624D01*
X454797Y98090D01*
X454797Y98091D01*
X454798Y98091D01*
X459027Y100399D01*
X459028Y100400D01*
X462712Y103451D01*
X462712Y103452D01*
X462713Y103452D01*
X465752Y107147D01*
X465753Y107147D01*
X468047Y111386D01*
X469497Y116069D01*
X470003Y121096D01*
X470002Y121097D01*
X470003Y121097D01*
X469497Y126124D01*
X468047Y130807D01*
X468047Y130808D01*
X465753Y135047D01*
X465752Y135047D01*
X462713Y138743D01*
X462712Y138743D01*
X459028Y141795D01*
X459027Y141795D01*
X459027Y141796D01*
X454798Y144105D01*
X454797Y144105D01*
X450122Y145572D01*
X450121Y145572D01*
X445100Y146097D01*
X445099Y146096D01*
X445099Y146097D01*
X439878Y145572D01*
X439878Y145571D01*
X439877Y145571D01*
X435203Y144104D01*
X435202Y144104D01*
X430973Y141795D01*
X430973Y141794D01*
X430972Y141794D01*
X427288Y138742D01*
X427288Y138741D01*
X424248Y135046D01*
X424248Y135045D01*
X421953Y130807D01*
X421953Y130806D01*
X420502Y126124D01*
X420503Y126123D01*
X420502Y126123D01*
X419996Y121097D01*
X419996Y121096D01*
X420502Y116070D01*
X420503Y116070D01*
X420502Y116069D01*
X421953Y111387D01*
X421953Y111386D01*
X424248Y107148D01*
X427288Y103453D01*
X430972Y100401D01*
X430973Y100401D01*
X435202Y98092D01*
X435203Y98092D01*
X435203Y98091D01*
X439877Y96625D01*
X439878Y96625D01*
X439878Y96624D01*
X445098Y96100D01*
X445099Y96099D01*
X445099Y96100D01*
X445100Y96099D01*
X450121Y96624D01*
G37*
%LPC*%
G36*
X445099Y99226D02*
X445099Y99226D01*
X442676Y99349D01*
X440518Y99686D01*
X438436Y100228D01*
X436441Y100963D01*
X434542Y101882D01*
X432750Y102973D01*
X431076Y104226D01*
X429529Y105631D01*
X428116Y107185D01*
X426857Y108868D01*
X425761Y110671D01*
X424840Y112582D01*
X424105Y114591D01*
X423566Y116687D01*
X423235Y118859D01*
X423122Y121097D01*
X423235Y123335D01*
X423244Y123397D01*
X423257Y123478D01*
X423279Y123622D01*
X423291Y123703D01*
X423301Y123767D01*
X423313Y123847D01*
X423335Y123992D01*
X423347Y124073D01*
X423357Y124136D01*
X423369Y124217D01*
X423391Y124362D01*
X423404Y124442D01*
X423413Y124506D01*
X423426Y124587D01*
X423448Y124731D01*
X423470Y124876D01*
X423482Y124957D01*
X423504Y125101D01*
X423526Y125246D01*
X423538Y125326D01*
X423560Y125471D01*
X423566Y125507D01*
X424105Y127604D01*
X424840Y129613D01*
X425761Y131525D01*
X426857Y133328D01*
X428116Y135013D01*
X429529Y136569D01*
X431076Y137974D01*
X432750Y139227D01*
X434542Y140318D01*
X436441Y141236D01*
X438436Y141971D01*
X440518Y142512D01*
X442676Y142849D01*
X445099Y142970D01*
X445100Y142971D01*
X447322Y142849D01*
X449480Y142513D01*
X451562Y141972D01*
X453558Y141237D01*
X455457Y140319D01*
X457249Y139227D01*
X458924Y137974D01*
X460470Y136569D01*
X461881Y135013D01*
X463140Y133328D01*
X464236Y131525D01*
X465157Y129613D01*
X465893Y127604D01*
X466432Y125507D01*
X466763Y123335D01*
X466876Y121097D01*
X466763Y118859D01*
X466432Y116687D01*
X465893Y114591D01*
X465157Y112582D01*
X464236Y110671D01*
X463140Y108868D01*
X461881Y107185D01*
X460470Y105631D01*
X458924Y104226D01*
X457249Y102972D01*
X455457Y101881D01*
X453558Y100963D01*
X451562Y100227D01*
X449480Y99685D01*
X447322Y99348D01*
X445100Y99226D01*
X445099Y99226D01*
G37*
%LPD*%
G36*
X436478Y111787D02*
X436478Y111787D01*
X436524Y111789D01*
X436524Y111790D01*
X436524Y111789D01*
X436569Y111796D01*
X436612Y111807D01*
X436653Y111822D01*
X436654Y111822D01*
X436693Y111841D01*
X436730Y111863D01*
X436765Y111889D01*
X436765Y111890D01*
X436798Y111919D01*
X436831Y111953D01*
X436860Y111988D01*
X436860Y111989D01*
X436884Y112026D01*
X436884Y112027D01*
X436904Y112066D01*
X436904Y112067D01*
X436920Y112108D01*
X436931Y112151D01*
X436938Y112196D01*
X436941Y112242D01*
X436940Y112243D01*
X436941Y112243D01*
X436941Y125100D01*
X437893Y123793D01*
X444619Y114569D01*
X444652Y114525D01*
X444653Y114525D01*
X444653Y114524D01*
X444691Y114486D01*
X444692Y114486D01*
X444692Y114485D01*
X444734Y114452D01*
X444734Y114453D01*
X444734Y114452D01*
X444780Y114425D01*
X444781Y114425D01*
X444829Y114403D01*
X444880Y114387D01*
X444931Y114378D01*
X444932Y114378D01*
X444984Y114374D01*
X445039Y114378D01*
X445093Y114387D01*
X445094Y114387D01*
X445145Y114402D01*
X445145Y114403D01*
X445146Y114403D01*
X445195Y114424D01*
X445242Y114450D01*
X445242Y114451D01*
X445285Y114483D01*
X445324Y114520D01*
X445359Y114562D01*
X448252Y118496D01*
X449216Y119807D01*
X453065Y125042D01*
X453065Y112243D01*
X453065Y112242D01*
X453067Y112197D01*
X453068Y112196D01*
X453067Y112196D01*
X453074Y112152D01*
X453074Y112151D01*
X453084Y112108D01*
X453085Y112108D01*
X453084Y112108D01*
X453100Y112067D01*
X453100Y112066D01*
X453119Y112027D01*
X453119Y112026D01*
X453143Y111989D01*
X453143Y111988D01*
X453171Y111953D01*
X453172Y111953D01*
X453204Y111919D01*
X453237Y111890D01*
X453237Y111889D01*
X453273Y111863D01*
X453311Y111841D01*
X453351Y111822D01*
X453393Y111807D01*
X453436Y111796D01*
X453480Y111789D01*
X453480Y111790D01*
X453480Y111789D01*
X453524Y111787D01*
X456232Y111787D01*
X456279Y111789D01*
X456279Y111790D01*
X456279Y111789D01*
X456324Y111796D01*
X456325Y111796D01*
X456368Y111807D01*
X456369Y111807D01*
X456411Y111822D01*
X456412Y111822D01*
X456452Y111841D01*
X456490Y111863D01*
X456491Y111863D01*
X456526Y111889D01*
X456526Y111890D01*
X456559Y111919D01*
X456588Y111953D01*
X456589Y111953D01*
X456615Y111989D01*
X456637Y112026D01*
X456637Y112027D01*
X456656Y112066D01*
X456656Y112067D01*
X456671Y112108D01*
X456682Y112151D01*
X456684Y112161D01*
X456687Y112182D01*
X456689Y112196D01*
X456689Y112197D01*
X456691Y112242D01*
X456691Y112243D01*
X456691Y129606D01*
X456676Y129763D01*
X456676Y129764D01*
X456632Y129912D01*
X456632Y129913D01*
X456562Y130048D01*
X456562Y130049D01*
X456468Y130168D01*
X456467Y130168D01*
X456467Y130169D01*
X456353Y130268D01*
X456352Y130268D01*
X456218Y130344D01*
X456217Y130344D01*
X456067Y130392D01*
X456066Y130392D01*
X455902Y130409D01*
X455901Y130409D01*
X452856Y130409D01*
X452802Y130406D01*
X452801Y130406D01*
X452750Y130397D01*
X452749Y130396D01*
X452699Y130381D01*
X452651Y130361D01*
X452650Y130360D01*
X452604Y130335D01*
X452604Y130334D01*
X452561Y130304D01*
X452561Y130303D01*
X452561Y130304D01*
X452521Y130268D01*
X452484Y130229D01*
X452484Y130228D01*
X444984Y120036D01*
X437522Y130228D01*
X437521Y130228D01*
X437521Y130229D01*
X437486Y130268D01*
X437485Y130268D01*
X437446Y130304D01*
X437403Y130334D01*
X437403Y130335D01*
X437357Y130360D01*
X437357Y130361D01*
X437309Y130381D01*
X437308Y130381D01*
X437258Y130396D01*
X437258Y130397D01*
X437206Y130406D01*
X437153Y130409D01*
X434101Y130409D01*
X433936Y130392D01*
X433935Y130392D01*
X433784Y130344D01*
X433649Y130268D01*
X433533Y130169D01*
X433533Y130168D01*
X433532Y130168D01*
X433438Y130049D01*
X433438Y130048D01*
X433367Y129913D01*
X433367Y129912D01*
X433323Y129764D01*
X433323Y129763D01*
X433308Y129606D01*
X433308Y112243D01*
X433308Y112242D01*
X433310Y112197D01*
X433310Y112196D01*
X433317Y112151D01*
X433327Y112108D01*
X433328Y112108D01*
X433343Y112067D01*
X433343Y112066D01*
X433362Y112027D01*
X433362Y112026D01*
X433385Y111989D01*
X433386Y111989D01*
X433412Y111953D01*
X433413Y111953D01*
X433412Y111953D01*
X433443Y111919D01*
X433476Y111890D01*
X433476Y111889D01*
X433512Y111863D01*
X433550Y111841D01*
X433590Y111822D01*
X433632Y111807D01*
X433675Y111796D01*
X433719Y111789D01*
X433719Y111790D01*
X433719Y111789D01*
X433763Y111787D01*
X436478Y111787D01*
X436478Y111787D01*
G37*
G36*
X596597Y114056D02*
X596597Y114056D01*
X596635Y114058D01*
X596636Y114058D01*
X596673Y114064D01*
X596674Y114064D01*
X596710Y114073D01*
X596711Y114073D01*
X596745Y114085D01*
X596746Y114085D01*
X596779Y114101D01*
X596780Y114101D01*
X596811Y114119D01*
X596811Y114120D01*
X596841Y114141D01*
X596841Y114142D01*
X596868Y114166D01*
X596869Y114166D01*
X596893Y114194D01*
X596915Y114224D01*
X596934Y114256D01*
X596950Y114289D01*
X596963Y114324D01*
X596972Y114360D01*
X596978Y114397D01*
X596980Y114434D01*
X596980Y114435D01*
X596980Y119596D01*
X603388Y119596D01*
X603841Y118926D01*
X604294Y118254D01*
X604748Y117582D01*
X605202Y116911D01*
X605656Y116239D01*
X606110Y115567D01*
X606564Y114895D01*
X607018Y114223D01*
X607046Y114186D01*
X607046Y114185D01*
X607078Y114152D01*
X607079Y114152D01*
X607115Y114123D01*
X607154Y114100D01*
X607154Y114099D01*
X607195Y114081D01*
X607196Y114081D01*
X607239Y114067D01*
X607240Y114067D01*
X607285Y114059D01*
X607331Y114056D01*
X609998Y114056D01*
X610049Y114060D01*
X610050Y114060D01*
X610099Y114070D01*
X610100Y114070D01*
X610147Y114087D01*
X610191Y114109D01*
X610192Y114110D01*
X610233Y114138D01*
X610270Y114171D01*
X610270Y114172D01*
X610271Y114172D01*
X610304Y114210D01*
X610332Y114253D01*
X610333Y114253D01*
X610353Y114300D01*
X610352Y114301D01*
X610353Y114301D01*
X610366Y114349D01*
X610366Y114350D01*
X610367Y114350D01*
X610374Y114399D01*
X610374Y114400D01*
X610374Y114450D01*
X610369Y114500D01*
X610368Y114500D01*
X610368Y114501D01*
X610356Y114550D01*
X610337Y114598D01*
X610337Y114599D01*
X610312Y114645D01*
X609885Y115296D01*
X609459Y115947D01*
X609033Y116597D01*
X608606Y117248D01*
X608180Y117899D01*
X607754Y118549D01*
X607327Y119200D01*
X606904Y119846D01*
X607235Y119942D01*
X607556Y120060D01*
X607862Y120196D01*
X607862Y120197D01*
X607862Y120196D01*
X608152Y120352D01*
X608152Y120353D01*
X608426Y120527D01*
X608683Y120721D01*
X608923Y120933D01*
X608924Y120933D01*
X609147Y121163D01*
X609147Y121165D01*
X609148Y121166D01*
X609148Y121168D01*
X609411Y121489D01*
X609411Y121490D01*
X609638Y121837D01*
X609639Y121837D01*
X609830Y122207D01*
X609830Y122208D01*
X609831Y122208D01*
X609987Y122601D01*
X609986Y122601D01*
X609987Y122602D01*
X610107Y123017D01*
X610192Y123454D01*
X610193Y123454D01*
X610243Y123911D01*
X610242Y123911D01*
X610243Y123911D01*
X610258Y124387D01*
X610257Y124387D01*
X610258Y124387D01*
X610238Y124929D01*
X610238Y124930D01*
X610176Y125447D01*
X610176Y125448D01*
X610071Y125941D01*
X609923Y126408D01*
X609732Y126848D01*
X609499Y127260D01*
X609499Y127261D01*
X609223Y127644D01*
X608905Y127997D01*
X608548Y128313D01*
X608548Y128314D01*
X608159Y128587D01*
X607740Y128818D01*
X607291Y129006D01*
X606813Y129153D01*
X606813Y129152D01*
X606813Y129153D01*
X606308Y129257D01*
X606307Y129257D01*
X605775Y129319D01*
X605216Y129340D01*
X604211Y129340D01*
X603206Y129340D01*
X602201Y129339D01*
X601196Y129339D01*
X600191Y129339D01*
X599186Y129338D01*
X598181Y129338D01*
X596976Y129338D01*
X596677Y129338D01*
X596378Y129337D01*
X595780Y129337D01*
X595481Y129337D01*
X595182Y129337D01*
X594883Y129337D01*
X594585Y129337D01*
X594584Y129337D01*
X594450Y129323D01*
X594449Y129323D01*
X594325Y129283D01*
X594324Y129283D01*
X594214Y129221D01*
X594214Y129220D01*
X594119Y129139D01*
X594118Y129138D01*
X594041Y129041D01*
X594041Y129040D01*
X594040Y129040D01*
X593982Y128929D01*
X593982Y128928D01*
X593946Y128807D01*
X593933Y128679D01*
X593933Y128678D01*
X593933Y114435D01*
X593933Y114434D01*
X593935Y114397D01*
X593941Y114360D01*
X593950Y114324D01*
X593963Y114289D01*
X593978Y114256D01*
X593979Y114256D01*
X593997Y114224D01*
X593998Y114224D01*
X594019Y114194D01*
X594020Y114194D01*
X594044Y114166D01*
X594069Y114142D01*
X594070Y114142D01*
X594070Y114141D01*
X594098Y114120D01*
X594099Y114120D01*
X594099Y114119D01*
X594130Y114101D01*
X594164Y114085D01*
X594199Y114073D01*
X594235Y114064D01*
X594236Y114064D01*
X594272Y114058D01*
X594309Y114056D01*
X596597Y114056D01*
X596597Y114056D01*
G37*
G36*
X513611Y114056D02*
X513611Y114056D01*
X513649Y114058D01*
X513650Y114058D01*
X513687Y114064D01*
X513722Y114073D01*
X513723Y114073D01*
X513756Y114085D01*
X513757Y114085D01*
X513789Y114101D01*
X513820Y114120D01*
X513849Y114141D01*
X513849Y114142D01*
X513876Y114166D01*
X513903Y114194D01*
X513926Y114224D01*
X513927Y114224D01*
X513947Y114256D01*
X513947Y114257D01*
X513964Y114290D01*
X513977Y114325D01*
X513986Y114361D01*
X513992Y114397D01*
X513992Y114398D01*
X513994Y114434D01*
X513994Y124982D01*
X514775Y123911D01*
X515564Y122830D01*
X516353Y121748D01*
X517142Y120667D01*
X517931Y119585D01*
X518720Y118503D01*
X519509Y117422D01*
X520298Y116340D01*
X520326Y116305D01*
X520357Y116274D01*
X520358Y116274D01*
X520358Y116273D01*
X520392Y116246D01*
X520429Y116223D01*
X520430Y116223D01*
X520469Y116205D01*
X520510Y116192D01*
X520511Y116192D01*
X520511Y116191D01*
X520553Y116183D01*
X520554Y116183D01*
X520598Y116180D01*
X520598Y116181D01*
X520598Y116180D01*
X520642Y116183D01*
X520686Y116191D01*
X520686Y116192D01*
X520686Y116191D01*
X520728Y116205D01*
X520729Y116205D01*
X520769Y116223D01*
X520770Y116223D01*
X520808Y116246D01*
X520844Y116273D01*
X520844Y116274D01*
X520876Y116305D01*
X520904Y116340D01*
X521695Y117416D01*
X522486Y118491D01*
X523276Y119566D01*
X524067Y120642D01*
X524858Y121717D01*
X525648Y122792D01*
X526439Y123868D01*
X527222Y124933D01*
X527222Y114434D01*
X527224Y114398D01*
X527224Y114397D01*
X527230Y114361D01*
X527239Y114325D01*
X527252Y114290D01*
X527267Y114257D01*
X527268Y114257D01*
X527268Y114256D01*
X527286Y114224D01*
X527287Y114224D01*
X527308Y114194D01*
X527309Y114194D01*
X527333Y114166D01*
X527361Y114141D01*
X527390Y114120D01*
X527391Y114120D01*
X527391Y114119D01*
X527422Y114101D01*
X527455Y114085D01*
X527456Y114085D01*
X527490Y114073D01*
X527525Y114064D01*
X527526Y114064D01*
X527562Y114058D01*
X527598Y114056D01*
X529824Y114056D01*
X529860Y114058D01*
X529896Y114064D01*
X529897Y114064D01*
X529932Y114073D01*
X529933Y114073D01*
X529967Y114085D01*
X529968Y114085D01*
X530001Y114101D01*
X530002Y114101D01*
X530034Y114119D01*
X530034Y114120D01*
X530035Y114120D01*
X530066Y114141D01*
X530095Y114166D01*
X530096Y114166D01*
X530118Y114194D01*
X530138Y114224D01*
X530138Y114225D01*
X530139Y114225D01*
X530156Y114256D01*
X530156Y114257D01*
X530171Y114290D01*
X530172Y114291D01*
X530184Y114325D01*
X530183Y114325D01*
X530184Y114326D01*
X530193Y114361D01*
X530198Y114397D01*
X530198Y114398D01*
X530200Y114434D01*
X530200Y128678D01*
X530188Y128806D01*
X530187Y128807D01*
X530151Y128928D01*
X530151Y128929D01*
X530093Y129040D01*
X530092Y129040D01*
X530092Y129041D01*
X530015Y129139D01*
X530014Y129139D01*
X529919Y129221D01*
X529919Y129222D01*
X529809Y129284D01*
X529808Y129284D01*
X529808Y129285D01*
X529684Y129325D01*
X529683Y129325D01*
X529549Y129340D01*
X529548Y129340D01*
X527054Y129340D01*
X527008Y129338D01*
X526964Y129330D01*
X526922Y129318D01*
X526883Y129302D01*
X526882Y129301D01*
X526845Y129280D01*
X526810Y129255D01*
X526810Y129254D01*
X526778Y129225D01*
X526778Y129224D01*
X526777Y129224D01*
X526748Y129191D01*
X526748Y129190D01*
X526747Y129190D01*
X525978Y128144D01*
X525209Y127098D01*
X524440Y126051D01*
X523671Y125005D01*
X522133Y122912D01*
X521364Y121865D01*
X520598Y120824D01*
X519836Y121865D01*
X519070Y122912D01*
X518304Y123958D01*
X517539Y125005D01*
X516773Y126051D01*
X516007Y127098D01*
X515242Y128144D01*
X514476Y129190D01*
X514476Y129191D01*
X514446Y129224D01*
X514445Y129224D01*
X514445Y129225D01*
X514413Y129254D01*
X514412Y129254D01*
X514412Y129255D01*
X514377Y129280D01*
X514376Y129280D01*
X514338Y129301D01*
X514338Y129302D01*
X514298Y129318D01*
X514256Y129330D01*
X514213Y129338D01*
X514169Y129340D01*
X511661Y129340D01*
X511528Y129325D01*
X511406Y129285D01*
X511405Y129284D01*
X511295Y129222D01*
X511295Y129221D01*
X511200Y129139D01*
X511122Y129041D01*
X511122Y129040D01*
X511121Y129040D01*
X511063Y128929D01*
X511062Y128928D01*
X511024Y128807D01*
X511025Y128807D01*
X511024Y128807D01*
X511009Y128679D01*
X511010Y128678D01*
X511009Y128678D01*
X511009Y114434D01*
X511011Y114398D01*
X511011Y114397D01*
X511017Y114361D01*
X511027Y114325D01*
X511040Y114290D01*
X511057Y114257D01*
X511057Y114256D01*
X511077Y114224D01*
X511101Y114194D01*
X511128Y114166D01*
X511153Y114142D01*
X511153Y114141D01*
X511182Y114120D01*
X511182Y114119D01*
X511213Y114101D01*
X511214Y114101D01*
X511247Y114085D01*
X511282Y114073D01*
X511283Y114073D01*
X511319Y114064D01*
X511356Y114058D01*
X511392Y114056D01*
X511393Y114056D01*
X513611Y114056D01*
X513611Y114056D01*
G37*
G36*
X551652Y114056D02*
X551652Y114056D01*
X551698Y114059D01*
X551699Y114060D01*
X551699Y114059D01*
X551745Y114068D01*
X551745Y114069D01*
X551790Y114083D01*
X551790Y114084D01*
X551790Y114083D01*
X551833Y114104D01*
X551873Y114129D01*
X551873Y114130D01*
X551874Y114130D01*
X551910Y114160D01*
X551910Y114161D01*
X551911Y114161D01*
X551944Y114196D01*
X551944Y114197D01*
X551972Y114237D01*
X551972Y114238D01*
X551973Y114238D01*
X551993Y114280D01*
X551994Y114280D01*
X552009Y114324D01*
X552009Y114325D01*
X552019Y114371D01*
X552024Y114418D01*
X552023Y114465D01*
X552023Y114466D01*
X552017Y114512D01*
X552016Y114512D01*
X552017Y114513D01*
X552005Y114558D01*
X552004Y114559D01*
X551987Y114603D01*
X551986Y114603D01*
X551072Y116420D01*
X550157Y118236D01*
X549243Y120052D01*
X548328Y121868D01*
X547413Y123685D01*
X546499Y125501D01*
X545584Y127317D01*
X544669Y129133D01*
X544669Y129134D01*
X544641Y129177D01*
X544640Y129178D01*
X544607Y129218D01*
X544570Y129253D01*
X544569Y129253D01*
X544528Y129283D01*
X544484Y129307D01*
X544483Y129307D01*
X544483Y129308D01*
X544436Y129325D01*
X544386Y129336D01*
X544335Y129340D01*
X542989Y129340D01*
X542988Y129340D01*
X541448Y129340D01*
X541447Y129340D01*
X541394Y129337D01*
X541394Y129336D01*
X541394Y129337D01*
X541343Y129326D01*
X541342Y129325D01*
X541294Y129308D01*
X541294Y129307D01*
X541249Y129283D01*
X541208Y129253D01*
X541171Y129218D01*
X541140Y129178D01*
X541140Y129177D01*
X541139Y129177D01*
X541113Y129134D01*
X541113Y129133D01*
X540198Y127317D01*
X539282Y125501D01*
X538366Y123685D01*
X537451Y121868D01*
X536535Y120052D01*
X535620Y118236D01*
X534704Y116420D01*
X533789Y114604D01*
X533789Y114603D01*
X533771Y114559D01*
X533759Y114513D01*
X533759Y114512D01*
X533753Y114466D01*
X533753Y114465D01*
X533752Y114418D01*
X533753Y114418D01*
X533752Y114418D01*
X533758Y114371D01*
X533769Y114325D01*
X533770Y114325D01*
X533769Y114325D01*
X533787Y114280D01*
X533810Y114238D01*
X533810Y114237D01*
X533838Y114197D01*
X533869Y114161D01*
X533870Y114161D01*
X533905Y114130D01*
X533944Y114104D01*
X533986Y114084D01*
X533986Y114083D01*
X534031Y114069D01*
X534032Y114069D01*
X534079Y114060D01*
X534080Y114059D01*
X534130Y114056D01*
X534130Y114057D01*
X534130Y114056D01*
X536631Y114056D01*
X536631Y114057D01*
X536632Y114056D01*
X536685Y114060D01*
X536685Y114061D01*
X536686Y114060D01*
X536737Y114071D01*
X536738Y114072D01*
X536787Y114090D01*
X536833Y114114D01*
X536834Y114114D01*
X536876Y114145D01*
X536913Y114181D01*
X536914Y114181D01*
X536946Y114221D01*
X536946Y114222D01*
X536973Y114267D01*
X537160Y114648D01*
X537347Y115029D01*
X537720Y115790D01*
X537907Y116171D01*
X538094Y116551D01*
X538281Y116932D01*
X538467Y117310D01*
X547315Y117310D01*
X547500Y116932D01*
X547686Y116551D01*
X547872Y116171D01*
X548058Y115790D01*
X548244Y115409D01*
X548430Y115028D01*
X548616Y114648D01*
X548802Y114267D01*
X548803Y114267D01*
X548829Y114222D01*
X548829Y114221D01*
X548861Y114181D01*
X548862Y114181D01*
X548862Y114180D01*
X548899Y114145D01*
X548899Y114144D01*
X548941Y114114D01*
X548986Y114090D01*
X548987Y114089D01*
X549034Y114071D01*
X549035Y114072D01*
X549035Y114071D01*
X549085Y114060D01*
X549136Y114056D01*
X549137Y114056D01*
X551652Y114056D01*
X551652Y114056D01*
G37*
G36*
X631171Y114056D02*
X631171Y114056D01*
X631218Y114059D01*
X631218Y114060D01*
X631219Y114059D01*
X631264Y114068D01*
X631265Y114069D01*
X631309Y114083D01*
X631310Y114084D01*
X631310Y114083D01*
X631352Y114104D01*
X631353Y114104D01*
X631393Y114129D01*
X631393Y114130D01*
X631430Y114160D01*
X631430Y114161D01*
X631463Y114196D01*
X631463Y114197D01*
X631492Y114237D01*
X631492Y114238D01*
X631513Y114280D01*
X631528Y114324D01*
X631528Y114325D01*
X631529Y114325D01*
X631539Y114371D01*
X631538Y114371D01*
X631539Y114371D01*
X631543Y114418D01*
X631543Y114465D01*
X631542Y114465D01*
X631543Y114465D01*
X631536Y114512D01*
X631536Y114513D01*
X631524Y114558D01*
X631524Y114559D01*
X631506Y114603D01*
X630591Y116420D01*
X629677Y118236D01*
X628762Y120052D01*
X627847Y121868D01*
X626933Y123685D01*
X626018Y125501D01*
X625103Y127317D01*
X624189Y129133D01*
X624188Y129133D01*
X624189Y129134D01*
X624160Y129177D01*
X624160Y129178D01*
X624127Y129218D01*
X624126Y129218D01*
X624089Y129253D01*
X624048Y129283D01*
X624047Y129283D01*
X624003Y129307D01*
X624003Y129308D01*
X623956Y129325D01*
X623955Y129325D01*
X623906Y129336D01*
X623905Y129336D01*
X623854Y129340D01*
X622508Y129340D01*
X622507Y129340D01*
X620967Y129340D01*
X620914Y129337D01*
X620913Y129336D01*
X620913Y129337D01*
X620862Y129326D01*
X620862Y129325D01*
X620814Y129308D01*
X620814Y129307D01*
X620813Y129307D01*
X620769Y129283D01*
X620768Y129283D01*
X620728Y129253D01*
X620727Y129253D01*
X620691Y129218D01*
X620659Y129178D01*
X620659Y129177D01*
X620633Y129134D01*
X620633Y129133D01*
X619717Y127317D01*
X618802Y125501D01*
X617886Y123685D01*
X616970Y121868D01*
X616055Y120052D01*
X615139Y118236D01*
X614224Y116420D01*
X613308Y114604D01*
X613308Y114603D01*
X613290Y114559D01*
X613278Y114513D01*
X613278Y114512D01*
X613272Y114466D01*
X613272Y114465D01*
X613272Y114418D01*
X613277Y114371D01*
X613278Y114371D01*
X613277Y114371D01*
X613289Y114325D01*
X613306Y114280D01*
X613329Y114238D01*
X613329Y114237D01*
X613357Y114197D01*
X613389Y114161D01*
X613424Y114130D01*
X613425Y114130D01*
X613463Y114104D01*
X613464Y114104D01*
X613505Y114084D01*
X613506Y114084D01*
X613506Y114083D01*
X613550Y114069D01*
X613551Y114069D01*
X613599Y114060D01*
X613599Y114059D01*
X613649Y114056D01*
X613650Y114057D01*
X613650Y114056D01*
X616151Y114056D01*
X616151Y114057D01*
X616151Y114056D01*
X616205Y114060D01*
X616205Y114061D01*
X616205Y114060D01*
X616257Y114071D01*
X616257Y114072D01*
X616306Y114090D01*
X616307Y114090D01*
X616353Y114114D01*
X616395Y114145D01*
X616433Y114181D01*
X616465Y114221D01*
X616465Y114222D01*
X616466Y114222D01*
X616492Y114267D01*
X616679Y114648D01*
X616866Y115029D01*
X617240Y115790D01*
X617427Y116171D01*
X617614Y116551D01*
X617801Y116932D01*
X617986Y117310D01*
X622507Y117310D01*
X622508Y117310D01*
X626835Y117310D01*
X627020Y116932D01*
X627206Y116551D01*
X627392Y116171D01*
X627578Y115790D01*
X627764Y115409D01*
X627950Y115028D01*
X628136Y114648D01*
X628322Y114267D01*
X628349Y114222D01*
X628349Y114221D01*
X628381Y114181D01*
X628381Y114180D01*
X628418Y114145D01*
X628419Y114145D01*
X628419Y114144D01*
X628460Y114114D01*
X628461Y114114D01*
X628506Y114090D01*
X628506Y114089D01*
X628554Y114071D01*
X628554Y114072D01*
X628554Y114071D01*
X628604Y114060D01*
X628605Y114060D01*
X628656Y114056D01*
X631171Y114056D01*
X631171Y114056D01*
G37*
G36*
X575196Y114056D02*
X575196Y114056D01*
X575234Y114058D01*
X575235Y114058D01*
X575271Y114064D01*
X575272Y114064D01*
X575307Y114073D01*
X575341Y114085D01*
X575374Y114101D01*
X575404Y114120D01*
X575405Y114120D01*
X575433Y114141D01*
X575433Y114142D01*
X575434Y114141D01*
X575460Y114166D01*
X575461Y114166D01*
X575485Y114194D01*
X575486Y114194D01*
X575507Y114224D01*
X575526Y114256D01*
X575526Y114257D01*
X575527Y114257D01*
X575542Y114290D01*
X575543Y114290D01*
X575555Y114325D01*
X575564Y114361D01*
X575570Y114397D01*
X575570Y114398D01*
X575572Y114434D01*
X575572Y120521D01*
X585706Y120521D01*
X585706Y114434D01*
X585708Y114398D01*
X585708Y114397D01*
X585714Y114361D01*
X585723Y114325D01*
X585735Y114290D01*
X585736Y114290D01*
X585751Y114257D01*
X585752Y114257D01*
X585751Y114256D01*
X585770Y114224D01*
X585771Y114224D01*
X585792Y114194D01*
X585793Y114194D01*
X585817Y114166D01*
X585818Y114166D01*
X585845Y114141D01*
X585875Y114120D01*
X585876Y114120D01*
X585876Y114119D01*
X585908Y114101D01*
X585942Y114085D01*
X585977Y114073D01*
X586012Y114064D01*
X586013Y114064D01*
X586047Y114058D01*
X586048Y114058D01*
X586082Y114056D01*
X588446Y114056D01*
X588482Y114058D01*
X588483Y114058D01*
X588519Y114064D01*
X588520Y114064D01*
X588556Y114073D01*
X588591Y114085D01*
X588625Y114101D01*
X588656Y114119D01*
X588656Y114120D01*
X588685Y114141D01*
X588685Y114142D01*
X588710Y114166D01*
X588735Y114194D01*
X588757Y114224D01*
X588776Y114256D01*
X588776Y114257D01*
X588792Y114290D01*
X588805Y114325D01*
X588814Y114361D01*
X588820Y114397D01*
X588820Y114398D01*
X588822Y114434D01*
X588822Y128714D01*
X588822Y128728D01*
X588821Y128728D01*
X588822Y128728D01*
X588821Y128742D01*
X588819Y128756D01*
X588817Y128770D01*
X588815Y128785D01*
X588813Y128799D01*
X588811Y128814D01*
X588808Y128829D01*
X588774Y128932D01*
X588773Y128932D01*
X588774Y128932D01*
X588724Y129027D01*
X588724Y129028D01*
X588660Y129114D01*
X588659Y129114D01*
X588583Y129189D01*
X588582Y129189D01*
X588582Y129190D01*
X588494Y129251D01*
X588493Y129252D01*
X588395Y129299D01*
X588394Y129298D01*
X588394Y129299D01*
X588287Y129329D01*
X588286Y129329D01*
X588170Y129340D01*
X586082Y129340D01*
X586048Y129338D01*
X586047Y129338D01*
X586013Y129333D01*
X586012Y129333D01*
X585977Y129324D01*
X585942Y129312D01*
X585908Y129296D01*
X585876Y129277D01*
X585875Y129277D01*
X585845Y129256D01*
X585845Y129255D01*
X585818Y129231D01*
X585817Y129231D01*
X585793Y129203D01*
X585792Y129203D01*
X585771Y129173D01*
X585770Y129173D01*
X585751Y129142D01*
X585752Y129142D01*
X585751Y129142D01*
X585736Y129109D01*
X585735Y129109D01*
X585723Y129075D01*
X585723Y129074D01*
X585714Y129039D01*
X585714Y129038D01*
X585713Y129038D01*
X585708Y129001D01*
X585706Y128963D01*
X585706Y123441D01*
X575572Y123441D01*
X575572Y128963D01*
X575570Y129001D01*
X575564Y129038D01*
X575564Y129039D01*
X575555Y129074D01*
X575555Y129075D01*
X575543Y129109D01*
X575542Y129109D01*
X575527Y129142D01*
X575526Y129142D01*
X575507Y129173D01*
X575486Y129203D01*
X575485Y129203D01*
X575461Y129231D01*
X575460Y129231D01*
X575434Y129255D01*
X575433Y129255D01*
X575433Y129256D01*
X575405Y129277D01*
X575404Y129277D01*
X575374Y129296D01*
X575341Y129312D01*
X575341Y129311D01*
X575341Y129312D01*
X575307Y129324D01*
X575272Y129333D01*
X575271Y129333D01*
X575235Y129338D01*
X575234Y129338D01*
X575196Y129340D01*
X572998Y129340D01*
X572977Y129340D01*
X572956Y129338D01*
X572936Y129335D01*
X572935Y129335D01*
X572915Y129331D01*
X572895Y129326D01*
X572876Y129321D01*
X572875Y129320D01*
X572856Y129314D01*
X572838Y129307D01*
X572744Y129264D01*
X572743Y129264D01*
X572659Y129208D01*
X572658Y129208D01*
X572584Y129140D01*
X572583Y129140D01*
X572521Y129063D01*
X572521Y129062D01*
X572520Y129062D01*
X572470Y128976D01*
X572469Y128976D01*
X572432Y128882D01*
X572409Y128783D01*
X572409Y128782D01*
X572401Y128678D01*
X572401Y114434D01*
X572402Y114398D01*
X572403Y114398D01*
X572402Y114397D01*
X572407Y114361D01*
X572408Y114361D01*
X572407Y114361D01*
X572416Y114326D01*
X572416Y114325D01*
X572428Y114291D01*
X572428Y114290D01*
X572443Y114257D01*
X572444Y114257D01*
X572444Y114256D01*
X572463Y114224D01*
X572486Y114194D01*
X572512Y114166D01*
X572538Y114142D01*
X572538Y114141D01*
X572566Y114120D01*
X572567Y114120D01*
X572567Y114119D01*
X572598Y114101D01*
X572632Y114085D01*
X572667Y114073D01*
X572703Y114064D01*
X572704Y114064D01*
X572740Y114058D01*
X572741Y114058D01*
X572777Y114056D01*
X575196Y114056D01*
X575196Y114056D01*
G37*
G36*
X637794Y114060D02*
X637794Y114060D01*
X637832Y114062D01*
X637833Y114062D01*
X637871Y114068D01*
X637872Y114068D01*
X637909Y114078D01*
X637910Y114078D01*
X637946Y114092D01*
X637981Y114109D01*
X638014Y114129D01*
X638044Y114151D01*
X638044Y114152D01*
X638044Y114151D01*
X638072Y114176D01*
X638732Y114875D01*
X639392Y115574D01*
X640051Y116273D01*
X640711Y116971D01*
X641371Y117670D01*
X642031Y118369D01*
X642690Y119067D01*
X643347Y119763D01*
X644009Y119067D01*
X646003Y116970D01*
X646668Y116270D01*
X647998Y114872D01*
X648663Y114173D01*
X648690Y114149D01*
X648691Y114149D01*
X648720Y114127D01*
X648721Y114128D01*
X648721Y114127D01*
X648752Y114108D01*
X648753Y114108D01*
X648787Y114092D01*
X648787Y114091D01*
X648823Y114078D01*
X648861Y114068D01*
X648900Y114062D01*
X648901Y114062D01*
X648942Y114060D01*
X651918Y114060D01*
X651919Y114060D01*
X651974Y114064D01*
X651975Y114064D01*
X652028Y114075D01*
X652029Y114076D01*
X652079Y114094D01*
X652079Y114095D01*
X652080Y114095D01*
X652126Y114121D01*
X652127Y114121D01*
X652169Y114153D01*
X652170Y114153D01*
X652207Y114192D01*
X652208Y114192D01*
X652240Y114236D01*
X652240Y114237D01*
X652267Y114286D01*
X652267Y114287D01*
X652284Y114339D01*
X652293Y114393D01*
X652293Y114394D01*
X652295Y114448D01*
X652294Y114448D01*
X652295Y114448D01*
X652289Y114502D01*
X652288Y114502D01*
X652289Y114502D01*
X652275Y114554D01*
X652275Y114555D01*
X652254Y114605D01*
X652226Y114651D01*
X652225Y114651D01*
X652226Y114652D01*
X652190Y114694D01*
X651339Y115583D01*
X650488Y116473D01*
X649637Y117362D01*
X648786Y118252D01*
X647936Y119141D01*
X647085Y120031D01*
X646234Y120920D01*
X645385Y121807D01*
X646203Y122666D01*
X647023Y123529D01*
X647843Y124391D01*
X648663Y125253D01*
X649482Y126116D01*
X650302Y126978D01*
X651122Y127840D01*
X651942Y128703D01*
X651976Y128746D01*
X652003Y128793D01*
X652024Y128843D01*
X652023Y128843D01*
X652024Y128843D01*
X652037Y128895D01*
X652037Y128896D01*
X652043Y128949D01*
X652041Y129004D01*
X652031Y129059D01*
X652012Y129114D01*
X651987Y129162D01*
X651987Y129163D01*
X651956Y129206D01*
X651955Y129206D01*
X651955Y129207D01*
X651918Y129245D01*
X651875Y129278D01*
X651828Y129304D01*
X651828Y129305D01*
X651778Y129324D01*
X651777Y129324D01*
X651725Y129336D01*
X651724Y129336D01*
X651671Y129340D01*
X651670Y129340D01*
X648687Y129340D01*
X648648Y129338D01*
X648610Y129332D01*
X648574Y129323D01*
X648573Y129322D01*
X648538Y129309D01*
X648504Y129292D01*
X648472Y129271D01*
X648442Y129247D01*
X648415Y129220D01*
X647785Y128550D01*
X647154Y127880D01*
X646524Y127209D01*
X645893Y126539D01*
X645263Y125869D01*
X644632Y125198D01*
X644002Y124528D01*
X643374Y123861D01*
X642745Y124528D01*
X642113Y125198D01*
X641481Y125869D01*
X640849Y126539D01*
X640217Y127209D01*
X639584Y127880D01*
X638952Y128550D01*
X638320Y129220D01*
X638293Y129248D01*
X638263Y129273D01*
X638231Y129293D01*
X638230Y129294D01*
X638197Y129310D01*
X638196Y129310D01*
X638160Y129323D01*
X638160Y129324D01*
X638122Y129333D01*
X638083Y129338D01*
X638082Y129338D01*
X638042Y129340D01*
X638041Y129340D01*
X635065Y129340D01*
X635009Y129336D01*
X635008Y129336D01*
X634955Y129324D01*
X634954Y129324D01*
X634904Y129305D01*
X634904Y129304D01*
X634857Y129278D01*
X634814Y129245D01*
X634776Y129207D01*
X634776Y129206D01*
X634743Y129163D01*
X634743Y129162D01*
X634717Y129114D01*
X634716Y129114D01*
X634698Y129059D01*
X634697Y129059D01*
X634687Y129004D01*
X634685Y128949D01*
X634686Y128949D01*
X634685Y128949D01*
X634691Y128896D01*
X634692Y128895D01*
X634691Y128895D01*
X634705Y128843D01*
X634725Y128793D01*
X634726Y128793D01*
X634725Y128793D01*
X634752Y128746D01*
X634753Y128746D01*
X634786Y128703D01*
X635607Y127839D01*
X636428Y126975D01*
X637249Y126111D01*
X638069Y125247D01*
X638890Y124383D01*
X639711Y123519D01*
X640532Y122656D01*
X641350Y121795D01*
X640502Y120910D01*
X639651Y120022D01*
X638800Y119134D01*
X637949Y118246D01*
X637098Y117358D01*
X636247Y116470D01*
X634545Y114694D01*
X634510Y114652D01*
X634510Y114651D01*
X634509Y114651D01*
X634481Y114605D01*
X634482Y114605D01*
X634481Y114605D01*
X634460Y114555D01*
X634461Y114554D01*
X634460Y114554D01*
X634447Y114502D01*
X634441Y114448D01*
X634442Y114394D01*
X634443Y114393D01*
X634442Y114393D01*
X634452Y114339D01*
X634468Y114287D01*
X634469Y114286D01*
X634495Y114237D01*
X634496Y114237D01*
X634495Y114236D01*
X634528Y114192D01*
X634566Y114153D01*
X634609Y114121D01*
X634656Y114095D01*
X634656Y114094D01*
X634706Y114076D01*
X634707Y114076D01*
X634707Y114075D01*
X634760Y114064D01*
X634761Y114064D01*
X634816Y114060D01*
X634817Y114060D01*
X637794Y114060D01*
X637794Y114060D01*
G37*
G36*
X561691Y114056D02*
X561691Y114056D01*
X561727Y114058D01*
X561728Y114058D01*
X561763Y114064D01*
X561764Y114064D01*
X561799Y114073D01*
X561834Y114085D01*
X561867Y114101D01*
X561898Y114119D01*
X561899Y114120D01*
X561928Y114141D01*
X561928Y114142D01*
X561928Y114141D01*
X561955Y114166D01*
X561956Y114166D01*
X561980Y114194D01*
X561981Y114194D01*
X562002Y114224D01*
X562003Y114224D01*
X562022Y114256D01*
X562022Y114257D01*
X562038Y114290D01*
X562037Y114290D01*
X562038Y114290D01*
X562050Y114325D01*
X562060Y114361D01*
X562059Y114361D01*
X562060Y114361D01*
X562065Y114397D01*
X562065Y114398D01*
X562067Y114434D01*
X562067Y126417D01*
X568299Y126417D01*
X568335Y126419D01*
X568371Y126425D01*
X568372Y126425D01*
X568407Y126435D01*
X568442Y126448D01*
X568475Y126465D01*
X568507Y126485D01*
X568536Y126509D01*
X568537Y126509D01*
X568564Y126536D01*
X568590Y126560D01*
X568590Y126561D01*
X568613Y126589D01*
X568632Y126619D01*
X568632Y126620D01*
X568648Y126652D01*
X568648Y126653D01*
X568660Y126687D01*
X568668Y126723D01*
X568668Y126724D01*
X568673Y126761D01*
X568675Y126799D01*
X568675Y128678D01*
X568662Y128806D01*
X568662Y128807D01*
X568626Y128928D01*
X568625Y128929D01*
X568626Y128929D01*
X568568Y129040D01*
X568567Y129040D01*
X568567Y129041D01*
X568491Y129139D01*
X568490Y129139D01*
X568396Y129221D01*
X568395Y129221D01*
X568395Y129222D01*
X568286Y129284D01*
X568285Y129285D01*
X568164Y129325D01*
X568163Y129325D01*
X568030Y129340D01*
X553058Y129340D01*
X553057Y129340D01*
X552923Y129325D01*
X552922Y129325D01*
X552798Y129285D01*
X552798Y129284D01*
X552797Y129284D01*
X552687Y129222D01*
X552687Y129221D01*
X552686Y129221D01*
X552591Y129139D01*
X552513Y129041D01*
X552513Y129040D01*
X552455Y128929D01*
X552455Y128928D01*
X552418Y128807D01*
X552419Y128807D01*
X552418Y128806D01*
X552406Y128678D01*
X552406Y126799D01*
X552408Y126761D01*
X552413Y126724D01*
X552413Y126723D01*
X552422Y126687D01*
X552423Y126687D01*
X552435Y126652D01*
X552451Y126619D01*
X552451Y126618D01*
X552470Y126588D01*
X552470Y126587D01*
X552492Y126559D01*
X552493Y126559D01*
X552493Y126558D01*
X552517Y126533D01*
X552517Y126532D01*
X552546Y126507D01*
X552547Y126507D01*
X552547Y126506D01*
X552577Y126484D01*
X552609Y126464D01*
X552642Y126448D01*
X552643Y126448D01*
X552643Y126447D01*
X552677Y126434D01*
X552677Y126435D01*
X552677Y126434D01*
X552713Y126425D01*
X552750Y126419D01*
X552789Y126417D01*
X559020Y126417D01*
X559020Y114434D01*
X559022Y114398D01*
X559022Y114397D01*
X559027Y114361D01*
X559035Y114326D01*
X559035Y114325D01*
X559047Y114291D01*
X559047Y114290D01*
X559063Y114257D01*
X559063Y114256D01*
X559082Y114224D01*
X559105Y114194D01*
X559132Y114166D01*
X559159Y114141D01*
X559189Y114120D01*
X559189Y114119D01*
X559220Y114101D01*
X559221Y114101D01*
X559253Y114085D01*
X559254Y114085D01*
X559288Y114073D01*
X559323Y114064D01*
X559324Y114064D01*
X559360Y114058D01*
X559396Y114056D01*
X561691Y114056D01*
X561691Y114056D01*
G37*
%LPC*%
G36*
X603916Y122516D02*
X603916Y122516D01*
X602953Y122516D01*
X601990Y122517D01*
X601027Y122517D01*
X600064Y122518D01*
X599101Y122518D01*
X598139Y122519D01*
X596980Y122519D01*
X596980Y126416D01*
X604665Y126416D01*
X604992Y126407D01*
X605293Y126382D01*
X605568Y126340D01*
X605817Y126282D01*
X606041Y126209D01*
X606242Y126121D01*
X606418Y126020D01*
X606571Y125907D01*
X606704Y125780D01*
X606821Y125638D01*
X606920Y125480D01*
X607002Y125304D01*
X607067Y125108D01*
X607114Y124891D01*
X607143Y124651D01*
X607155Y124387D01*
X607144Y124143D01*
X607118Y123922D01*
X607075Y123722D01*
X607017Y123543D01*
X606942Y123381D01*
X606853Y123236D01*
X606747Y123106D01*
X606626Y122990D01*
X606486Y122885D01*
X606324Y122792D01*
X606140Y122711D01*
X605933Y122643D01*
X605704Y122588D01*
X605452Y122548D01*
X605177Y122524D01*
X604879Y122516D01*
X603916Y122516D01*
G37*
%LPD*%
%LPC*%
G36*
X539959Y120230D02*
X539959Y120230D01*
X540324Y120951D01*
X540692Y121678D01*
X541059Y122405D01*
X541427Y123132D01*
X541795Y123859D01*
X542163Y124587D01*
X542530Y125314D01*
X542897Y126038D01*
X542913Y126038D01*
X542921Y126023D01*
X542930Y126005D01*
X542939Y125987D01*
X542957Y125950D01*
X542966Y125932D01*
X542975Y125914D01*
X542984Y125896D01*
X542984Y125895D01*
X543339Y125186D01*
X543695Y124477D01*
X544050Y123768D01*
X544405Y123060D01*
X544760Y122351D01*
X545115Y121642D01*
X545470Y120933D01*
X545823Y120230D01*
X539959Y120230D01*
G37*
%LPD*%
%LPC*%
G36*
X622507Y120230D02*
X622507Y120230D01*
X619479Y120230D01*
X619843Y120951D01*
X620211Y121678D01*
X620579Y122405D01*
X620947Y123132D01*
X621314Y123859D01*
X621682Y124587D01*
X622050Y125314D01*
X622417Y126038D01*
X622432Y126038D01*
X622440Y126023D01*
X622449Y126005D01*
X622458Y125987D01*
X622467Y125968D01*
X622476Y125950D01*
X622485Y125932D01*
X622495Y125914D01*
X622504Y125896D01*
X622504Y125895D01*
X622859Y125186D01*
X623214Y124477D01*
X623569Y123768D01*
X623924Y123060D01*
X624280Y122351D01*
X624635Y121642D01*
X624990Y120933D01*
X625342Y120230D01*
X622508Y120230D01*
X622507Y120230D01*
X622507Y120230D01*
G37*
%LPD*%
D10*
X3490000Y180000D02*
X10000Y180000D01*
X8978Y179948D01*
X7985Y179797D01*
X7026Y179550D01*
X6108Y179214D01*
X5233Y178793D01*
X4409Y178292D01*
X3639Y177717D01*
X2929Y177071D01*
X2284Y176361D01*
X1708Y175591D01*
X1207Y174767D01*
X786Y173893D01*
X450Y172974D01*
X203Y172015D01*
X52Y171022D01*
X0Y170000D01*
X0Y10000D01*
X52Y8978D01*
X203Y7985D01*
X450Y7026D01*
X786Y6108D01*
X1207Y5233D01*
X1708Y4409D01*
X2284Y3639D01*
X2929Y2929D01*
X3639Y2284D01*
X4409Y1708D01*
X5233Y1207D01*
X6108Y786D01*
X7026Y450D01*
X7985Y203D01*
X8978Y52D01*
X10000Y0D01*
X3490000Y0D01*
X3491022Y52D01*
X3492015Y203D01*
X3492974Y450D01*
X3493893Y786D01*
X3494767Y1207D01*
X3495591Y1708D01*
X3496361Y2284D01*
X3497071Y2929D01*
X3497717Y3639D01*
X3498292Y4409D01*
X3498793Y5233D01*
X3499214Y6108D01*
X3499550Y7026D01*
X3499797Y7985D01*
X3499948Y8978D01*
X3500000Y10000D01*
X3500000Y170000D01*
X3499948Y171022D01*
X3499797Y172015D01*
X3499550Y172974D01*
X3499214Y173893D01*
X3498793Y174767D01*
X3498292Y175591D01*
X3497717Y176361D01*
X3497071Y177071D01*
X3496361Y177717D01*
X3495591Y178292D01*
X3494767Y178793D01*
X3493893Y179214D01*
X3492974Y179550D01*
X3492015Y179797D01*
X3491022Y179948D01*
X3490000Y180000D01*
D11*
X184000Y40000D03*
X216000Y40000D03*
D12*
X273500Y165000D03*
X256500Y165000D03*
X273500Y115000D03*
X256500Y115000D03*
D13*
X282550Y40000D03*
X247450Y40000D03*
D12*
X273500Y140000D03*
X256500Y140000D03*
X273500Y15000D03*
X256500Y15000D03*
D14*
X389620Y19730D02*
X389620Y22770D01*
X389620Y19730D02*
X370380Y19730D01*
X370380Y22770D01*
X389620Y22770D01*
X389620Y20452D02*
X370380Y20452D01*
X370380Y21174D02*
X389620Y21174D01*
X389620Y21896D02*
X370380Y21896D01*
X370380Y22618D02*
X389620Y22618D01*
X389620Y26230D02*
X389620Y29270D01*
X389620Y26230D02*
X370380Y26230D01*
X370380Y29270D01*
X389620Y29270D01*
X389620Y26952D02*
X370380Y26952D01*
X370380Y27674D02*
X389620Y27674D01*
X389620Y28396D02*
X370380Y28396D01*
X370380Y29118D02*
X389620Y29118D01*
X389620Y32730D02*
X389620Y35770D01*
X389620Y32730D02*
X370380Y32730D01*
X370380Y35770D01*
X389620Y35770D01*
X389620Y33452D02*
X370380Y33452D01*
X370380Y34174D02*
X389620Y34174D01*
X389620Y34896D02*
X370380Y34896D01*
X370380Y35618D02*
X389620Y35618D01*
X389620Y39230D02*
X389620Y42270D01*
X389620Y39230D02*
X370380Y39230D01*
X370380Y42270D01*
X389620Y42270D01*
X389620Y39952D02*
X370380Y39952D01*
X370380Y40674D02*
X389620Y40674D01*
X389620Y41396D02*
X370380Y41396D01*
X370380Y42118D02*
X389620Y42118D01*
X389620Y45730D02*
X389620Y48770D01*
X389620Y45730D02*
X370380Y45730D01*
X370380Y48770D01*
X389620Y48770D01*
X389620Y46452D02*
X370380Y46452D01*
X370380Y47174D02*
X389620Y47174D01*
X389620Y47896D02*
X370380Y47896D01*
X370380Y48618D02*
X389620Y48618D01*
X389620Y52230D02*
X389620Y55270D01*
X389620Y52230D02*
X370380Y52230D01*
X370380Y55270D01*
X389620Y55270D01*
X389620Y52952D02*
X370380Y52952D01*
X370380Y53674D02*
X389620Y53674D01*
X389620Y54396D02*
X370380Y54396D01*
X370380Y55118D02*
X389620Y55118D01*
X389620Y58730D02*
X389620Y61770D01*
X389620Y58730D02*
X370380Y58730D01*
X370380Y61770D01*
X389620Y61770D01*
X389620Y59452D02*
X370380Y59452D01*
X370380Y60174D02*
X389620Y60174D01*
X389620Y60896D02*
X370380Y60896D01*
X370380Y61618D02*
X389620Y61618D01*
X389620Y65230D02*
X389620Y68270D01*
X389620Y65230D02*
X370380Y65230D01*
X370380Y68270D01*
X389620Y68270D01*
X389620Y65952D02*
X370380Y65952D01*
X370380Y66674D02*
X389620Y66674D01*
X389620Y67396D02*
X370380Y67396D01*
X370380Y68118D02*
X389620Y68118D01*
X389620Y71730D02*
X389620Y74770D01*
X389620Y71730D02*
X370380Y71730D01*
X370380Y74770D01*
X389620Y74770D01*
X389620Y72452D02*
X370380Y72452D01*
X370380Y73174D02*
X389620Y73174D01*
X389620Y73896D02*
X370380Y73896D01*
X370380Y74618D02*
X389620Y74618D01*
X389620Y78230D02*
X389620Y81270D01*
X389620Y78230D02*
X370380Y78230D01*
X370380Y81270D01*
X389620Y81270D01*
X389620Y78952D02*
X370380Y78952D01*
X370380Y79674D02*
X389620Y79674D01*
X389620Y80396D02*
X370380Y80396D01*
X370380Y81118D02*
X389620Y81118D01*
X389620Y84730D02*
X389620Y87770D01*
X389620Y84730D02*
X370380Y84730D01*
X370380Y87770D01*
X389620Y87770D01*
X389620Y85452D02*
X370380Y85452D01*
X370380Y86174D02*
X389620Y86174D01*
X389620Y86896D02*
X370380Y86896D01*
X370380Y87618D02*
X389620Y87618D01*
X389620Y91230D02*
X389620Y94270D01*
X389620Y91230D02*
X370380Y91230D01*
X370380Y94270D01*
X389620Y94270D01*
X389620Y91952D02*
X370380Y91952D01*
X370380Y92674D02*
X389620Y92674D01*
X389620Y93396D02*
X370380Y93396D01*
X370380Y94118D02*
X389620Y94118D01*
X389620Y97730D02*
X389620Y100770D01*
X389620Y97730D02*
X370380Y97730D01*
X370380Y100770D01*
X389620Y100770D01*
X389620Y98452D02*
X370380Y98452D01*
X370380Y99174D02*
X389620Y99174D01*
X389620Y99896D02*
X370380Y99896D01*
X370380Y100618D02*
X389620Y100618D01*
X389620Y104230D02*
X389620Y107270D01*
X389620Y104230D02*
X370380Y104230D01*
X370380Y107270D01*
X389620Y107270D01*
X389620Y104952D02*
X370380Y104952D01*
X370380Y105674D02*
X389620Y105674D01*
X389620Y106396D02*
X370380Y106396D01*
X370380Y107118D02*
X389620Y107118D01*
X300380Y107270D02*
X300380Y104230D01*
X300380Y107270D02*
X319620Y107270D01*
X319620Y104230D01*
X300380Y104230D01*
X300380Y104952D02*
X319620Y104952D01*
X319620Y105674D02*
X300380Y105674D01*
X300380Y106396D02*
X319620Y106396D01*
X319620Y107118D02*
X300380Y107118D01*
X300380Y100770D02*
X300380Y97730D01*
X300380Y100770D02*
X319620Y100770D01*
X319620Y97730D01*
X300380Y97730D01*
X300380Y98452D02*
X319620Y98452D01*
X319620Y99174D02*
X300380Y99174D01*
X300380Y99896D02*
X319620Y99896D01*
X319620Y100618D02*
X300380Y100618D01*
X300380Y94270D02*
X300380Y91230D01*
X300380Y94270D02*
X319620Y94270D01*
X319620Y91230D01*
X300380Y91230D01*
X300380Y91952D02*
X319620Y91952D01*
X319620Y92674D02*
X300380Y92674D01*
X300380Y93396D02*
X319620Y93396D01*
X319620Y94118D02*
X300380Y94118D01*
X300380Y87770D02*
X300380Y84730D01*
X300380Y87770D02*
X319620Y87770D01*
X319620Y84730D01*
X300380Y84730D01*
X300380Y85452D02*
X319620Y85452D01*
X319620Y86174D02*
X300380Y86174D01*
X300380Y86896D02*
X319620Y86896D01*
X319620Y87618D02*
X300380Y87618D01*
X300380Y81270D02*
X300380Y78230D01*
X300380Y81270D02*
X319620Y81270D01*
X319620Y78230D01*
X300380Y78230D01*
X300380Y78952D02*
X319620Y78952D01*
X319620Y79674D02*
X300380Y79674D01*
X300380Y80396D02*
X319620Y80396D01*
X319620Y81118D02*
X300380Y81118D01*
X300380Y74770D02*
X300380Y71730D01*
X300380Y74770D02*
X319620Y74770D01*
X319620Y71730D01*
X300380Y71730D01*
X300380Y72452D02*
X319620Y72452D01*
X319620Y73174D02*
X300380Y73174D01*
X300380Y73896D02*
X319620Y73896D01*
X319620Y74618D02*
X300380Y74618D01*
X300380Y68270D02*
X300380Y65230D01*
X300380Y68270D02*
X319620Y68270D01*
X319620Y65230D01*
X300380Y65230D01*
X300380Y65952D02*
X319620Y65952D01*
X319620Y66674D02*
X300380Y66674D01*
X300380Y67396D02*
X319620Y67396D01*
X319620Y68118D02*
X300380Y68118D01*
X300380Y61770D02*
X300380Y58730D01*
X300380Y61770D02*
X319620Y61770D01*
X319620Y58730D01*
X300380Y58730D01*
X300380Y59452D02*
X319620Y59452D01*
X319620Y60174D02*
X300380Y60174D01*
X300380Y60896D02*
X319620Y60896D01*
X319620Y61618D02*
X300380Y61618D01*
X300380Y55270D02*
X300380Y52230D01*
X300380Y55270D02*
X319620Y55270D01*
X319620Y52230D01*
X300380Y52230D01*
X300380Y52952D02*
X319620Y52952D01*
X319620Y53674D02*
X300380Y53674D01*
X300380Y54396D02*
X319620Y54396D01*
X319620Y55118D02*
X300380Y55118D01*
X300380Y48770D02*
X300380Y45730D01*
X300380Y48770D02*
X319620Y48770D01*
X319620Y45730D01*
X300380Y45730D01*
X300380Y46452D02*
X319620Y46452D01*
X319620Y47174D02*
X300380Y47174D01*
X300380Y47896D02*
X319620Y47896D01*
X319620Y48618D02*
X300380Y48618D01*
X300380Y42270D02*
X300380Y39230D01*
X300380Y42270D02*
X319620Y42270D01*
X319620Y39230D01*
X300380Y39230D01*
X300380Y39952D02*
X319620Y39952D01*
X319620Y40674D02*
X300380Y40674D01*
X300380Y41396D02*
X319620Y41396D01*
X319620Y42118D02*
X300380Y42118D01*
X300380Y35770D02*
X300380Y32730D01*
X300380Y35770D02*
X319620Y35770D01*
X319620Y32730D01*
X300380Y32730D01*
X300380Y33452D02*
X319620Y33452D01*
X319620Y34174D02*
X300380Y34174D01*
X300380Y34896D02*
X319620Y34896D01*
X319620Y35618D02*
X300380Y35618D01*
X300380Y29270D02*
X300380Y26230D01*
X300380Y29270D02*
X319620Y29270D01*
X319620Y26230D01*
X300380Y26230D01*
X300380Y26952D02*
X319620Y26952D01*
X319620Y27674D02*
X300380Y27674D01*
X300380Y28396D02*
X319620Y28396D01*
X319620Y29118D02*
X300380Y29118D01*
X300380Y22770D02*
X300380Y19730D01*
X300380Y22770D02*
X319620Y22770D01*
X319620Y19730D01*
X300380Y19730D01*
X300380Y20452D02*
X319620Y20452D01*
X319620Y21174D02*
X300380Y21174D01*
X300380Y21896D02*
X319620Y21896D01*
X319620Y22618D02*
X300380Y22618D01*
D15*
X257500Y90000D03*
X282500Y90000D03*
D12*
X283500Y65000D03*
X266500Y65000D03*
D16*
X299200Y163285D03*
X324600Y163285D03*
X350000Y163285D03*
X375400Y163285D03*
X400800Y163285D03*
D17*
X81000Y102700D02*
X59000Y102700D01*
X59000Y128100D02*
X81000Y128100D01*
X81000Y77300D02*
X59000Y77300D01*
X59000Y51900D02*
X81000Y51900D01*
D18*
X365000Y92540D03*
X457200Y90000D03*
X727200Y90000D03*
X997200Y90000D03*
X1267200Y90000D03*
X1537200Y90000D03*
X1807200Y90000D03*
X2077200Y90000D03*
D19*
X170875Y107575D02*
X149125Y107575D01*
X170875Y107575D02*
X170875Y104325D01*
X149125Y104325D01*
X149125Y107575D01*
X149125Y107412D02*
X170875Y107412D01*
X170875Y120275D02*
X149125Y120275D01*
X170875Y120275D02*
X170875Y117025D01*
X149125Y117025D01*
X149125Y120275D01*
X149125Y120112D02*
X170875Y120112D01*
X170875Y132975D02*
X149125Y132975D01*
X170875Y132975D02*
X170875Y129725D01*
X149125Y129725D01*
X149125Y132975D01*
X149125Y132812D02*
X170875Y132812D01*
X170875Y145675D02*
X149125Y145675D01*
X170875Y145675D02*
X170875Y142425D01*
X149125Y142425D01*
X149125Y145675D01*
X149125Y145512D02*
X170875Y145512D01*
X120875Y145675D02*
X99125Y145675D01*
X120875Y145675D02*
X120875Y142425D01*
X99125Y142425D01*
X99125Y145675D01*
X99125Y145512D02*
X120875Y145512D01*
X120875Y132975D02*
X99125Y132975D01*
X120875Y132975D02*
X120875Y129725D01*
X99125Y129725D01*
X99125Y132975D01*
X99125Y132812D02*
X120875Y132812D01*
X120875Y120275D02*
X99125Y120275D01*
X120875Y120275D02*
X120875Y117025D01*
X99125Y117025D01*
X99125Y120275D01*
X99125Y120112D02*
X120875Y120112D01*
X120875Y107575D02*
X99125Y107575D01*
X120875Y107575D02*
X120875Y104325D01*
X99125Y104325D01*
X99125Y107575D01*
X99125Y107412D02*
X120875Y107412D01*
D18*
X2347200Y90000D03*
X2617200Y90000D03*
X2887200Y90000D03*
X3350000Y90000D03*
D20*
X126230Y14920D02*
X108770Y14920D01*
X108770Y25080D01*
X126230Y25080D01*
X126230Y14920D01*
X126230Y17333D02*
X108770Y17333D01*
X108770Y19746D02*
X126230Y19746D01*
X126230Y22159D02*
X108770Y22159D01*
X108770Y24572D02*
X126230Y24572D01*
X143770Y14920D02*
X161230Y14920D01*
X143770Y14920D02*
X143770Y25080D01*
X161230Y25080D01*
X161230Y14920D01*
X161230Y17333D02*
X143770Y17333D01*
X143770Y19746D02*
X161230Y19746D01*
X161230Y22159D02*
X143770Y22159D01*
X143770Y24572D02*
X161230Y24572D01*
X156230Y170080D02*
X139770Y170080D01*
X156230Y170080D02*
X156230Y159920D01*
X139770Y159920D01*
X139770Y170080D01*
X139770Y162333D02*
X156230Y162333D01*
X156230Y164746D02*
X139770Y164746D01*
X139770Y167159D02*
X156230Y167159D01*
X156230Y169572D02*
X139770Y169572D01*
D21*
X134000Y170350D02*
X126000Y170350D01*
X134000Y170350D02*
X134000Y159650D01*
X126000Y159650D01*
X126000Y170350D01*
X126000Y161550D02*
X134000Y161550D01*
X134000Y163450D02*
X126000Y163450D01*
X126000Y165350D02*
X134000Y165350D01*
X134000Y167250D02*
X126000Y167250D01*
X126000Y169150D02*
X134000Y169150D01*
D20*
X120230Y170080D02*
X103770Y170080D01*
X120230Y170080D02*
X120230Y159920D01*
X103770Y159920D01*
X103770Y170080D01*
X103770Y162333D02*
X120230Y162333D01*
X120230Y164746D02*
X103770Y164746D01*
X103770Y167159D02*
X120230Y167159D01*
X120230Y169572D02*
X103770Y169572D01*
X139770Y92080D02*
X156230Y92080D01*
X156230Y81920D01*
X139770Y81920D01*
X139770Y92080D01*
X139770Y84333D02*
X156230Y84333D01*
X156230Y86746D02*
X139770Y86746D01*
X139770Y89159D02*
X156230Y89159D01*
X156230Y91572D02*
X139770Y91572D01*
D21*
X134000Y92350D02*
X126000Y92350D01*
X134000Y92350D02*
X134000Y81650D01*
X126000Y81650D01*
X126000Y92350D01*
X126000Y83550D02*
X134000Y83550D01*
X134000Y85450D02*
X126000Y85450D01*
X126000Y87350D02*
X134000Y87350D01*
X134000Y89250D02*
X126000Y89250D01*
X126000Y91150D02*
X134000Y91150D01*
D20*
X120230Y92080D02*
X103770Y92080D01*
X120230Y92080D02*
X120230Y81920D01*
X103770Y81920D01*
X103770Y92080D01*
X103770Y84333D02*
X120230Y84333D01*
X120230Y86746D02*
X103770Y86746D01*
X103770Y89159D02*
X120230Y89159D01*
X120230Y91572D02*
X103770Y91572D01*
D22*
X147320Y68750D02*
X163320Y68750D01*
X163320Y41250D01*
X147320Y41250D01*
X147320Y68750D01*
X147320Y45050D02*
X163320Y45050D01*
X163320Y48850D02*
X147320Y48850D01*
X147320Y52650D02*
X163320Y52650D01*
X163320Y56450D02*
X147320Y56450D01*
X147320Y60250D02*
X163320Y60250D01*
X163320Y64050D02*
X147320Y64050D01*
X147320Y67850D02*
X163320Y67850D01*
X122680Y68750D02*
X106680Y68750D01*
X122680Y68750D02*
X122680Y41250D01*
X106680Y41250D01*
X106680Y68750D01*
X106680Y45050D02*
X122680Y45050D01*
X122680Y48850D02*
X106680Y48850D01*
X106680Y52650D02*
X122680Y52650D01*
X122680Y56450D02*
X106680Y56450D01*
X106680Y60250D02*
X122680Y60250D01*
X122680Y64050D02*
X106680Y64050D01*
X106680Y67850D02*
X122680Y67850D01*
X179000Y67000D02*
X195000Y67000D01*
X179000Y67000D02*
X179000Y88000D01*
X195000Y88000D01*
X195000Y67000D01*
X195000Y70800D02*
X179000Y70800D01*
X179000Y74600D02*
X195000Y74600D01*
X195000Y78400D02*
X179000Y78400D01*
X179000Y82200D02*
X195000Y82200D01*
X195000Y86000D02*
X179000Y86000D01*
D23*
X186000Y116000D02*
X234000Y116000D01*
X186000Y116000D02*
X186000Y164000D01*
X234000Y164000D01*
X234000Y116000D01*
X234000Y127400D02*
X186000Y127400D01*
X186000Y138800D02*
X234000Y138800D01*
X234000Y150200D02*
X186000Y150200D01*
X186000Y161600D02*
X234000Y161600D01*
D22*
X241000Y67000D02*
X225000Y67000D01*
X225000Y88000D01*
X241000Y88000D01*
X241000Y67000D01*
X241000Y70800D02*
X225000Y70800D01*
X225000Y74600D02*
X241000Y74600D01*
X241000Y78400D02*
X225000Y78400D01*
X225000Y82200D02*
X241000Y82200D01*
X241000Y86000D02*
X225000Y86000D01*
M02*
