  0
SECTION
  2
HEADER
  9
$ACADVER
  1
AC1014
  9
$ACADMAINTVER
 70
     9
  9
$DWGCODEPAGE
  3
UNDEFINED
  9
$INSBASE
 10
0.0
 20
0.0
 30
0.0
  9
$EXTMIN
 10
1.000000000000000E+20
 20
1.000000000000000E+20
 30
1.000000000000000E+20
  9
$EXTMAX
 10
-1.000000000000000E+20
 20
-1.000000000000000E+20
 30
-1.000000000000000E+20
  9
$LIMMIN
 10
0.0
 20
0.0
  9
$LIMMAX
 10
12.0
 20
9.0
  9
$ORTHOMODE
 70
     0
  9
$REGENMODE
 70
     1
  9
$FILLMODE
 70
     1
  9
$QTEXTMODE
 70
     0
  9
$MIRRTEXT
 70
     1
  9
$DRAGMODE
 70
     2
  9
$LTSCALE
 40
1.0
  9
$OSMODE
 70
    37
  9
$ATTMODE
 70
     1
  9
$TEXTSIZE
 40
0.2
  9
$TRACEWID
 40
0.05
  9
$TEXTSTYLE
  7
STANDARD
  9
$CLAYER
  8
0
  9
$CELTYPE
  6
BYLAYER
  9
$CECOLOR
 62
   256
  9
$CELTSCALE
 40
1.0
  9
$DELOBJ
 70
     1
  9
$DISPSILH
 70
     0
  9
$DIMSCALE
 40
1.0
  9
$DIMASZ
 40
0.18
  9
$DIMEXO
 40
0.0625
  9
$DIMDLI
 40
0.38
  9
$DIMRND
 40
0.0
  9
$DIMDLE
 40
0.0
  9
$DIMEXE
 40
0.18
  9
$DIMTP
 40
0.0
  9
$DIMTM
 40
0.0
  9
$DIMTXT
 40
0.18
  9
$DIMCEN
 40
0.09
  9
$DIMTSZ
 40
0.0
  9
$DIMTOL
 70
     0
  9
$DIMLIM
 70
     0
  9
$DIMTIH
 70
     1
  9
$DIMTOH
 70
     1
  9
$DIMSE1
 70
     0
  9
$DIMSE2
 70
     0
  9
$DIMTAD
 70
     0
  9
$DIMZIN
 70
     0
  9
$DIMBLK
  1

  9
$DIMASO
 70
     1
  9
$DIMSHO
 70
     1
  9
$DIMPOST
  1

  9
$DIMAPOST
  1

  9
$DIMALT
 70
     0
  9
$DIMALTD
 70
     2
  9
$DIMALTF
 40
25.4
  9
$DIMLFAC
 40
1.0
  9
$DIMTOFL
 70
     0
  9
$DIMTVP
 40
0.0
  9
$DIMTIX
 70
     0
  9
$DIMSOXD
 70
     0
  9
$DIMSAH
 70
     0
  9
$DIMBLK1
  1

  9
$DIMBLK2
  1

  9
$DIMSTYLE
  2
STANDARD
  9
$DIMCLRD
 70
     0
  9
$DIMCLRE
 70
     0
  9
$DIMCLRT
 70
     0
  9
$DIMTFAC
 40
1.0
  9
$DIMGAP
 40
0.09
  9
$DIMJUST
 70
     0
  9
$DIMSD1
 70
     0
  9
$DIMSD2
 70
     0
  9
$DIMTOLJ
 70
     1
  9
$DIMTZIN
 70
     0
  9
$DIMALTZ
 70
     0
  9
$DIMALTTZ
 70
     0
  9
$DIMFIT
 70
     3
  9
$DIMUPT
 70
     0
  9
$DIMUNIT
 70
     2
  9
$DIMDEC
 70
     4
  9
$DIMTDEC
 70
     4
  9
$DIMALTU
 70
     2
  9
$DIMALTTD
 70
     2
  9
$DIMTXSTY
  7
STANDARD
  9
$DIMAUNIT
 70
     0
  9
$LUNITS
 70
     2
  9
$LUPREC
 70
     4
  9
$SKETCHINC
 40
0.1
  9
$FILLETRAD
 40
0.5
  9
$AUNITS
 70
     0
  9
$AUPREC
 70
     0
  9
$MENU
  1
.
  9
$ELEVATION
 40
0.0
  9
$PELEVATION
 40
0.0
  9
$THICKNESS
 40
0.0
  9
$LIMCHECK
 70
     0
  9
$CHAMFERA
 40
0.5
  9
$CHAMFERB
 40
0.5
  9
$CHAMFERC
 40
1.0
  9
$CHAMFERD
 40
0.0
  9
$SKPOLY
 70
     0
  9
$TDCREATE
 40
2458986.661226852
  9
$TDUPDATE
 40
2458986.661226852
  9
$TDINDWG
 40
0.0000000116
  9
$TDUSRTIMER
 40
0.0000000116
  9
$USRTIMER
 70
     1
  9
$ANGBASE
 50
0.0
  9
$ANGDIR
 70
     0
  9
$PDMODE
 70
     0
  9
$PDSIZE
 40
0.0
  9
$PLINEWID
 40
0.0
  9
$COORDS
 70
     1
  9
$SPLFRAME
 70
     0
  9
$SPLINETYPE
 70
     6
  9
$SPLINESEGS
 70
     8
  9
$ATTDIA
 70
     0
  9
$ATTREQ
 70
     1
  9
$HANDLING
 70
     1
  9
$HANDSEED
  5
F0
  9
$SURFTAB1
 70
     6
  9
$SURFTAB2
 70
     6
  9
$SURFTYPE
 70
     6
  9
$SURFU
 70
     6
  9
$SURFV
 70
     6
  9
$UCSNAME
  2

  9
$UCSORG
 10
0.0
 20
0.0
 30
0.0
  9
$UCSXDIR
 10
1.0
 20
0.0
 30
0.0
  9
$UCSYDIR
 10
0.0
 20
1.0
 30
0.0
  9
$PUCSNAME
  2

  9
$PUCSORG
 10
0.0
 20
0.0
 30
0.0
  9
$PUCSXDIR
 10
1.0
 20
0.0
 30
0.0
  9
$PUCSYDIR
 10
0.0
 20
1.0
 30
0.0
  9
$USERI1
 70
     0
  9
$USERI2
 70
     0
  9
$USERI3
 70
     0
  9
$USERI4
 70
     0
  9
$USERI5
 70
     0
  9
$USERR1
 40
0.0
  9
$USERR2
 40
0.0
  9
$USERR3
 40
0.0
  9
$USERR4
 40
0.0
  9
$USERR5
 40
0.0
  9
$WORLDVIEW
 70
     1
  9
$SHADEDGE
 70
     3
  9
$SHADEDIF
 70
    70
  9
$TILEMODE
 70
     1
  9
$MAXACTVP
 70
    64
  9
$PINSBASE
 10
0.0
 20
0.0
 30
0.0
  9
$PLIMCHECK
 70
     0
  9
$PEXTMIN
 10
1.000000000000000E+20
 20
1.000000000000000E+20
 30
1.000000000000000E+20
  9
$PEXTMAX
 10
-1.000000000000000E+20
 20
-1.000000000000000E+20
 30
-1.000000000000000E+20
  9
$PLIMMIN
 10
0.0
 20
0.0
  9
$PLIMMAX
 10
12.0
 20
9.0
  9
$UNITMODE
 70
     0
  9
$VISRETAIN
 70
     1
  9
$PLINEGEN
 70
     0
  9
$PSLTSCALE
 70
     1
  9
$TREEDEPTH
 70
  3020
  9
$PICKSTYLE
 70
     1
  9
$CMLSTYLE
  2
STANDARD
  9
$CMLJUST
 70
     0
  9
$CMLSCALE
 40
1.0
  9
$PROXYGRAPHICS
 70
     1
  9
$MEASUREMENT
 70
     0
  0
ENDSEC
  0
SECTION
  2
CLASSES
  0
CLASS
  1
ACDBDICTIONARYWDFLT
  2
AcDbDictionaryWithDefault
  3
ObjectDBX Classes
 90
        0
280
     0
281
     0
  0
CLASS
  1
VISUALSTYLE
  2
AcDbVisualStyle
  3
ObjectDBX Classes
 90
     4095
280
     0
281
     0
  0
CLASS
  1
MATERIAL
  2
AcDbMaterial
  3
ObjectDBX Classes
 90
     1153
280
     0
281
     0
  0
CLASS
  1
SUN
  2
AcDbSun
  3
SCENEOE
 90
     1024
280
     0
281
     0
  0
CLASS
  1
DICTIONARYVAR
  2
AcDbDictionaryVar
  3
ObjectDBX Classes
 90
        0
280
     0
281
     0
  0
CLASS
  1
XRECORD
  2
AcDbXrecord
  3
AutoCAD 2000
 90
        0
280
     0
281
     0
  0
CLASS
  1
LWPOLYLINE
  2
AcDbPolyline
  3
AutoCAD 2000
 90
        0
280
     0
281
     1
  0
CLASS
  1
HATCH
  2
AcDbHatch
  3
AutoCAD 2000
 90
        0
280
     0
281
     1
  0
CLASS
  1
ACDBPLACEHOLDER
  2
AcDbPlaceHolder
  3
ObjectDBX Classes
 90
        0
280
     0
281
     0
  0
CLASS
  1
LAYOUT
  2
AcDbLayout
  3
ObjectDBX Classes
 90
        0
280
     0
281
     0
  0
ENDSEC
  0
SECTION
  2
TABLES
  0
TABLE
  2
VPORT
  5
8
330
0
100
AcDbSymbolTable
 70
     1
  0
VPORT
  5
29
330
8
100
AcDbSymbolTableRecord
100
AcDbViewportTableRecord
  2
*ACTIVE
 70
     0
 10
0.0
 20
0.0
 11
1.0
 21
1.0
 12
0.0
 22
0.0
 13
0.0
 23
0.0
 14
0.5
 24
0.5
 15
0.5
 25
0.5
 16
0.0
 26
0.0
 36
1.0
 17
104.9999999737534
 27
-148.4999999628701
 37
0.0
 40
296.9999999257402
 41
0.7070707070707533
 42
50.0
 43
0.0
 44
0.0
 50
0.0
 51
0.0
 71
     0
 72
   100
 73
     1
 74
     3
 75
     0
 76
     0
 77
     0
 78
     0
  0
ENDTAB
  0
TABLE
  2
LTYPE
  5
5
330
0
100
AcDbSymbolTable
 70
     1
  0
LTYPE
  5
14
330
5
100
AcDbSymbolTableRecord
100
AcDbLinetypeTableRecord
  2
BYBLOCK
 70
     0
  3

 72
    65
 73
     0
 40
0.0
  0
LTYPE
  5
15
330
5
100
AcDbSymbolTableRecord
100
AcDbLinetypeTableRecord
  2
BYLAYER
 70
     0
  3

 72
    65
 73
     0
 40
0.0
  0
LTYPE
  5
16
330
5
100
AcDbSymbolTableRecord
100
AcDbLinetypeTableRecord
  2
CONTINUOUS
 70
     0
  3
Solid line
 72
    65
 73
     0
 40
0.0
  0
ENDTAB
  0
TABLE
  2
LAYER
  5
2
330
0
100
AcDbSymbolTable
 70
     2
  0
LAYER
  5
10
330
2
100
AcDbSymbolTableRecord
100
AcDbLayerTableRecord
  2
0
 70
     0
 62
     7
  6
CONTINUOUS
  0
LAYER
  5
40
330
2
100
AcDbSymbolTableRecord
100
AcDbLayerTableRecord
  2
_U_30EC_U_30A4_U_30E4_U_30
 70
     0
 62
     7
  6
CONTINUOUS
  0
ENDTAB
  0
TABLE
  2
STYLE
  5
3
330
0
100
AcDbSymbolTable
 70
     1
  0
STYLE
  5
11
330
3
100
AcDbSymbolTableRecord
100
AcDbTextStyleTableRecord
  2
STANDARD
 70
     0
 40
0.0
 41
1.0
 50
0.0
 71
     0
 42
0.2
  3
txt
  4

  0
ENDTAB
  0
TABLE
  2
VIEW
  5
6
330
0
100
AcDbSymbolTable
 70
     0
  0
ENDTAB
  0
TABLE
  2
UCS
  5
7
330
0
100
AcDbSymbolTable
 70
     0
  0
ENDTAB
  0
TABLE
  2
APPID
  5
9
330
0
100
AcDbSymbolTable
 70
     1
  0
APPID
  5
12
330
9
100
AcDbSymbolTableRecord
100
AcDbRegAppTableRecord
  2
ACAD
 70
     0
  0
ENDTAB
  0
TABLE
  2
DIMSTYLE
  5
A
330
0
100
AcDbSymbolTable
 70
     1
  0
DIMSTYLE
105
27
330
A
100
AcDbSymbolTableRecord
100
AcDbDimStyleTableRecord
  2
STANDARD
 70
     0
  3

  4

  5

  6

  7

 40
1.0
 41
0.18
 42
0.0625
 43
0.38
 44
0.18
 45
0.0
 46
0.0
 47
0.0
 48
0.0
140
0.18
141
0.09
142
0.0
143
25.4
144
1.0
145
0.0
146
1.0
147
0.09
 71
     0
 72
     0
 73
     1
 74
     1
 75
     0
 76
     0
 77
     0
 78
     0
170
     0
171
     2
172
     0
173
     0
174
     0
175
     0
176
     0
177
     0
178
     0
270
     2
271
     4
272
     4
273
     2
274
     2
340
11
275
     0
280
     0
281
     0
282
     0
283
     1
284
     0
285
     0
286
     0
287
     3
288
     0
  0
ENDTAB
  0
TABLE
  2
BLOCK_RECORD
  5
1
330
0
100
AcDbSymbolTable
 70
     1
  0
BLOCK_RECORD
  5
1F
330
1
100
AcDbSymbolTableRecord
100
AcDbBlockTableRecord
  2
*MODEL_SPACE
  0
BLOCK_RECORD
  5
1B
330
1
100
AcDbSymbolTableRecord
100
AcDbBlockTableRecord
  2
*PAPER_SPACE
  0
ENDTAB
  0
ENDSEC
  0
SECTION
  2
BLOCKS
  0
BLOCK
  5
20
330
1F
100
AcDbEntity
  8
0
100
AcDbBlockBegin
  2
*MODEL_SPACE
 70
     0
 10
0.0
 20
0.0
 30
0.0
  3
*MODEL_SPACE
  1

  0
ENDBLK
  5
21
330
1F
100
AcDbEntity
  8
0
100
AcDbBlockEnd
  0
BLOCK
  5
1C
330
1B
100
AcDbEntity
 67
     1
  8
0
100
AcDbBlockBegin
  2
*PAPER_SPACE
 70
     0
 10
0.0
 20
0.0
 30
0.0
  3
*PAPER_SPACE
  1

  0
ENDBLK
  5
1D
330
1B
100
AcDbEntity
 67
     1
  8
0
100
AcDbBlockEnd
  0
ENDSEC
  0
SECTION
  2
ENTITIES
  0
POLYLINE
  5
41
330
1F
100
AcDbEntity
  8
_U_30EC_U_30A4_U_30E4_U_30
 62
    29
100
AcDb2dPolyline
 66
     1
 10
0.0
 20
0.0
 30
0.0
  0
VERTEX
  5
42
330
41
100
AcDbEntity
  8
_U_30EC_U_30A4_U_30E4_U_30
 62
    29
100
AcDbVertex
100
AcDb2dVertex
 10
348.9999999127502
 20
17.99999999550008
 30
0.0
  0
VERTEX
  5
43
330
41
100
AcDbEntity
  8
_U_30EC_U_30A4_U_30E4_U_30
 62
    29
100
AcDbVertex
100
AcDb2dVertex
 10
327.2499999181874
 20
17.99999999550008
 30
0.0
  0
VERTEX
  5
44
330
41
100
AcDbEntity
  8
_U_30EC_U_30A4_U_30E4_U_30
 62
    29
100
AcDbVertex
100
AcDb2dVertex
 10
305.4999999236252
 20
17.99999999550008
 30
0.0
  0
VERTEX
  5
45
330
41
100
AcDbEntity
  8
_U_30EC_U_30A4_U_30E4_U_30
 62
    29
100
AcDbVertex
100
AcDb2dVertex
 10
283.749999929063
 20
17.99999999550008
 30
0.0
  0
VERTEX
  5
46
330
41
100
AcDbEntity
  8
_U_30EC_U_30A4_U_30E4_U_30
 62
    29
100
AcDbVertex
100
AcDb2dVertex
 10
261.9999999345001
 20
17.99999999550008
 30
0.0
  0
VERTEX
  5
47
330
41
100
AcDbEntity
  8
_U_30EC_U_30A4_U_30E4_U_30
 62
    29
100
AcDbVertex
100
AcDb2dVertex
 10
240.2499999399373
 20
17.99999999550008
 30
0.0
  0
VERTEX
  5
48
330
41
100
AcDbEntity
  8
_U_30EC_U_30A4_U_30E4_U_30
 62
    29
100
AcDbVertex
100
AcDb2dVertex
 10
218.4999999453751
 20
17.99999999550008
 30
0.0
  0
VERTEX
  5
49
330
41
100
AcDbEntity
  8
_U_30EC_U_30A4_U_30E4_U_30
 62
    29
100
AcDbVertex
100
AcDb2dVertex
 10
196.7499999508128
 20
17.99999999550008
 30
0.0
  0
VERTEX
  5
4A
330
41
100
AcDbEntity
  8
_U_30EC_U_30A4_U_30E4_U_30
 62
    29
100
AcDbVertex
100
AcDb2dVertex
 10
174.99999995625
 20
17.99999999550008
 30
0.0
  0
VERTEX
  5
4B
330
41
100
AcDbEntity
  8
_U_30EC_U_30A4_U_30E4_U_30
 62
    29
100
AcDbVertex
100
AcDb2dVertex
 10
153.2499999616872
 20
17.99999999550008
 30
0.0
  0
VERTEX
  5
4C
330
41
100
AcDbEntity
  8
_U_30EC_U_30A4_U_30E4_U_30
 62
    29
100
AcDbVertex
100
AcDb2dVertex
 10
131.4999999671249
 20
17.99999999550008
 30
0.0
  0
VERTEX
  5
4D
330
41
100
AcDbEntity
  8
_U_30EC_U_30A4_U_30E4_U_30
 62
    29
100
AcDbVertex
100
AcDb2dVertex
 10
109.7499999725627
 20
17.99999999550008
 30
0.0
  0
VERTEX
  5
4E
330
41
100
AcDbEntity
  8
_U_30EC_U_30A4_U_30E4_U_30
 62
    29
100
AcDbVertex
100
AcDb2dVertex
 10
87.99999997799989
 20
17.99999999550008
 30
0.0
  0
VERTEX
  5
4F
330
41
100
AcDbEntity
  8
_U_30EC_U_30A4_U_30E4_U_30
 62
    29
100
AcDbVertex
100
AcDb2dVertex
 10
66.24999998343736
 20
17.99999999550008
 30
0.0
  0
VERTEX
  5
50
330
41
100
AcDbEntity
  8
_U_30EC_U_30A4_U_30E4_U_30
 62
    29
100
AcDbVertex
100
AcDb2dVertex
 10
44.49999998887483
 20
17.99999999550008
 30
0.0
  0
VERTEX
  5
51
330
41
100
AcDbEntity
  8
_U_30EC_U_30A4_U_30E4_U_30
 62
    29
100
AcDbVertex
100
AcDb2dVertex
 10
22.74999999431262
 20
17.99999999550008
 30
0.0
  0
VERTEX
  5
52
330
41
100
AcDbEntity
  8
_U_30EC_U_30A4_U_30E4_U_30
 62
    29
100
AcDbVertex
100
AcDb2dVertex
 10
0.9999999997500936
 20
17.99999999550008
 30
0.0
  0
VERTEX
  5
53
330
41
100
AcDbEntity
  8
_U_30EC_U_30A4_U_30E4_U_30
 62
    29
100
AcDbVertex
100
AcDb2dVertex
 10
0.8977558088244214
 20
17.99483710823137
 30
0.0
  0
VERTEX
  5
54
330
41
100
AcDbEntity
  8
_U_30EC_U_30A4_U_30E4_U_30
 62
    29
100
AcDbVertex
100
AcDb2dVertex
 10
0.798465120454575
 20
17.97968354969739
 30
0.0
  0
VERTEX
  5
55
330
41
100
AcDbEntity
  8
_U_30EC_U_30A4_U_30E4_U_30
 62
    29
100
AcDbVertex
100
AcDb2dVertex
 10
0.7026305895479594
 20
17.95504197480586
 30
0.0
  0
VERTEX
  5
56
330
41
100
AcDbEntity
  8
_U_30EC_U_30A4_U_30E4_U_30
 62
    29
100
AcDbVertex
100
AcDb2dVertex
 10
0.6107548710126217
 20
17.92141503846483
 30
0.0
  0
VERTEX
  5
57
330
41
100
AcDbEntity
  8
_U_30EC_U_30A4_U_30E4_U_30
 62
    29
100
AcDbVertex
100
AcDb2dVertex
 10
0.5233406197566088
 20
17.87930539558171
 30
0.0
  0
VERTEX
  5
58
330
41
100
AcDbEntity
  8
_U_30EC_U_30A4_U_30E4_U_30
 62
    29
100
AcDbVertex
100
AcDb2dVertex
 10
0.4408904906870051
 20
17.82921570106453
 30
0.0
  0
VERTEX
  5
59
330
41
100
AcDbEntity
  8
_U_30EC_U_30A4_U_30E4_U_30
 62
    29
100
AcDbVertex
100
AcDb2dVertex
 10
0.3639071387121784
 20
17.77164860982136
 30
0.0
  0
VERTEX
  5
5A
330
41
100
AcDbEntity
  8
_U_30EC_U_30A4_U_30E4_U_30
 62
    29
100
AcDbVertex
100
AcDb2dVertex
 10
0.2928932187401755
 20
17.7071067767599
 30
0.0
  0
VERTEX
  5
5B
330
41
100
AcDbEntity
  8
_U_30EC_U_30A4_U_30E4_U_30
 62
    29
100
AcDbVertex
100
AcDb2dVertex
 10
0.2283513856787225
 20
17.6360928567879
 30
0.0
  0
VERTEX
  5
5C
330
41
100
AcDbEntity
  8
_U_30EC_U_30A4_U_30E4_U_30
 62
    29
100
AcDbVertex
100
AcDb2dVertex
 10
0.1707842944355456
 20
17.55910950481307
 30
0.0
  0
VERTEX
  5
5D
330
41
100
AcDbEntity
  8
_U_30EC_U_30A4_U_30E4_U_30
 62
    29
100
AcDbVertex
100
AcDb2dVertex
 10
0.1206945999183708
 20
17.47665937574379
 30
0.0
  0
VERTEX
  5
5E
330
41
100
AcDbEntity
  8
_U_30EC_U_30A4_U_30E4_U_30
 62
    29
100
AcDbVertex
100
AcDb2dVertex
 10
0.0785849570355659
 20
17.38924512448746
 30
0.0
  0
VERTEX
  5
5F
330
41
100
AcDbEntity
  8
_U_30EC_U_30A4_U_30E4_U_30
 62
    29
100
AcDbVertex
100
AcDb2dVertex
 10
0.0449580206942152
 20
17.29736940595212
 30
0.0
  0
VERTEX
  5
60
330
41
100
AcDbEntity
  8
_U_30EC_U_30A4_U_30E4_U_30
 62
    29
100
AcDbVertex
100
AcDb2dVertex
 10
0.0203164458026867
 20
17.2015348750455
 30
0.0
  0
VERTEX
  5
61
330
41
100
AcDbEntity
  8
_U_30EC_U_30A4_U_30E4_U_30
 62
    29
100
AcDbVertex
100
AcDb2dVertex
 10
0.0051628872687062
 20
17.10224418667566
 30
0.0
  0
VERTEX
  5
62
330
41
100
AcDbEntity
  8
_U_30EC_U_30A4_U_30E4_U_30
 62
    29
100
AcDbVertex
100
AcDb2dVertex
 10
0.0
 20
16.99999999574998
 30
0.0
  0
VERTEX
  5
63
330
41
100
AcDbEntity
  8
_U_30EC_U_30A4_U_30E4_U_30
 62
    29
100
AcDbVertex
100
AcDb2dVertex
 10
0.0
 20
15.99999999599989
 30
0.0
  0
VERTEX
  5
64
330
41
100
AcDbEntity
  8
_U_30EC_U_30A4_U_30E4_U_30
 62
    29
100
AcDbVertex
100
AcDb2dVertex
 10
0.0
 20
14.9999999962498
 30
0.0
  0
VERTEX
  5
65
330
41
100
AcDbEntity
  8
_U_30EC_U_30A4_U_30E4_U_30
 62
    29
100
AcDbVertex
100
AcDb2dVertex
 10
0.0
 20
13.99999999650003
 30
0.0
  0
VERTEX
  5
66
330
41
100
AcDbEntity
  8
_U_30EC_U_30A4_U_30E4_U_30
 62
    29
100
AcDbVertex
100
AcDb2dVertex
 10
0.0
 20
12.99999999674993
 30
0.0
  0
VERTEX
  5
67
330
41
100
AcDbEntity
  8
_U_30EC_U_30A4_U_30E4_U_30
 62
    29
100
AcDbVertex
100
AcDb2dVertex
 10
0.0
 20
11.99999999699984
 30
0.0
  0
VERTEX
  5
68
330
41
100
AcDbEntity
  8
_U_30EC_U_30A4_U_30E4_U_30
 62
    29
100
AcDbVertex
100
AcDb2dVertex
 10
0.0
 20
10.99999999725007
 30
0.0
  0
VERTEX
  5
69
330
41
100
AcDbEntity
  8
_U_30EC_U_30A4_U_30E4_U_30
 62
    29
100
AcDbVertex
100
AcDb2dVertex
 10
0.0
 20
9.999999997499973
 30
0.0
  0
VERTEX
  5
6A
330
41
100
AcDbEntity
  8
_U_30EC_U_30A4_U_30E4_U_30
 62
    29
100
AcDbVertex
100
AcDb2dVertex
 10
0.0
 20
8.99999999774988
 30
0.0
  0
VERTEX
  5
6B
330
41
100
AcDbEntity
  8
_U_30EC_U_30A4_U_30E4_U_30
 62
    29
100
AcDbVertex
100
AcDb2dVertex
 10
0.0
 20
7.999999998000106
 30
0.0
  0
VERTEX
  5
6C
330
41
100
AcDbEntity
  8
_U_30EC_U_30A4_U_30E4_U_30
 62
    29
100
AcDbVertex
100
AcDb2dVertex
 10
0.0
 20
6.999999998250013
 30
0.0
  0
VERTEX
  5
6D
330
41
100
AcDbEntity
  8
_U_30EC_U_30A4_U_30E4_U_30
 62
    29
100
AcDbVertex
100
AcDb2dVertex
 10
0.0
 20
5.999999998499919
 30
0.0
  0
VERTEX
  5
6E
330
41
100
AcDbEntity
  8
_U_30EC_U_30A4_U_30E4_U_30
 62
    29
100
AcDbVertex
100
AcDb2dVertex
 10
0.0
 20
4.999999998750146
 30
0.0
  0
VERTEX
  5
6F
330
41
100
AcDbEntity
  8
_U_30EC_U_30A4_U_30E4_U_30
 62
    29
100
AcDbVertex
100
AcDb2dVertex
 10
0.0
 20
3.999999999000053
 30
0.0
  0
VERTEX
  5
70
330
41
100
AcDbEntity
  8
_U_30EC_U_30A4_U_30E4_U_30
 62
    29
100
AcDbVertex
100
AcDb2dVertex
 10
0.0
 20
2.99999999924996
 30
0.0
  0
VERTEX
  5
71
330
41
100
AcDbEntity
  8
_U_30EC_U_30A4_U_30E4_U_30
 62
    29
100
AcDbVertex
100
AcDb2dVertex
 10
0.0
 20
1.999999999500187
 30
0.0
  0
VERTEX
  5
72
330
41
100
AcDbEntity
  8
_U_30EC_U_30A4_U_30E4_U_30
 62
    29
100
AcDbVertex
100
AcDb2dVertex
 10
0.0
 20
0.9999999997500936
 30
0.0
  0
VERTEX
  5
73
330
41
100
AcDbEntity
  8
_U_30EC_U_30A4_U_30E4_U_30
 62
    29
100
AcDbVertex
100
AcDb2dVertex
 10
0.0051628872687062
 20
0.8977558088244214
 30
0.0
  0
VERTEX
  5
74
330
41
100
AcDbEntity
  8
_U_30EC_U_30A4_U_30E4_U_30
 62
    29
100
AcDbVertex
100
AcDb2dVertex
 10
0.0203164458026867
 20
0.798465120454575
 30
0.0
  0
VERTEX
  5
75
330
41
100
AcDbEntity
  8
_U_30EC_U_30A4_U_30E4_U_30
 62
    29
100
AcDbVertex
100
AcDb2dVertex
 10
0.0449580206942152
 20
0.7026305895479594
 30
0.0
  0
VERTEX
  5
76
330
41
100
AcDbEntity
  8
_U_30EC_U_30A4_U_30E4_U_30
 62
    29
100
AcDbVertex
100
AcDb2dVertex
 10
0.0785849570355659
 20
0.6107548710126217
 30
0.0
  0
VERTEX
  5
77
330
41
100
AcDbEntity
  8
_U_30EC_U_30A4_U_30E4_U_30
 62
    29
100
AcDbVertex
100
AcDb2dVertex
 10
0.1206945999183708
 20
0.5233406197566088
 30
0.0
  0
VERTEX
  5
78
330
41
100
AcDbEntity
  8
_U_30EC_U_30A4_U_30E4_U_30
 62
    29
100
AcDbVertex
100
AcDb2dVertex
 10
0.1707842944355456
 20
0.4408904906870051
 30
0.0
  0
VERTEX
  5
79
330
41
100
AcDbEntity
  8
_U_30EC_U_30A4_U_30E4_U_30
 62
    29
100
AcDbVertex
100
AcDb2dVertex
 10
0.2283513856787225
 20
0.3639071387121784
 30
0.0
  0
VERTEX
  5
7A
330
41
100
AcDbEntity
  8
_U_30EC_U_30A4_U_30E4_U_30
 62
    29
100
AcDbVertex
100
AcDb2dVertex
 10
0.2928932187401755
 20
0.2928932187401755
 30
0.0
  0
VERTEX
  5
7B
330
41
100
AcDbEntity
  8
_U_30EC_U_30A4_U_30E4_U_30
 62
    29
100
AcDbVertex
100
AcDb2dVertex
 10
0.3639071387121784
 20
0.2283513856787225
 30
0.0
  0
VERTEX
  5
7C
330
41
100
AcDbEntity
  8
_U_30EC_U_30A4_U_30E4_U_30
 62
    29
100
AcDbVertex
100
AcDb2dVertex
 10
0.4408904906870051
 20
0.1707842944355456
 30
0.0
  0
VERTEX
  5
7D
330
41
100
AcDbEntity
  8
_U_30EC_U_30A4_U_30E4_U_30
 62
    29
100
AcDbVertex
100
AcDb2dVertex
 10
0.5233406197566088
 20
0.1206945999183708
 30
0.0
  0
VERTEX
  5
7E
330
41
100
AcDbEntity
  8
_U_30EC_U_30A4_U_30E4_U_30
 62
    29
100
AcDbVertex
100
AcDb2dVertex
 10
0.6107548710126217
 20
0.0785849570355659
 30
0.0
  0
VERTEX
  5
7F
330
41
100
AcDbEntity
  8
_U_30EC_U_30A4_U_30E4_U_30
 62
    29
100
AcDbVertex
100
AcDb2dVertex
 10
0.7026305895479594
 20
0.0449580206942152
 30
0.0
  0
VERTEX
  5
80
330
41
100
AcDbEntity
  8
_U_30EC_U_30A4_U_30E4_U_30
 62
    29
100
AcDbVertex
100
AcDb2dVertex
 10
0.798465120454575
 20
0.0203164458026867
 30
0.0
  0
VERTEX
  5
81
330
41
100
AcDbEntity
  8
_U_30EC_U_30A4_U_30E4_U_30
 62
    29
100
AcDbVertex
100
AcDb2dVertex
 10
0.8977558088244214
 20
0.0051628872687062
 30
0.0
  0
VERTEX
  5
82
330
41
100
AcDbEntity
  8
_U_30EC_U_30A4_U_30E4_U_30
 62
    29
100
AcDbVertex
100
AcDb2dVertex
 10
0.9999999997500936
 20
0.0
 30
0.0
  0
VERTEX
  5
83
330
41
100
AcDbEntity
  8
_U_30EC_U_30A4_U_30E4_U_30
 62
    29
100
AcDbVertex
100
AcDb2dVertex
 10
22.74999999431262
 20
0.0
 30
0.0
  0
VERTEX
  5
84
330
41
100
AcDbEntity
  8
_U_30EC_U_30A4_U_30E4_U_30
 62
    29
100
AcDbVertex
100
AcDb2dVertex
 10
44.49999998887483
 20
0.0
 30
0.0
  0
VERTEX
  5
85
330
41
100
AcDbEntity
  8
_U_30EC_U_30A4_U_30E4_U_30
 62
    29
100
AcDbVertex
100
AcDb2dVertex
 10
66.24999998343736
 20
0.0
 30
0.0
  0
VERTEX
  5
86
330
41
100
AcDbEntity
  8
_U_30EC_U_30A4_U_30E4_U_30
 62
    29
100
AcDbVertex
100
AcDb2dVertex
 10
87.99999997799989
 20
0.0
 30
0.0
  0
VERTEX
  5
87
330
41
100
AcDbEntity
  8
_U_30EC_U_30A4_U_30E4_U_30
 62
    29
100
AcDbVertex
100
AcDb2dVertex
 10
109.7499999725627
 20
0.0
 30
0.0
  0
VERTEX
  5
88
330
41
100
AcDbEntity
  8
_U_30EC_U_30A4_U_30E4_U_30
 62
    29
100
AcDbVertex
100
AcDb2dVertex
 10
131.4999999671249
 20
0.0
 30
0.0
  0
VERTEX
  5
89
330
41
100
AcDbEntity
  8
_U_30EC_U_30A4_U_30E4_U_30
 62
    29
100
AcDbVertex
100
AcDb2dVertex
 10
153.2499999616872
 20
0.0
 30
0.0
  0
VERTEX
  5
8A
330
41
100
AcDbEntity
  8
_U_30EC_U_30A4_U_30E4_U_30
 62
    29
100
AcDbVertex
100
AcDb2dVertex
 10
174.99999995625
 20
0.0
 30
0.0
  0
VERTEX
  5
8B
330
41
100
AcDbEntity
  8
_U_30EC_U_30A4_U_30E4_U_30
 62
    29
100
AcDbVertex
100
AcDb2dVertex
 10
196.7499999508128
 20
0.0
 30
0.0
  0
VERTEX
  5
8C
330
41
100
AcDbEntity
  8
_U_30EC_U_30A4_U_30E4_U_30
 62
    29
100
AcDbVertex
100
AcDb2dVertex
 10
218.4999999453751
 20
0.0
 30
0.0
  0
VERTEX
  5
8D
330
41
100
AcDbEntity
  8
_U_30EC_U_30A4_U_30E4_U_30
 62
    29
100
AcDbVertex
100
AcDb2dVertex
 10
240.2499999399373
 20
0.0
 30
0.0
  0
VERTEX
  5
8E
330
41
100
AcDbEntity
  8
_U_30EC_U_30A4_U_30E4_U_30
 62
    29
100
AcDbVertex
100
AcDb2dVertex
 10
261.9999999345001
 20
0.0
 30
0.0
  0
VERTEX
  5
8F
330
41
100
AcDbEntity
  8
_U_30EC_U_30A4_U_30E4_U_30
 62
    29
100
AcDbVertex
100
AcDb2dVertex
 10
283.749999929063
 20
0.0
 30
0.0
  0
VERTEX
  5
90
330
41
100
AcDbEntity
  8
_U_30EC_U_30A4_U_30E4_U_30
 62
    29
100
AcDbVertex
100
AcDb2dVertex
 10
305.4999999236252
 20
0.0
 30
0.0
  0
VERTEX
  5
91
330
41
100
AcDbEntity
  8
_U_30EC_U_30A4_U_30E4_U_30
 62
    29
100
AcDbVertex
100
AcDb2dVertex
 10
327.2499999181874
 20
0.0
 30
0.0
  0
VERTEX
  5
92
330
41
100
AcDbEntity
  8
_U_30EC_U_30A4_U_30E4_U_30
 62
    29
100
AcDbVertex
100
AcDb2dVertex
 10
348.9999999127502
 20
0.0
 30
0.0
  0
VERTEX
  5
93
330
41
100
AcDbEntity
  8
_U_30EC_U_30A4_U_30E4_U_30
 62
    29
100
AcDbVertex
100
AcDb2dVertex
 10
349.1022441036756
 20
0.0051628872687062
 30
0.0
  0
VERTEX
  5
94
330
41
100
AcDbEntity
  8
_U_30EC_U_30A4_U_30E4_U_30
 62
    29
100
AcDbVertex
100
AcDb2dVertex
 10
349.2015347920461
 20
0.0203164458026867
 30
0.0
  0
VERTEX
  5
95
330
41
100
AcDbEntity
  8
_U_30EC_U_30A4_U_30E4_U_30
 62
    29
100
AcDbVertex
100
AcDb2dVertex
 10
349.297369322953
 20
0.0449580206942152
 30
0.0
  0
VERTEX
  5
96
330
41
100
AcDbEntity
  8
_U_30EC_U_30A4_U_30E4_U_30
 62
    29
100
AcDbVertex
100
AcDb2dVertex
 10
349.3892450414877
 20
0.0785849570355659
 30
0.0
  0
VERTEX
  5
97
330
41
100
AcDbEntity
  8
_U_30EC_U_30A4_U_30E4_U_30
 62
    29
100
AcDbVertex
100
AcDb2dVertex
 10
349.476659292744
 20
0.1206945999183708
 30
0.0
  0
VERTEX
  5
98
330
41
100
AcDbEntity
  8
_U_30EC_U_30A4_U_30E4_U_30
 62
    29
100
AcDbVertex
100
AcDb2dVertex
 10
349.5591094218133
 20
0.1707842944355456
 30
0.0
  0
VERTEX
  5
99
330
41
100
AcDbEntity
  8
_U_30EC_U_30A4_U_30E4_U_30
 62
    29
100
AcDbVertex
100
AcDb2dVertex
 10
349.6360927737882
 20
0.2283513856787225
 30
0.0
  0
VERTEX
  5
9A
330
41
100
AcDbEntity
  8
_U_30EC_U_30A4_U_30E4_U_30
 62
    29
100
AcDbVertex
100
AcDb2dVertex
 10
349.7071066937598
 20
0.2928932187401755
 30
0.0
  0
VERTEX
  5
9B
330
41
100
AcDbEntity
  8
_U_30EC_U_30A4_U_30E4_U_30
 62
    29
100
AcDbVertex
100
AcDb2dVertex
 10
349.7716485268216
 20
0.3639071387121784
 30
0.0
  0
VERTEX
  5
9C
330
41
100
AcDbEntity
  8
_U_30EC_U_30A4_U_30E4_U_30
 62
    29
100
AcDbVertex
100
AcDb2dVertex
 10
349.8292156180648
 20
0.4408904906870051
 30
0.0
  0
VERTEX
  5
9D
330
41
100
AcDbEntity
  8
_U_30EC_U_30A4_U_30E4_U_30
 62
    29
100
AcDbVertex
100
AcDb2dVertex
 10
349.8793053125819
 20
0.5233406197566088
 30
0.0
  0
VERTEX
  5
9E
330
41
100
AcDbEntity
  8
_U_30EC_U_30A4_U_30E4_U_30
 62
    29
100
AcDbVertex
100
AcDb2dVertex
 10
349.9214149554645
 20
0.6107548710126217
 30
0.0
  0
VERTEX
  5
9F
330
41
100
AcDbEntity
  8
_U_30EC_U_30A4_U_30E4_U_30
 62
    29
100
AcDbVertex
100
AcDb2dVertex
 10
349.9550418918061
 20
0.7026305895479594
 30
0.0
  0
VERTEX
  5
A0
330
41
100
AcDbEntity
  8
_U_30EC_U_30A4_U_30E4_U_30
 62
    29
100
AcDbVertex
100
AcDb2dVertex
 10
349.9796834666976
 20
0.798465120454575
 30
0.0
  0
VERTEX
  5
A1
330
41
100
AcDbEntity
  8
_U_30EC_U_30A4_U_30E4_U_30
 62
    29
100
AcDbVertex
100
AcDb2dVertex
 10
349.994837025231
 20
0.8977558088244214
 30
0.0
  0
VERTEX
  5
A2
330
41
100
AcDbEntity
  8
_U_30EC_U_30A4_U_30E4_U_30
 62
    29
100
AcDbVertex
100
AcDb2dVertex
 10
349.9999999125
 20
0.9999999997500936
 30
0.0
  0
VERTEX
  5
A3
330
41
100
AcDbEntity
  8
_U_30EC_U_30A4_U_30E4_U_30
 62
    29
100
AcDbVertex
100
AcDb2dVertex
 10
349.9999999125
 20
1.999999999500187
 30
0.0
  0
VERTEX
  5
A4
330
41
100
AcDbEntity
  8
_U_30EC_U_30A4_U_30E4_U_30
 62
    29
100
AcDbVertex
100
AcDb2dVertex
 10
349.9999999125
 20
2.99999999924996
 30
0.0
  0
VERTEX
  5
A5
330
41
100
AcDbEntity
  8
_U_30EC_U_30A4_U_30E4_U_30
 62
    29
100
AcDbVertex
100
AcDb2dVertex
 10
349.9999999125
 20
3.999999999000053
 30
0.0
  0
VERTEX
  5
A6
330
41
100
AcDbEntity
  8
_U_30EC_U_30A4_U_30E4_U_30
 62
    29
100
AcDbVertex
100
AcDb2dVertex
 10
349.9999999125
 20
4.999999998750146
 30
0.0
  0
VERTEX
  5
A7
330
41
100
AcDbEntity
  8
_U_30EC_U_30A4_U_30E4_U_30
 62
    29
100
AcDbVertex
100
AcDb2dVertex
 10
349.9999999125
 20
5.999999998500241
 30
0.0
  0
VERTEX
  5
A8
330
41
100
AcDbEntity
  8
_U_30EC_U_30A4_U_30E4_U_30
 62
    29
100
AcDbVertex
100
AcDb2dVertex
 10
349.9999999125
 20
6.999999998250334
 30
0.0
  0
VERTEX
  5
A9
330
41
100
AcDbEntity
  8
_U_30EC_U_30A4_U_30E4_U_30
 62
    29
100
AcDbVertex
100
AcDb2dVertex
 10
349.9999999125
 20
7.999999998000106
 30
0.0
  0
VERTEX
  5
AA
330
41
100
AcDbEntity
  8
_U_30EC_U_30A4_U_30E4_U_30
 62
    29
100
AcDbVertex
100
AcDb2dVertex
 10
349.9999999125
 20
8.9999999977502
 30
0.0
  0
VERTEX
  5
AB
330
41
100
AcDbEntity
  8
_U_30EC_U_30A4_U_30E4_U_30
 62
    29
100
AcDbVertex
100
AcDb2dVertex
 10
349.9999999125
 20
9.999999997500293
 30
0.0
  0
VERTEX
  5
AC
330
41
100
AcDbEntity
  8
_U_30EC_U_30A4_U_30E4_U_30
 62
    29
100
AcDbVertex
100
AcDb2dVertex
 10
349.9999999125
 20
10.99999999725007
 30
0.0
  0
VERTEX
  5
AD
330
41
100
AcDbEntity
  8
_U_30EC_U_30A4_U_30E4_U_30
 62
    29
100
AcDbVertex
100
AcDb2dVertex
 10
349.9999999125
 20
11.99999999700016
 30
0.0
  0
VERTEX
  5
AE
330
41
100
AcDbEntity
  8
_U_30EC_U_30A4_U_30E4_U_30
 62
    29
100
AcDbVertex
100
AcDb2dVertex
 10
349.9999999125
 20
12.99999999675025
 30
0.0
  0
VERTEX
  5
AF
330
41
100
AcDbEntity
  8
_U_30EC_U_30A4_U_30E4_U_30
 62
    29
100
AcDbVertex
100
AcDb2dVertex
 10
349.9999999125
 20
13.99999999650035
 30
0.0
  0
VERTEX
  5
B0
330
41
100
AcDbEntity
  8
_U_30EC_U_30A4_U_30E4_U_30
 62
    29
100
AcDbVertex
100
AcDb2dVertex
 10
349.9999999125
 20
14.99999999625044
 30
0.0
  0
VERTEX
  5
B1
330
41
100
AcDbEntity
  8
_U_30EC_U_30A4_U_30E4_U_30
 62
    29
100
AcDbVertex
100
AcDb2dVertex
 10
349.9999999125
 20
15.99999999600021
 30
0.0
  0
VERTEX
  5
B2
330
41
100
AcDbEntity
  8
_U_30EC_U_30A4_U_30E4_U_30
 62
    29
100
AcDbVertex
100
AcDb2dVertex
 10
349.9999999125
 20
16.99999999575031
 30
0.0
  0
VERTEX
  5
B3
330
41
100
AcDbEntity
  8
_U_30EC_U_30A4_U_30E4_U_30
 62
    29
100
AcDbVertex
100
AcDb2dVertex
 10
349.994837025231
 20
17.10224418667598
 30
0.0
  0
VERTEX
  5
B4
330
41
100
AcDbEntity
  8
_U_30EC_U_30A4_U_30E4_U_30
 62
    29
100
AcDbVertex
100
AcDb2dVertex
 10
349.9796834666976
 20
17.20153487504583
 30
0.0
  0
VERTEX
  5
B5
330
41
100
AcDbEntity
  8
_U_30EC_U_30A4_U_30E4_U_30
 62
    29
100
AcDbVertex
100
AcDb2dVertex
 10
349.9550418918061
 20
17.29736940595244
 30
0.0
  0
VERTEX
  5
B6
330
41
100
AcDbEntity
  8
_U_30EC_U_30A4_U_30E4_U_30
 62
    29
100
AcDbVertex
100
AcDb2dVertex
 10
349.9214149554645
 20
17.38924512448778
 30
0.0
  0
VERTEX
  5
B7
330
41
100
AcDbEntity
  8
_U_30EC_U_30A4_U_30E4_U_30
 62
    29
100
AcDbVertex
100
AcDb2dVertex
 10
349.8793053125819
 20
17.47665937574379
 30
0.0
  0
VERTEX
  5
B8
330
41
100
AcDbEntity
  8
_U_30EC_U_30A4_U_30E4_U_30
 62
    29
100
AcDbVertex
100
AcDb2dVertex
 10
349.8292156180648
 20
17.5591095048134
 30
0.0
  0
VERTEX
  5
B9
330
41
100
AcDbEntity
  8
_U_30EC_U_30A4_U_30E4_U_30
 62
    29
100
AcDbVertex
100
AcDb2dVertex
 10
349.7716485268216
 20
17.6360928567879
 30
0.0
  0
VERTEX
  5
BA
330
41
100
AcDbEntity
  8
_U_30EC_U_30A4_U_30E4_U_30
 62
    29
100
AcDbVertex
100
AcDb2dVertex
 10
349.7071066937598
 20
17.7071067767599
 30
0.0
  0
VERTEX
  5
BB
330
41
100
AcDbEntity
  8
_U_30EC_U_30A4_U_30E4_U_30
 62
    29
100
AcDbVertex
100
AcDb2dVertex
 10
349.6360927737882
 20
17.77164860982136
 30
0.0
  0
VERTEX
  5
BC
330
41
100
AcDbEntity
  8
_U_30EC_U_30A4_U_30E4_U_30
 62
    29
100
AcDbVertex
100
AcDb2dVertex
 10
349.5591094218133
 20
17.82921570106453
 30
0.0
  0
VERTEX
  5
BD
330
41
100
AcDbEntity
  8
_U_30EC_U_30A4_U_30E4_U_30
 62
    29
100
AcDbVertex
100
AcDb2dVertex
 10
349.476659292744
 20
17.87930539558171
 30
0.0
  0
VERTEX
  5
BE
330
41
100
AcDbEntity
  8
_U_30EC_U_30A4_U_30E4_U_30
 62
    29
100
AcDbVertex
100
AcDb2dVertex
 10
349.3892450414877
 20
17.92141503846483
 30
0.0
  0
VERTEX
  5
BF
330
41
100
AcDbEntity
  8
_U_30EC_U_30A4_U_30E4_U_30
 62
    29
100
AcDbVertex
100
AcDb2dVertex
 10
349.297369322953
 20
17.95504197480586
 30
0.0
  0
VERTEX
  5
C0
330
41
100
AcDbEntity
  8
_U_30EC_U_30A4_U_30E4_U_30
 62
    29
100
AcDbVertex
100
AcDb2dVertex
 10
349.2015347920461
 20
17.97968354969739
 30
0.0
  0
VERTEX
  5
C1
330
41
100
AcDbEntity
  8
_U_30EC_U_30A4_U_30E4_U_30
 62
    29
100
AcDbVertex
100
AcDb2dVertex
 10
349.1022441036756
 20
17.99483710823137
 30
0.0
  0
VERTEX
  5
C2
330
41
100
AcDbEntity
  8
_U_30EC_U_30A4_U_30E4_U_30
 62
    29
100
AcDbVertex
100
AcDb2dVertex
 10
348.9999999127502
 20
17.99999999550008
 30
0.0
  0
VERTEX
  5
C3
330
41
100
AcDbEntity
  8
_U_30EC_U_30A4_U_30E4_U_30
 62
    29
100
AcDbVertex
100
AcDb2dVertex
 10
348.9999999127502
 20
17.99999999550008
 30
0.0
  0
SEQEND
  5
C4
330
41
100
AcDbEntity
  8
_U_30EC_U_30A4_U_30E4_U_30
 62
    29
  0
ENDSEC
  0
SECTION
  2
OBJECTS
  0
DICTIONARY
  5
C
330
0
100
AcDbDictionary
  3
ACAD_GROUP
350
D
  3
ACAD_LAYOUT
350
1A
  3
ACAD_MATERIAL
350
3B
  3
ACAD_MLEADERSTYLE
350
E7
  3
ACAD_MLINESTYLE
350
17
  3
ACAD_PLOTSETTINGS
350
19
  3
ACAD_VISUALSTYLE
350
2A
  3
ACDBHEADERROUNDTRIPXREC
350
C5
  3
ACDBVARIABLEDICTIONARY
350
E5
  0
DICTIONARY
  5
D
102
{ACAD_REACTORS
330
C
102
}
330
C
100
AcDbDictionary
  0
DICTIONARY
  5
1A
102
{ACAD_REACTORS
330
C
102
}
330
C
100
AcDbDictionary
  0
DICTIONARY
  5
3B
102
{ACAD_REACTORS
330
C
102
}
330
C
100
AcDbDictionary
  3
BYBLOCK
350
3D
  3
BYLAYER
350
3C
  3
GLOBAL
350
3E
  0
DICTIONARY
  5
E7
102
{ACAD_REACTORS
330
C
102
}
330
C
100
AcDbDictionary
  0
DICTIONARY
  5
17
102
{ACAD_REACTORS
330
C
102
}
330
C
100
AcDbDictionary
  3
STANDARD
350
18
  0
DICTIONARY
  5
19
102
{ACAD_REACTORS
330
C
102
}
330
C
100
AcDbDictionary
  0
DICTIONARY
  5
2A
102
{ACAD_REACTORS
330
C
102
}
330
C
100
AcDbDictionary
  3
2DWIREFRAME
350
2F
  3
3DWIREFRAME
350
30
  3
3D_HIDDEN
350
31
  3
BASIC
350
32
  3
BRIGHTEN
350
36
  3
COLORCHANGE
350
3A
  3
CONCEPTUAL
350
34
  3
DIM
350
35
  3
FACEPATTERN
350
39
  3
FLAT
350
2B
  3
FLATWITHEDGES
350
2C
  3
GOURAUD
350
2D
  3
GOURAUDWITHEDGES
350
2E
  3
LINEPATTERN
350
38
  3
REALISTIC
350
33
  3
THICKEN
350
37
  0
DICTIONARY
  5
C5
102
{ACAD_REACTORS
330
C
102
}
330
C
100
AcDbDictionary
  3
CEPSNTYPE
350
CE
  3
DIMSTYLEDATA
350
E4
  3
FINGERPRINTGUID
350
CF
  3
HYPERLINKBASE
350
C8
  3
INSUNITS
350
CD
  3
LAYOUTDICT
350
CA
  3
LWETCUNION
350
CC
  3
PLOTSETDICT
350
CB
  3
PSVPSCALE
350
D1
  3
PUCSBASE
350
D4
  3
PUCSORGBACK
350
DA
  3
PUCSORGBOTTOM
350
D6
  3
PUCSORGFRONT
350
D9
  3
PUCSORGLEFT
350
D7
  3
PUCSORGRIGHT
350
D8
  3
PUCSORGTOP
350
D5
  3
PUCSORTHOREF
350
D2
  3
PUCSORTHOVIEW
350
D3
  3
STYLESHEET
350
C9
  3
TSTACKALIGN
350
C6
  3
TSTACKSIZE
350
C7
  3
UCSBASE
350
DD
  3
UCSORGBACK
350
E3
  3
UCSORGBOTTOM
350
DF
  3
UCSORGFRONT
350
E2
  3
UCSORGLEFT
350
E0
  3
UCSORGRIGHT
350
E1
  3
UCSORGTOP
350
DE
  3
UCSORTHOREF
350
DB
  3
UCSORTHOVIEW
350
DC
  3
VERSIONGUID
350
D0
  0
DICTIONARY
  5
E5
102
{ACAD_REACTORS
330
C
102
}
330
C
100
AcDbDictionary
  3
DIMASSOC
350
E8
  3
HIDETEXT
350
E9
  0
MATERIAL
  5
3D
102
{ACAD_REACTORS
330
3B
102
}
102
{ACAD_XDICTIONARY
360
EC
102
}
330
3B
100
AcDbMaterial
  1
ByBlock
  0
MATERIAL
  5
3C
102
{ACAD_REACTORS
330
3B
102
}
102
{ACAD_XDICTIONARY
360
EA
102
}
330
3B
100
AcDbMaterial
  1
ByLayer
  0
MATERIAL
  5
3E
102
{ACAD_REACTORS
330
3B
102
}
102
{ACAD_XDICTIONARY
360
EE
102
}
330
3B
100
AcDbMaterial
  1
Global
  0
MLINESTYLE
  5
18
102
{ACAD_REACTORS
330
17
102
}
330
17
100
AcDbMlineStyle
  2
Standard
 70
     0
  3

 62
   256
 51
90.0
 52
90.0
 71
     2
 49
0.5
 62
   256
  6
BYLAYER
 49
-0.5
 62
   256
  6
BYLAYER
  0
ACAD_PROXY_OBJECT
  5
2F
102
{ACAD_REACTORS
330
2A
102
}
330
2A
100
AcDbProxyObject
 90
      499
 91
      501
 93
      436
310
42CC9915DA5C99599C985B595049028333333333333E3BF0000000000000FB0107901411070040501600405405064090741402480A0340
1001
ACAD
1000
AcDbSavedByObjectVersion
1070
     0
  0
ACAD_PROXY_OBJECT
  5
30
102
{ACAD_REACTORS
330
2A
102
}
330
2A
100
AcDbProxyObject
 90
      499
 91
      501
 93
      436
310
42CCD915DA5C99599C985B595059028333333333333E3BF0000000000000FB0107901411070040501600405405064090741402480A0340
1001
ACAD
1000
AcDbSavedByObjectVersion
1070
     0
  0
ACAD_PROXY_OBJECT
  5
31
102
{ACAD_REACTORS
330
2A
102
}
330
2A
100
AcDbProxyObject
 90
      499
 91
      501
 93
      500
310
424CD108121A5919195B90640502408333333333333E3BF0000000000000FB01079024090700405020000000000001110200405405064090740C02480A0340
1001
ACAD
1000
AcDbSavedByObjectVersion
1070
     0
  0
ACAD_PROXY_OBJECT
  5
32
102
{ACAD_REACTORS
330
2A
102
}
330
2A
100
AcDbProxyObject
 90
      499
 91
      501
 93
      388
310
4150985CDA58D07406404333333333333E3BF0000000000000FB0107A41107004050150841D405064090741402480A0350
1001
ACAD
1000
AcDbSavedByObjectVersion
1070
     0
  0
ACAD_PROXY_OBJECT
  5
36
102
{ACAD_REACTORS
330
2A
102
}
330
2A
100
AcDbProxyObject
 90
      499
 91
      501
 93
      428
310
42109C9A59DA1D195B90C409028333333333333E3BF0000000000000FB010790141107004050150841D405064090741402480A029950
1001
ACAD
1000
AcDbSavedByObjectVersion
1070
     0
  0
ACAD_PROXY_OBJECT
  5
3A
102
{ACAD_REACTORS
330
2A
102
}
330
2A
100
AcDbProxyObject
 90
      499
 91
      501
 93
      452
310
42D0DBDB1BDC90DA185B99D95104090240C333333333333E3BF0000000000000FB0108901411070040501508421405064090741402480A0350
1001
ACAD
1000
AcDbSavedByObjectVersion
1070
     0
  0
ACAD_PROXY_OBJECT
  5
34
102
{ACAD_REACTORS
330
2A
102
}
330
2A
100
AcDbProxyObject
 90
      499
 91
      501
 93
      500
310
4290DBDB98D95C1D1D585B10940D028333333333333E3BF0000000000000FB0107902409070040501000000000000111010841D405064090740C02480A0340
1001
ACAD
1000
AcDbSavedByObjectVersion
1070
     0
  0
ACAD_PROXY_OBJECT
  5
35
102
{ACAD_REACTORS
330
2A
102
}
330
2A
100
AcDbProxyObject
 90
      499
 91
      501
 93
      412
310
40D11A5B50B409028333333333333E3BF0000000000000FB010790141107004050150841D405064090741402480A02677FFFFFD0
1001
ACAD
1000
AcDbSavedByObjectVersion
1070
     0
  0
ACAD_PROXY_OBJECT
  5
39
102
{ACAD_REACTORS
330
2A
102
}
330
2A
100
AcDbProxyObject
 90
      499
 91
      501
 93
      444
310
42D19858D95C185D1D195C9B90F409028333333333333E3BF0000000000000FB010790141107004050150841D405064090741402480A0350
1001
ACAD
1000
AcDbSavedByObjectVersion
1070
     0
  0
ACAD_PROXY_OBJECT
  5
2B
102
{ACAD_REACTORS
330
2A
102
}
330
2A
100
AcDbProxyObject
 90
      499
 91
      501
 93
      388
310
41119B185D240901404333333333333E3BF0000000000000F9010740A41107004050150841D405064090741402480A1B50
1001
ACAD
1000
AcDbSavedByObjectVersion
1070
     0
  0
ACAD_PROXY_OBJECT
  5
2C
102
{ACAD_REACTORS
330
2A
102
}
330
2A
100
AcDbProxyObject
 90
      499
 91
      501
 93
      476
310
43519B185D15DA5D1A115919D95CD0140901404333333333333E3BF0000000000000F9010740901411070040501600405405064090741402480A1B50
1001
ACAD
1000
AcDbSavedByObjectVersion
1070
     0
  0
ACAD_PROXY_OBJECT
  5
2D
102
{ACAD_REACTORS
330
2A
102
}
330
2A
100
AcDbProxyObject
 90
      499
 91
      501
 93
      412
310
41D1DBDD5C985D5910240902404333333333333E3BF0000000000000F9010740A411070040501641D405064090741402480A1B50
1001
ACAD
1000
AcDbSavedByObjectVersion
1070
     0
  0
ACAD_PROXY_OBJECT
  5
2E
102
{ACAD_REACTORS
330
2A
102
}
330
2A
100
AcDbProxyObject
 90
      499
 91
      501
 93
      500
310
4411DBDD5C985D5915DA5D1A115919D95CD0340902404333333333333E3BF0000000000000F9010740901411070040501600405405064090741402480A1B50
1001
ACAD
1000
AcDbSavedByObjectVersion
1070
     0
  0
ACAD_PROXY_OBJECT
  5
38
102
{ACAD_REACTORS
330
2A
102
}
330
2A
100
AcDbProxyObject
 90
      499
 91
      501
 93
      444
310
42D31A5B995C185D1D195C9B90E409028333333333333E3BF0000000000000FB010790141107004050750841D405064090741402483A0350
1001
ACAD
1000
AcDbSavedByObjectVersion
1070
     0
  0
ACAD_PROXY_OBJECT
  5
33
102
{ACAD_REACTORS
330
2A
102
}
330
2A
100
AcDbProxyObject
 90
      499
 91
      501
 93
      420
310
425499585B1A5CDD1A58D08409028333333333333E3BF0000000000000FB01079019070040501508421405064090741402480A1B40
1001
ACAD
1000
AcDbSavedByObjectVersion
1070
     0
  0
ACAD_PROXY_OBJECT
  5
37
102
{ACAD_REACTORS
330
2A
102
}
330
2A
100
AcDbProxyObject
 90
      499
 91
      501
 93
      412
310
41D51A1A58DAD95B90D409028333333333333E3BF0000000000000FB010790141107004050150C41D405064090741402480A0350
1001
ACAD
1000
AcDbSavedByObjectVersion
1070
     0
  0
XRECORD
  5
CE
102
{ACAD_REACTORS
330
C5
102
}
330
C5
100
AcDbXrecord
 90
        0
  0
XRECORD
  5
E4
102
{ACAD_REACTORS
330
C5
102
}
330
C5
100
AcDbXrecord
1000
DSTYLE
1002
{
1070
   340
340
11
1002
}
  0
XRECORD
  5
CF
102
{ACAD_REACTORS
330
C5
102
}
330
C5
100
AcDbXrecord
  1
{89BF81EE-1BDD-872A-9575-294D8A84305E}
  0
XRECORD
  5
C8
102
{ACAD_REACTORS
330
C5
102
}
330
C5
100
AcDbXrecord
  1

  0
XRECORD
  5
CD
102
{ACAD_REACTORS
330
C5
102
}
330
C5
100
AcDbXrecord
 90
        4
  0
XRECORD
  5
CA
102
{ACAD_REACTORS
330
C5
102
}
330
C5
100
AcDbXrecord
340
1A
  0
XRECORD
  5
CC
102
{ACAD_REACTORS
330
C5
102
}
330
C5
100
AcDbXrecord
 90
    10269
  0
XRECORD
  5
CB
102
{ACAD_REACTORS
330
C5
102
}
330
C5
100
AcDbXrecord
340
19
  0
XRECORD
  5
D1
102
{ACAD_REACTORS
330
C5
102
}
330
C5
100
AcDbXrecord
 40
0.0
  0
XRECORD
  5
D4
102
{ACAD_REACTORS
330
C5
102
}
330
C5
100
AcDbXrecord
340
0
  0
XRECORD
  5
DA
102
{ACAD_REACTORS
330
C5
102
}
330
C5
100
AcDbXrecord
 10
0.0
 20
0.0
 30
0.0
  0
XRECORD
  5
D6
102
{ACAD_REACTORS
330
C5
102
}
330
C5
100
AcDbXrecord
 10
0.0
 20
0.0
 30
0.0
  0
XRECORD
  5
D9
102
{ACAD_REACTORS
330
C5
102
}
330
C5
100
AcDbXrecord
 10
0.0
 20
0.0
 30
0.0
  0
XRECORD
  5
D7
102
{ACAD_REACTORS
330
C5
102
}
330
C5
100
AcDbXrecord
 10
0.0
 20
0.0
 30
0.0
  0
XRECORD
  5
D8
102
{ACAD_REACTORS
330
C5
102
}
330
C5
100
AcDbXrecord
 10
0.0
 20
0.0
 30
0.0
  0
XRECORD
  5
D5
102
{ACAD_REACTORS
330
C5
102
}
330
C5
100
AcDbXrecord
 10
0.0
 20
0.0
 30
0.0
  0
XRECORD
  5
D2
102
{ACAD_REACTORS
330
C5
102
}
330
C5
100
AcDbXrecord
340
0
  0
XRECORD
  5
D3
102
{ACAD_REACTORS
330
C5
102
}
330
C5
100
AcDbXrecord
 70
     0
  0
XRECORD
  5
C9
102
{ACAD_REACTORS
330
C5
102
}
330
C5
100
AcDbXrecord
  1

  0
XRECORD
  5
C6
102
{ACAD_REACTORS
330
C5
102
}
330
C5
100
AcDbXrecord
 90
        1
  0
XRECORD
  5
C7
102
{ACAD_REACTORS
330
C5
102
}
330
C5
100
AcDbXrecord
 90
       70
  0
XRECORD
  5
DD
102
{ACAD_REACTORS
330
C5
102
}
330
C5
100
AcDbXrecord
340
0
  0
XRECORD
  5
E3
102
{ACAD_REACTORS
330
C5
102
}
330
C5
100
AcDbXrecord
 10
0.0
 20
0.0
 30
0.0
  0
XRECORD
  5
DF
102
{ACAD_REACTORS
330
C5
102
}
330
C5
100
AcDbXrecord
 10
0.0
 20
0.0
 30
0.0
  0
XRECORD
  5
E2
102
{ACAD_REACTORS
330
C5
102
}
330
C5
100
AcDbXrecord
 10
0.0
 20
0.0
 30
0.0
  0
XRECORD
  5
E0
102
{ACAD_REACTORS
330
C5
102
}
330
C5
100
AcDbXrecord
 10
0.0
 20
0.0
 30
0.0
  0
XRECORD
  5
E1
102
{ACAD_REACTORS
330
C5
102
}
330
C5
100
AcDbXrecord
 10
0.0
 20
0.0
 30
0.0
  0
XRECORD
  5
DE
102
{ACAD_REACTORS
330
C5
102
}
330
C5
100
AcDbXrecord
 10
0.0
 20
0.0
 30
0.0
  0
XRECORD
  5
DB
102
{ACAD_REACTORS
330
C5
102
}
330
C5
100
AcDbXrecord
340
0
  0
XRECORD
  5
DC
102
{ACAD_REACTORS
330
C5
102
}
330
C5
100
AcDbXrecord
 70
     0
  0
XRECORD
  5
D0
102
{ACAD_REACTORS
330
C5
102
}
330
C5
100
AcDbXrecord
  1
{FAEB1C32-E019-11D5-929B-00C0DF256EC4}
  0
DICTIONARYVAR
  5
E8
102
{ACAD_REACTORS
330
E5
102
}
330
E5
100
DictionaryVariables
280
     0
  1
2
  0
DICTIONARYVAR
  5
E9
102
{ACAD_REACTORS
330
E5
102
}
330
E5
100
DictionaryVariables
280
     0
  1
1
  0
DICTIONARY
  5
EC
330
3D
100
AcDbDictionary
280
     1
  3
ACAD_XREC_ROUNDTRIP
360
ED
  0
DICTIONARY
  5
EA
330
3C
100
AcDbDictionary
280
     1
  3
ACAD_XREC_ROUNDTRIP
360
EB
  0
DICTIONARY
  5
EE
330
3E
100
AcDbDictionary
280
     1
  3
ACAD_XREC_ROUNDTRIP
360
EF
  0
XRECORD
  5
ED
102
{ACAD_REACTORS
330
EC
102
}
330
EC
100
AcDbXrecord
102
MATERIAL
148
0.0
149
0.0
149
0.0
 93
        0
 94
      127
282
     0
 72
     1
 77
     1
171
     1
175
     1
179
     1
273
     0
  0
XRECORD
  5
EB
102
{ACAD_REACTORS
330
EA
102
}
330
EA
100
AcDbXrecord
102
MATERIAL
148
0.0
149
0.0
149
0.0
 93
        0
 94
      127
282
     0
 72
     1
 77
     1
171
     1
175
     1
179
     1
273
     0
  0
XRECORD
  5
EF
102
{ACAD_REACTORS
330
EE
102
}
330
EE
100
AcDbXrecord
102
MATERIAL
148
0.0
149
0.0
149
0.0
 93
        0
 94
      127
282
     0
 72
     1
 77
     1
171
     1
175
     1
179
     1
273
     0
  0
ENDSEC
  0
EOF
