G04 EAGLE Gerber RS-274X export*
G75*
%MOMM*%
%FSLAX34Y34*%
%LPD*%
%INSilk top*%
%IPPOS*%
%AMOC8*
5,1,8,0,0,1.08239X$1,22.5*%
G01*
%ADD10C,0.001000*%
%ADD11C,0.127000*%
%ADD12C,0.200000*%
%ADD13C,0.152400*%
%ADD14R,0.200000X0.200000*%
%ADD15C,0.500000*%


D10*
X3490000Y180000D02*
X10000Y180000D01*
X8978Y179948D01*
X7985Y179797D01*
X7026Y179550D01*
X6108Y179214D01*
X5233Y178793D01*
X4409Y178292D01*
X3639Y177717D01*
X2929Y177071D01*
X2284Y176361D01*
X1708Y175591D01*
X1207Y174767D01*
X786Y173893D01*
X450Y172974D01*
X203Y172015D01*
X52Y171022D01*
X0Y170000D01*
X0Y10000D01*
X52Y8978D01*
X203Y7985D01*
X450Y7026D01*
X786Y6108D01*
X1207Y5233D01*
X1708Y4409D01*
X2284Y3639D01*
X2929Y2929D01*
X3639Y2284D01*
X4409Y1708D01*
X5233Y1207D01*
X6108Y786D01*
X7026Y450D01*
X7985Y203D01*
X8978Y52D01*
X10000Y0D01*
X3490000Y0D01*
X3491022Y52D01*
X3492015Y203D01*
X3492974Y450D01*
X3493893Y786D01*
X3494767Y1207D01*
X3495591Y1708D01*
X3496361Y2284D01*
X3497071Y2929D01*
X3497717Y3639D01*
X3498292Y4409D01*
X3498793Y5233D01*
X3499214Y6108D01*
X3499550Y7026D01*
X3499797Y7985D01*
X3499948Y8978D01*
X3500000Y10000D01*
X3500000Y170000D01*
X3499948Y171022D01*
X3499797Y172015D01*
X3499550Y172974D01*
X3499214Y173893D01*
X3498793Y174767D01*
X3498292Y175591D01*
X3497717Y176361D01*
X3497071Y177071D01*
X3496361Y177717D01*
X3495591Y178292D01*
X3494767Y178793D01*
X3493893Y179214D01*
X3492974Y179550D01*
X3492015Y179797D01*
X3491022Y179948D01*
X3490000Y180000D01*
D11*
X126440Y157365D02*
X126440Y152635D01*
X125126Y157365D02*
X127754Y157365D01*
X129903Y152635D02*
X133057Y157365D01*
X129903Y157365D02*
X133057Y152635D01*
X138543Y155788D02*
X141697Y154474D01*
X138543Y153161D01*
X147446Y153686D02*
X148497Y157365D01*
X147446Y153686D02*
X150074Y153686D01*
X149286Y154737D02*
X149286Y152635D01*
X152846Y153949D02*
X152848Y154020D01*
X152854Y154091D01*
X152863Y154162D01*
X152877Y154231D01*
X152894Y154301D01*
X152915Y154369D01*
X152939Y154435D01*
X152967Y154501D01*
X152999Y154564D01*
X153034Y154626D01*
X153072Y154686D01*
X153114Y154744D01*
X153159Y154800D01*
X153206Y154853D01*
X153256Y154903D01*
X153309Y154950D01*
X153365Y154995D01*
X153423Y155037D01*
X153483Y155075D01*
X153545Y155110D01*
X153608Y155142D01*
X153674Y155170D01*
X153740Y155194D01*
X153808Y155215D01*
X153878Y155232D01*
X153947Y155246D01*
X154018Y155255D01*
X154089Y155261D01*
X154160Y155263D01*
X154231Y155261D01*
X154302Y155255D01*
X154373Y155246D01*
X154442Y155232D01*
X154512Y155215D01*
X154580Y155194D01*
X154646Y155170D01*
X154712Y155142D01*
X154775Y155110D01*
X154837Y155075D01*
X154897Y155037D01*
X154955Y154995D01*
X155011Y154950D01*
X155064Y154903D01*
X155114Y154853D01*
X155161Y154800D01*
X155206Y154744D01*
X155248Y154686D01*
X155286Y154626D01*
X155321Y154564D01*
X155353Y154501D01*
X155381Y154435D01*
X155405Y154369D01*
X155426Y154301D01*
X155443Y154231D01*
X155457Y154162D01*
X155466Y154091D01*
X155472Y154020D01*
X155474Y153949D01*
X155472Y153878D01*
X155466Y153807D01*
X155457Y153736D01*
X155443Y153667D01*
X155426Y153597D01*
X155405Y153529D01*
X155381Y153463D01*
X155353Y153397D01*
X155321Y153334D01*
X155286Y153272D01*
X155248Y153212D01*
X155206Y153154D01*
X155161Y153098D01*
X155114Y153045D01*
X155064Y152995D01*
X155011Y152948D01*
X154955Y152903D01*
X154897Y152861D01*
X154837Y152823D01*
X154775Y152788D01*
X154712Y152756D01*
X154646Y152728D01*
X154580Y152704D01*
X154512Y152683D01*
X154442Y152666D01*
X154373Y152652D01*
X154302Y152643D01*
X154231Y152637D01*
X154160Y152635D01*
X154089Y152637D01*
X154018Y152643D01*
X153947Y152652D01*
X153878Y152666D01*
X153808Y152683D01*
X153740Y152704D01*
X153674Y152728D01*
X153608Y152756D01*
X153545Y152788D01*
X153483Y152823D01*
X153423Y152861D01*
X153365Y152903D01*
X153309Y152948D01*
X153256Y152995D01*
X153206Y153045D01*
X153159Y153098D01*
X153114Y153154D01*
X153072Y153212D01*
X153034Y153272D01*
X152999Y153334D01*
X152967Y153397D01*
X152939Y153463D01*
X152915Y153529D01*
X152894Y153597D01*
X152877Y153667D01*
X152863Y153736D01*
X152854Y153807D01*
X152848Y153878D01*
X152846Y153949D01*
X153109Y156314D02*
X153111Y156377D01*
X153117Y156441D01*
X153126Y156503D01*
X153140Y156566D01*
X153157Y156627D01*
X153177Y156687D01*
X153202Y156745D01*
X153229Y156802D01*
X153261Y156858D01*
X153295Y156911D01*
X153333Y156962D01*
X153373Y157011D01*
X153417Y157057D01*
X153463Y157101D01*
X153512Y157141D01*
X153563Y157179D01*
X153616Y157213D01*
X153672Y157245D01*
X153729Y157272D01*
X153787Y157297D01*
X153847Y157317D01*
X153908Y157334D01*
X153971Y157348D01*
X154033Y157357D01*
X154097Y157363D01*
X154160Y157365D01*
X154223Y157363D01*
X154287Y157357D01*
X154349Y157348D01*
X154412Y157334D01*
X154473Y157317D01*
X154533Y157297D01*
X154591Y157272D01*
X154648Y157245D01*
X154704Y157213D01*
X154757Y157179D01*
X154808Y157141D01*
X154857Y157101D01*
X154903Y157057D01*
X154947Y157011D01*
X154987Y156962D01*
X155025Y156911D01*
X155059Y156858D01*
X155091Y156802D01*
X155118Y156745D01*
X155143Y156687D01*
X155163Y156627D01*
X155180Y156566D01*
X155194Y156503D01*
X155203Y156441D01*
X155209Y156377D01*
X155211Y156314D01*
X155209Y156251D01*
X155203Y156187D01*
X155194Y156125D01*
X155180Y156062D01*
X155163Y156001D01*
X155143Y155941D01*
X155118Y155883D01*
X155091Y155826D01*
X155059Y155770D01*
X155025Y155717D01*
X154987Y155666D01*
X154947Y155617D01*
X154903Y155571D01*
X154857Y155527D01*
X154808Y155487D01*
X154757Y155449D01*
X154704Y155415D01*
X154648Y155383D01*
X154591Y155356D01*
X154533Y155331D01*
X154473Y155311D01*
X154412Y155294D01*
X154349Y155280D01*
X154287Y155271D01*
X154223Y155265D01*
X154160Y155263D01*
X154097Y155265D01*
X154033Y155271D01*
X153971Y155280D01*
X153908Y155294D01*
X153847Y155311D01*
X153787Y155331D01*
X153729Y155356D01*
X153672Y155383D01*
X153616Y155415D01*
X153563Y155449D01*
X153512Y155487D01*
X153463Y155527D01*
X153417Y155571D01*
X153373Y155617D01*
X153333Y155666D01*
X153295Y155717D01*
X153261Y155770D01*
X153229Y155826D01*
X153202Y155883D01*
X153177Y155941D01*
X153157Y156001D01*
X153140Y156062D01*
X153126Y156125D01*
X153117Y156187D01*
X153111Y156251D01*
X153109Y156314D01*
X158246Y152635D02*
X159823Y152635D01*
X159886Y152637D01*
X159950Y152643D01*
X160012Y152652D01*
X160075Y152666D01*
X160136Y152683D01*
X160196Y152703D01*
X160254Y152728D01*
X160311Y152755D01*
X160367Y152787D01*
X160420Y152821D01*
X160471Y152859D01*
X160520Y152899D01*
X160566Y152943D01*
X160610Y152989D01*
X160650Y153038D01*
X160688Y153089D01*
X160722Y153142D01*
X160754Y153198D01*
X160781Y153255D01*
X160806Y153313D01*
X160826Y153373D01*
X160843Y153435D01*
X160857Y153497D01*
X160866Y153559D01*
X160872Y153623D01*
X160874Y153686D01*
X160874Y154212D01*
X160872Y154275D01*
X160866Y154339D01*
X160857Y154401D01*
X160843Y154464D01*
X160826Y154525D01*
X160806Y154585D01*
X160781Y154643D01*
X160754Y154700D01*
X160722Y154756D01*
X160688Y154809D01*
X160650Y154860D01*
X160610Y154909D01*
X160566Y154955D01*
X160520Y154999D01*
X160471Y155039D01*
X160420Y155077D01*
X160367Y155111D01*
X160311Y155143D01*
X160254Y155170D01*
X160196Y155195D01*
X160136Y155215D01*
X160075Y155232D01*
X160012Y155246D01*
X159950Y155255D01*
X159886Y155261D01*
X159823Y155263D01*
X158246Y155263D01*
X158246Y157365D01*
X160874Y157365D01*
X124978Y79365D02*
X124978Y74635D01*
X124978Y79365D02*
X126292Y79365D01*
X126363Y79363D01*
X126434Y79357D01*
X126505Y79348D01*
X126574Y79334D01*
X126644Y79317D01*
X126712Y79296D01*
X126778Y79272D01*
X126844Y79244D01*
X126907Y79212D01*
X126969Y79177D01*
X127029Y79139D01*
X127087Y79097D01*
X127143Y79052D01*
X127196Y79005D01*
X127246Y78955D01*
X127293Y78902D01*
X127338Y78846D01*
X127380Y78788D01*
X127418Y78728D01*
X127453Y78666D01*
X127485Y78603D01*
X127513Y78537D01*
X127537Y78471D01*
X127558Y78403D01*
X127575Y78333D01*
X127589Y78264D01*
X127598Y78193D01*
X127604Y78122D01*
X127606Y78051D01*
X127604Y77980D01*
X127598Y77909D01*
X127589Y77838D01*
X127575Y77769D01*
X127558Y77699D01*
X127537Y77631D01*
X127513Y77565D01*
X127485Y77499D01*
X127453Y77436D01*
X127418Y77374D01*
X127380Y77314D01*
X127338Y77256D01*
X127293Y77200D01*
X127246Y77147D01*
X127196Y77097D01*
X127143Y77050D01*
X127087Y77005D01*
X127029Y76963D01*
X126969Y76925D01*
X126907Y76890D01*
X126844Y76858D01*
X126778Y76830D01*
X126712Y76806D01*
X126644Y76785D01*
X126574Y76768D01*
X126505Y76754D01*
X126434Y76745D01*
X126363Y76739D01*
X126292Y76737D01*
X124978Y76737D01*
X126555Y76737D02*
X127606Y74635D01*
X130052Y74635D02*
X133205Y79365D01*
X130052Y79365D02*
X133205Y74635D01*
X138692Y77788D02*
X141845Y76474D01*
X138692Y75161D01*
X147594Y75686D02*
X148645Y79365D01*
X147594Y75686D02*
X150222Y75686D01*
X149434Y76737D02*
X149434Y74635D01*
X152994Y75949D02*
X152996Y76020D01*
X153002Y76091D01*
X153011Y76162D01*
X153025Y76231D01*
X153042Y76301D01*
X153063Y76369D01*
X153087Y76435D01*
X153115Y76501D01*
X153147Y76564D01*
X153182Y76626D01*
X153220Y76686D01*
X153262Y76744D01*
X153307Y76800D01*
X153354Y76853D01*
X153404Y76903D01*
X153457Y76950D01*
X153513Y76995D01*
X153571Y77037D01*
X153631Y77075D01*
X153693Y77110D01*
X153756Y77142D01*
X153822Y77170D01*
X153888Y77194D01*
X153956Y77215D01*
X154026Y77232D01*
X154095Y77246D01*
X154166Y77255D01*
X154237Y77261D01*
X154308Y77263D01*
X154379Y77261D01*
X154450Y77255D01*
X154521Y77246D01*
X154590Y77232D01*
X154660Y77215D01*
X154728Y77194D01*
X154794Y77170D01*
X154860Y77142D01*
X154923Y77110D01*
X154985Y77075D01*
X155045Y77037D01*
X155103Y76995D01*
X155159Y76950D01*
X155212Y76903D01*
X155262Y76853D01*
X155309Y76800D01*
X155354Y76744D01*
X155396Y76686D01*
X155434Y76626D01*
X155469Y76564D01*
X155501Y76501D01*
X155529Y76435D01*
X155553Y76369D01*
X155574Y76301D01*
X155591Y76231D01*
X155605Y76162D01*
X155614Y76091D01*
X155620Y76020D01*
X155622Y75949D01*
X155620Y75878D01*
X155614Y75807D01*
X155605Y75736D01*
X155591Y75667D01*
X155574Y75597D01*
X155553Y75529D01*
X155529Y75463D01*
X155501Y75397D01*
X155469Y75334D01*
X155434Y75272D01*
X155396Y75212D01*
X155354Y75154D01*
X155309Y75098D01*
X155262Y75045D01*
X155212Y74995D01*
X155159Y74948D01*
X155103Y74903D01*
X155045Y74861D01*
X154985Y74823D01*
X154923Y74788D01*
X154860Y74756D01*
X154794Y74728D01*
X154728Y74704D01*
X154660Y74683D01*
X154590Y74666D01*
X154521Y74652D01*
X154450Y74643D01*
X154379Y74637D01*
X154308Y74635D01*
X154237Y74637D01*
X154166Y74643D01*
X154095Y74652D01*
X154026Y74666D01*
X153956Y74683D01*
X153888Y74704D01*
X153822Y74728D01*
X153756Y74756D01*
X153693Y74788D01*
X153631Y74823D01*
X153571Y74861D01*
X153513Y74903D01*
X153457Y74948D01*
X153404Y74995D01*
X153354Y75045D01*
X153307Y75098D01*
X153262Y75154D01*
X153220Y75212D01*
X153182Y75272D01*
X153147Y75334D01*
X153115Y75397D01*
X153087Y75463D01*
X153063Y75529D01*
X153042Y75597D01*
X153025Y75667D01*
X153011Y75736D01*
X153002Y75807D01*
X152996Y75878D01*
X152994Y75949D01*
X153257Y78314D02*
X153259Y78377D01*
X153265Y78441D01*
X153274Y78503D01*
X153288Y78566D01*
X153305Y78627D01*
X153325Y78687D01*
X153350Y78745D01*
X153377Y78802D01*
X153409Y78858D01*
X153443Y78911D01*
X153481Y78962D01*
X153521Y79011D01*
X153565Y79057D01*
X153611Y79101D01*
X153660Y79141D01*
X153711Y79179D01*
X153764Y79213D01*
X153820Y79245D01*
X153877Y79272D01*
X153935Y79297D01*
X153995Y79317D01*
X154056Y79334D01*
X154119Y79348D01*
X154181Y79357D01*
X154245Y79363D01*
X154308Y79365D01*
X154371Y79363D01*
X154435Y79357D01*
X154497Y79348D01*
X154560Y79334D01*
X154621Y79317D01*
X154681Y79297D01*
X154739Y79272D01*
X154796Y79245D01*
X154852Y79213D01*
X154905Y79179D01*
X154956Y79141D01*
X155005Y79101D01*
X155051Y79057D01*
X155095Y79011D01*
X155135Y78962D01*
X155173Y78911D01*
X155207Y78858D01*
X155239Y78802D01*
X155266Y78745D01*
X155291Y78687D01*
X155311Y78627D01*
X155328Y78566D01*
X155342Y78503D01*
X155351Y78441D01*
X155357Y78377D01*
X155359Y78314D01*
X155357Y78251D01*
X155351Y78187D01*
X155342Y78125D01*
X155328Y78062D01*
X155311Y78001D01*
X155291Y77941D01*
X155266Y77883D01*
X155239Y77826D01*
X155207Y77770D01*
X155173Y77717D01*
X155135Y77666D01*
X155095Y77617D01*
X155051Y77571D01*
X155005Y77527D01*
X154956Y77487D01*
X154905Y77449D01*
X154852Y77415D01*
X154796Y77383D01*
X154739Y77356D01*
X154681Y77331D01*
X154621Y77311D01*
X154560Y77294D01*
X154497Y77280D01*
X154435Y77271D01*
X154371Y77265D01*
X154308Y77263D01*
X154245Y77265D01*
X154181Y77271D01*
X154119Y77280D01*
X154056Y77294D01*
X153995Y77311D01*
X153935Y77331D01*
X153877Y77356D01*
X153820Y77383D01*
X153764Y77415D01*
X153711Y77449D01*
X153660Y77487D01*
X153611Y77527D01*
X153565Y77571D01*
X153521Y77617D01*
X153481Y77666D01*
X153443Y77717D01*
X153409Y77770D01*
X153377Y77826D01*
X153350Y77883D01*
X153325Y77941D01*
X153305Y78001D01*
X153288Y78062D01*
X153274Y78125D01*
X153265Y78187D01*
X153259Y78251D01*
X153257Y78314D01*
X158394Y74635D02*
X159971Y74635D01*
X160034Y74637D01*
X160098Y74643D01*
X160160Y74652D01*
X160223Y74666D01*
X160284Y74683D01*
X160344Y74703D01*
X160402Y74728D01*
X160459Y74755D01*
X160515Y74787D01*
X160568Y74821D01*
X160619Y74859D01*
X160668Y74899D01*
X160714Y74943D01*
X160758Y74989D01*
X160798Y75038D01*
X160836Y75089D01*
X160870Y75142D01*
X160902Y75198D01*
X160929Y75255D01*
X160954Y75313D01*
X160974Y75373D01*
X160991Y75435D01*
X161005Y75497D01*
X161014Y75559D01*
X161020Y75623D01*
X161022Y75686D01*
X161022Y76212D01*
X161020Y76275D01*
X161014Y76339D01*
X161005Y76401D01*
X160991Y76464D01*
X160974Y76525D01*
X160954Y76585D01*
X160929Y76643D01*
X160902Y76700D01*
X160870Y76756D01*
X160836Y76809D01*
X160798Y76860D01*
X160758Y76909D01*
X160714Y76955D01*
X160668Y76999D01*
X160619Y77039D01*
X160568Y77077D01*
X160515Y77111D01*
X160459Y77143D01*
X160402Y77170D01*
X160344Y77195D01*
X160284Y77215D01*
X160223Y77232D01*
X160160Y77246D01*
X160098Y77255D01*
X160034Y77261D01*
X159971Y77263D01*
X158394Y77263D01*
X158394Y79365D01*
X161022Y79365D01*
D12*
X150000Y35000D02*
X150000Y30000D01*
X154229Y32512D01*
X150000Y35000D01*
X156372Y35076D02*
X156372Y30076D01*
D13*
X300740Y141762D02*
X298582Y148238D01*
X302899Y148238D02*
X300740Y141762D01*
X316580Y145360D02*
X317659Y145360D01*
X317659Y141762D01*
X315500Y141762D01*
X315425Y141764D01*
X315350Y141770D01*
X315275Y141780D01*
X315201Y141793D01*
X315128Y141811D01*
X315055Y141832D01*
X314984Y141858D01*
X314915Y141886D01*
X314847Y141919D01*
X314781Y141955D01*
X314716Y141994D01*
X314654Y142037D01*
X314594Y142083D01*
X314537Y142132D01*
X314482Y142183D01*
X314431Y142238D01*
X314382Y142295D01*
X314336Y142355D01*
X314293Y142417D01*
X314254Y142482D01*
X314218Y142548D01*
X314185Y142616D01*
X314157Y142685D01*
X314131Y142756D01*
X314110Y142829D01*
X314092Y142902D01*
X314079Y142976D01*
X314069Y143051D01*
X314063Y143126D01*
X314061Y143201D01*
X314061Y146799D01*
X314063Y146874D01*
X314069Y146949D01*
X314079Y147024D01*
X314092Y147098D01*
X314110Y147171D01*
X314131Y147244D01*
X314157Y147315D01*
X314185Y147384D01*
X314218Y147452D01*
X314254Y147518D01*
X314293Y147583D01*
X314336Y147645D01*
X314382Y147705D01*
X314431Y147762D01*
X314482Y147817D01*
X314537Y147868D01*
X314594Y147917D01*
X314654Y147963D01*
X314716Y148006D01*
X314780Y148045D01*
X314847Y148081D01*
X314915Y148114D01*
X314984Y148142D01*
X315055Y148168D01*
X315128Y148189D01*
X315201Y148207D01*
X315275Y148220D01*
X315350Y148230D01*
X315425Y148236D01*
X315500Y148238D01*
X317659Y148238D01*
X321741Y148238D02*
X321741Y141762D01*
X325339Y141762D02*
X321741Y148238D01*
X325339Y148238D02*
X325339Y141762D01*
X329421Y141762D02*
X329421Y148238D01*
X331220Y148238D01*
X331303Y148236D01*
X331386Y148230D01*
X331469Y148221D01*
X331551Y148207D01*
X331632Y148190D01*
X331712Y148169D01*
X331792Y148145D01*
X331870Y148117D01*
X331947Y148085D01*
X332022Y148049D01*
X332095Y148011D01*
X332167Y147969D01*
X332237Y147923D01*
X332304Y147875D01*
X332369Y147823D01*
X332432Y147768D01*
X332492Y147711D01*
X332549Y147651D01*
X332604Y147588D01*
X332656Y147523D01*
X332704Y147456D01*
X332750Y147386D01*
X332792Y147314D01*
X332830Y147241D01*
X332866Y147166D01*
X332898Y147089D01*
X332926Y147011D01*
X332950Y146931D01*
X332971Y146851D01*
X332988Y146770D01*
X333002Y146688D01*
X333011Y146605D01*
X333017Y146522D01*
X333019Y146439D01*
X333019Y143561D01*
X333017Y143478D01*
X333011Y143395D01*
X333002Y143312D01*
X332988Y143230D01*
X332971Y143149D01*
X332950Y143069D01*
X332926Y142989D01*
X332898Y142911D01*
X332866Y142834D01*
X332830Y142759D01*
X332792Y142686D01*
X332750Y142614D01*
X332704Y142544D01*
X332656Y142477D01*
X332604Y142412D01*
X332549Y142349D01*
X332492Y142289D01*
X332432Y142232D01*
X332369Y142177D01*
X332304Y142125D01*
X332237Y142077D01*
X332167Y142031D01*
X332095Y141989D01*
X332022Y141951D01*
X331947Y141915D01*
X331870Y141883D01*
X331792Y141855D01*
X331712Y141831D01*
X331632Y141810D01*
X331551Y141793D01*
X331469Y141779D01*
X331386Y141770D01*
X331303Y141764D01*
X331220Y141762D01*
X329421Y141762D01*
X341020Y141762D02*
X341020Y148238D01*
X342819Y148238D01*
X342902Y148236D01*
X342985Y148230D01*
X343068Y148221D01*
X343150Y148207D01*
X343231Y148190D01*
X343311Y148169D01*
X343391Y148145D01*
X343469Y148117D01*
X343546Y148085D01*
X343621Y148049D01*
X343694Y148011D01*
X343766Y147969D01*
X343836Y147923D01*
X343903Y147875D01*
X343968Y147823D01*
X344031Y147768D01*
X344091Y147711D01*
X344148Y147651D01*
X344203Y147588D01*
X344255Y147523D01*
X344303Y147456D01*
X344349Y147386D01*
X344391Y147314D01*
X344429Y147241D01*
X344465Y147166D01*
X344497Y147089D01*
X344525Y147011D01*
X344549Y146931D01*
X344570Y146851D01*
X344587Y146770D01*
X344601Y146688D01*
X344610Y146605D01*
X344616Y146522D01*
X344618Y146439D01*
X344616Y146356D01*
X344610Y146273D01*
X344601Y146190D01*
X344587Y146108D01*
X344570Y146027D01*
X344549Y145947D01*
X344525Y145867D01*
X344497Y145789D01*
X344465Y145712D01*
X344429Y145637D01*
X344391Y145564D01*
X344349Y145492D01*
X344303Y145422D01*
X344255Y145355D01*
X344203Y145290D01*
X344148Y145227D01*
X344091Y145167D01*
X344031Y145110D01*
X343968Y145055D01*
X343903Y145003D01*
X343836Y144955D01*
X343766Y144909D01*
X343694Y144867D01*
X343621Y144829D01*
X343546Y144793D01*
X343469Y144761D01*
X343391Y144733D01*
X343311Y144709D01*
X343231Y144688D01*
X343150Y144671D01*
X343068Y144657D01*
X342985Y144648D01*
X342902Y144642D01*
X342819Y144640D01*
X341020Y144640D01*
X343178Y144640D02*
X344617Y141762D01*
X350060Y141762D02*
X350135Y141764D01*
X350210Y141770D01*
X350285Y141780D01*
X350359Y141793D01*
X350432Y141811D01*
X350505Y141832D01*
X350576Y141858D01*
X350645Y141886D01*
X350713Y141919D01*
X350780Y141955D01*
X350844Y141994D01*
X350906Y142037D01*
X350966Y142083D01*
X351023Y142132D01*
X351078Y142183D01*
X351129Y142238D01*
X351178Y142295D01*
X351224Y142355D01*
X351267Y142417D01*
X351306Y142482D01*
X351342Y142548D01*
X351375Y142616D01*
X351403Y142685D01*
X351429Y142756D01*
X351450Y142829D01*
X351468Y142902D01*
X351481Y142976D01*
X351491Y143051D01*
X351497Y143126D01*
X351499Y143201D01*
X350060Y141762D02*
X349951Y141764D01*
X349842Y141770D01*
X349733Y141780D01*
X349625Y141793D01*
X349517Y141811D01*
X349410Y141832D01*
X349304Y141857D01*
X349199Y141886D01*
X349095Y141919D01*
X348992Y141956D01*
X348891Y141996D01*
X348791Y142040D01*
X348693Y142087D01*
X348596Y142138D01*
X348501Y142192D01*
X348409Y142250D01*
X348318Y142311D01*
X348230Y142375D01*
X348144Y142442D01*
X348060Y142512D01*
X347980Y142585D01*
X347901Y142661D01*
X348081Y146799D02*
X348083Y146874D01*
X348089Y146949D01*
X348099Y147024D01*
X348112Y147098D01*
X348130Y147171D01*
X348151Y147244D01*
X348177Y147315D01*
X348205Y147384D01*
X348238Y147452D01*
X348274Y147519D01*
X348313Y147583D01*
X348356Y147645D01*
X348402Y147705D01*
X348451Y147762D01*
X348502Y147817D01*
X348557Y147868D01*
X348614Y147917D01*
X348674Y147963D01*
X348736Y148006D01*
X348801Y148045D01*
X348867Y148081D01*
X348935Y148114D01*
X349004Y148142D01*
X349075Y148168D01*
X349148Y148189D01*
X349221Y148207D01*
X349295Y148220D01*
X349370Y148230D01*
X349445Y148236D01*
X349520Y148238D01*
X349622Y148236D01*
X349724Y148230D01*
X349826Y148221D01*
X349927Y148207D01*
X350028Y148190D01*
X350128Y148169D01*
X350227Y148144D01*
X350325Y148115D01*
X350422Y148083D01*
X350517Y148047D01*
X350611Y148007D01*
X350704Y147964D01*
X350795Y147918D01*
X350884Y147868D01*
X350971Y147815D01*
X351056Y147758D01*
X351139Y147698D01*
X348801Y145539D02*
X348736Y145580D01*
X348674Y145623D01*
X348614Y145670D01*
X348557Y145720D01*
X348502Y145772D01*
X348450Y145828D01*
X348401Y145886D01*
X348356Y145946D01*
X348313Y146009D01*
X348274Y146074D01*
X348238Y146140D01*
X348205Y146209D01*
X348176Y146279D01*
X348151Y146351D01*
X348130Y146424D01*
X348112Y146498D01*
X348099Y146572D01*
X348089Y146647D01*
X348083Y146723D01*
X348081Y146799D01*
X350779Y144461D02*
X350844Y144420D01*
X350906Y144377D01*
X350966Y144330D01*
X351023Y144280D01*
X351078Y144228D01*
X351130Y144172D01*
X351179Y144114D01*
X351224Y144054D01*
X351267Y143991D01*
X351306Y143926D01*
X351342Y143860D01*
X351375Y143791D01*
X351404Y143721D01*
X351429Y143649D01*
X351450Y143576D01*
X351468Y143502D01*
X351481Y143428D01*
X351491Y143353D01*
X351497Y143277D01*
X351499Y143201D01*
X350779Y144460D02*
X348801Y145540D01*
X356180Y148238D02*
X356180Y141762D01*
X354381Y148238D02*
X357979Y148238D01*
X366345Y141762D02*
X367784Y141762D01*
X366345Y141762D02*
X366270Y141764D01*
X366195Y141770D01*
X366120Y141780D01*
X366046Y141793D01*
X365973Y141811D01*
X365900Y141832D01*
X365829Y141858D01*
X365760Y141886D01*
X365692Y141919D01*
X365626Y141955D01*
X365561Y141994D01*
X365499Y142037D01*
X365439Y142083D01*
X365382Y142132D01*
X365327Y142183D01*
X365276Y142238D01*
X365227Y142295D01*
X365181Y142355D01*
X365138Y142417D01*
X365099Y142482D01*
X365063Y142548D01*
X365030Y142616D01*
X365002Y142685D01*
X364976Y142756D01*
X364955Y142829D01*
X364937Y142902D01*
X364924Y142976D01*
X364914Y143051D01*
X364908Y143126D01*
X364906Y143201D01*
X364906Y146799D01*
X364908Y146874D01*
X364914Y146949D01*
X364924Y147024D01*
X364937Y147098D01*
X364955Y147171D01*
X364976Y147244D01*
X365002Y147315D01*
X365030Y147384D01*
X365063Y147452D01*
X365099Y147518D01*
X365138Y147583D01*
X365181Y147645D01*
X365227Y147705D01*
X365276Y147762D01*
X365327Y147817D01*
X365382Y147868D01*
X365439Y147917D01*
X365499Y147963D01*
X365561Y148006D01*
X365625Y148045D01*
X365692Y148081D01*
X365760Y148114D01*
X365829Y148142D01*
X365900Y148168D01*
X365973Y148189D01*
X366046Y148207D01*
X366120Y148220D01*
X366195Y148230D01*
X366270Y148236D01*
X366345Y148238D01*
X367784Y148238D01*
X371205Y148238D02*
X371205Y141762D01*
X374083Y141762D01*
X377601Y141762D02*
X377601Y148238D01*
X381199Y148238D02*
X377601Y144280D01*
X379041Y145720D02*
X381199Y141762D01*
X392301Y141762D02*
X392301Y148238D01*
X394100Y148238D01*
X394183Y148236D01*
X394266Y148230D01*
X394349Y148221D01*
X394431Y148207D01*
X394512Y148190D01*
X394592Y148169D01*
X394672Y148145D01*
X394750Y148117D01*
X394827Y148085D01*
X394902Y148049D01*
X394975Y148011D01*
X395047Y147969D01*
X395117Y147923D01*
X395184Y147875D01*
X395249Y147823D01*
X395312Y147768D01*
X395372Y147711D01*
X395429Y147651D01*
X395484Y147588D01*
X395536Y147523D01*
X395584Y147456D01*
X395630Y147386D01*
X395672Y147314D01*
X395710Y147241D01*
X395746Y147166D01*
X395778Y147089D01*
X395806Y147011D01*
X395830Y146931D01*
X395851Y146851D01*
X395868Y146770D01*
X395882Y146688D01*
X395891Y146605D01*
X395897Y146522D01*
X395899Y146439D01*
X395899Y143561D01*
X395897Y143478D01*
X395891Y143395D01*
X395882Y143312D01*
X395868Y143230D01*
X395851Y143149D01*
X395830Y143069D01*
X395806Y142989D01*
X395778Y142911D01*
X395746Y142834D01*
X395710Y142759D01*
X395672Y142686D01*
X395630Y142614D01*
X395584Y142544D01*
X395536Y142477D01*
X395484Y142412D01*
X395429Y142349D01*
X395372Y142289D01*
X395312Y142232D01*
X395249Y142177D01*
X395184Y142125D01*
X395117Y142077D01*
X395047Y142031D01*
X394975Y141989D01*
X394902Y141951D01*
X394827Y141915D01*
X394750Y141883D01*
X394672Y141855D01*
X394592Y141831D01*
X394512Y141810D01*
X394431Y141793D01*
X394349Y141779D01*
X394266Y141770D01*
X394183Y141764D01*
X394100Y141762D01*
X392301Y141762D01*
X399381Y141762D02*
X401540Y148238D01*
X403699Y141762D01*
X403159Y143381D02*
X399921Y143381D01*
X408260Y141762D02*
X408260Y148238D01*
X406461Y148238D02*
X410059Y148238D01*
D12*
X216000Y50000D02*
X184000Y50000D01*
X184000Y30000D02*
X216000Y30000D01*
D11*
X198504Y37735D02*
X197432Y37735D01*
X197367Y37737D01*
X197303Y37743D01*
X197239Y37753D01*
X197175Y37766D01*
X197113Y37784D01*
X197052Y37805D01*
X196992Y37829D01*
X196934Y37858D01*
X196877Y37890D01*
X196823Y37925D01*
X196771Y37963D01*
X196721Y38005D01*
X196674Y38049D01*
X196630Y38096D01*
X196588Y38146D01*
X196550Y38198D01*
X196515Y38252D01*
X196483Y38309D01*
X196454Y38367D01*
X196430Y38427D01*
X196409Y38488D01*
X196391Y38550D01*
X196378Y38614D01*
X196368Y38678D01*
X196362Y38742D01*
X196360Y38807D01*
X196359Y38807D02*
X196359Y41489D01*
X196360Y41489D02*
X196362Y41554D01*
X196368Y41618D01*
X196378Y41682D01*
X196391Y41746D01*
X196409Y41808D01*
X196430Y41869D01*
X196454Y41929D01*
X196483Y41987D01*
X196515Y42044D01*
X196550Y42098D01*
X196588Y42150D01*
X196630Y42200D01*
X196674Y42247D01*
X196721Y42291D01*
X196771Y42333D01*
X196823Y42371D01*
X196877Y42406D01*
X196934Y42438D01*
X196992Y42467D01*
X197052Y42491D01*
X197113Y42512D01*
X197175Y42530D01*
X197239Y42543D01*
X197303Y42553D01*
X197367Y42559D01*
X197432Y42561D01*
X198504Y42561D01*
X200960Y41489D02*
X202300Y42561D01*
X202300Y37735D01*
X200960Y37735D02*
X203641Y37735D01*
X262432Y151919D02*
X263504Y151919D01*
X262432Y151919D02*
X262367Y151921D01*
X262303Y151927D01*
X262239Y151937D01*
X262175Y151950D01*
X262113Y151968D01*
X262052Y151989D01*
X261992Y152013D01*
X261934Y152042D01*
X261877Y152074D01*
X261823Y152109D01*
X261771Y152147D01*
X261721Y152189D01*
X261674Y152233D01*
X261630Y152280D01*
X261588Y152330D01*
X261550Y152382D01*
X261515Y152436D01*
X261483Y152493D01*
X261454Y152551D01*
X261430Y152611D01*
X261409Y152672D01*
X261391Y152734D01*
X261378Y152798D01*
X261368Y152862D01*
X261362Y152926D01*
X261360Y152991D01*
X261359Y152991D02*
X261359Y155673D01*
X261360Y155673D02*
X261362Y155738D01*
X261368Y155802D01*
X261378Y155866D01*
X261391Y155930D01*
X261409Y155992D01*
X261430Y156053D01*
X261454Y156113D01*
X261483Y156171D01*
X261515Y156228D01*
X261550Y156282D01*
X261588Y156334D01*
X261630Y156384D01*
X261674Y156431D01*
X261721Y156475D01*
X261771Y156517D01*
X261823Y156555D01*
X261877Y156590D01*
X261934Y156622D01*
X261992Y156651D01*
X262052Y156675D01*
X262113Y156696D01*
X262175Y156714D01*
X262239Y156727D01*
X262303Y156737D01*
X262367Y156743D01*
X262432Y156745D01*
X263504Y156745D01*
X265960Y154600D02*
X267568Y154600D01*
X267633Y154598D01*
X267697Y154592D01*
X267761Y154582D01*
X267825Y154569D01*
X267887Y154551D01*
X267948Y154530D01*
X268008Y154506D01*
X268066Y154477D01*
X268123Y154445D01*
X268177Y154410D01*
X268229Y154372D01*
X268279Y154330D01*
X268326Y154286D01*
X268370Y154239D01*
X268412Y154189D01*
X268450Y154137D01*
X268485Y154083D01*
X268517Y154026D01*
X268546Y153968D01*
X268570Y153908D01*
X268591Y153847D01*
X268609Y153785D01*
X268622Y153721D01*
X268632Y153657D01*
X268638Y153593D01*
X268640Y153528D01*
X268641Y153528D02*
X268641Y153260D01*
X268639Y153189D01*
X268633Y153117D01*
X268624Y153047D01*
X268611Y152977D01*
X268594Y152907D01*
X268573Y152839D01*
X268549Y152772D01*
X268521Y152706D01*
X268490Y152642D01*
X268455Y152579D01*
X268417Y152519D01*
X268376Y152460D01*
X268332Y152404D01*
X268285Y152350D01*
X268236Y152299D01*
X268183Y152251D01*
X268128Y152205D01*
X268071Y152163D01*
X268011Y152123D01*
X267950Y152087D01*
X267886Y152054D01*
X267821Y152025D01*
X267755Y151999D01*
X267687Y151976D01*
X267618Y151957D01*
X267548Y151942D01*
X267478Y151931D01*
X267407Y151923D01*
X267336Y151919D01*
X267264Y151919D01*
X267193Y151923D01*
X267122Y151931D01*
X267052Y151942D01*
X266982Y151957D01*
X266913Y151976D01*
X266845Y151999D01*
X266779Y152025D01*
X266714Y152054D01*
X266650Y152087D01*
X266589Y152123D01*
X266529Y152163D01*
X266472Y152205D01*
X266417Y152251D01*
X266364Y152299D01*
X266315Y152350D01*
X266268Y152404D01*
X266224Y152460D01*
X266183Y152519D01*
X266145Y152579D01*
X266110Y152642D01*
X266079Y152706D01*
X266051Y152772D01*
X266027Y152839D01*
X266006Y152907D01*
X265989Y152977D01*
X265976Y153047D01*
X265967Y153117D01*
X265961Y153189D01*
X265959Y153260D01*
X265960Y153260D02*
X265960Y154600D01*
X265962Y154691D01*
X265968Y154782D01*
X265977Y154872D01*
X265991Y154963D01*
X266008Y155052D01*
X266029Y155140D01*
X266054Y155228D01*
X266083Y155315D01*
X266115Y155400D01*
X266150Y155484D01*
X266190Y155566D01*
X266232Y155646D01*
X266278Y155725D01*
X266328Y155801D01*
X266380Y155875D01*
X266436Y155948D01*
X266495Y156017D01*
X266556Y156084D01*
X266621Y156149D01*
X266688Y156210D01*
X266757Y156269D01*
X266829Y156325D01*
X266904Y156377D01*
X266980Y156427D01*
X267059Y156473D01*
X267139Y156515D01*
X267221Y156555D01*
X267305Y156590D01*
X267390Y156622D01*
X267477Y156651D01*
X267564Y156676D01*
X267653Y156697D01*
X267742Y156714D01*
X267833Y156728D01*
X267923Y156737D01*
X268014Y156743D01*
X268105Y156745D01*
X263504Y101919D02*
X262432Y101919D01*
X262367Y101921D01*
X262303Y101927D01*
X262239Y101937D01*
X262175Y101950D01*
X262113Y101968D01*
X262052Y101989D01*
X261992Y102013D01*
X261934Y102042D01*
X261877Y102074D01*
X261823Y102109D01*
X261771Y102147D01*
X261721Y102189D01*
X261674Y102233D01*
X261630Y102280D01*
X261588Y102330D01*
X261550Y102382D01*
X261515Y102436D01*
X261483Y102493D01*
X261454Y102551D01*
X261430Y102611D01*
X261409Y102672D01*
X261391Y102734D01*
X261378Y102798D01*
X261368Y102862D01*
X261362Y102926D01*
X261360Y102991D01*
X261359Y102991D02*
X261359Y105673D01*
X261360Y105673D02*
X261362Y105738D01*
X261368Y105802D01*
X261378Y105866D01*
X261391Y105930D01*
X261409Y105992D01*
X261430Y106053D01*
X261454Y106113D01*
X261483Y106171D01*
X261515Y106228D01*
X261550Y106282D01*
X261588Y106334D01*
X261630Y106384D01*
X261674Y106431D01*
X261721Y106475D01*
X261771Y106517D01*
X261823Y106555D01*
X261877Y106590D01*
X261934Y106622D01*
X261992Y106651D01*
X262052Y106675D01*
X262113Y106696D01*
X262175Y106714D01*
X262239Y106727D01*
X262303Y106737D01*
X262367Y106743D01*
X262432Y106745D01*
X263504Y106745D01*
X267032Y106745D02*
X265960Y102991D01*
X268641Y102991D01*
X267837Y104064D02*
X267837Y101919D01*
X263504Y36919D02*
X262432Y36919D01*
X262367Y36921D01*
X262303Y36927D01*
X262239Y36937D01*
X262175Y36950D01*
X262113Y36968D01*
X262052Y36989D01*
X261992Y37013D01*
X261934Y37042D01*
X261877Y37074D01*
X261823Y37109D01*
X261771Y37147D01*
X261721Y37189D01*
X261674Y37233D01*
X261630Y37280D01*
X261588Y37330D01*
X261550Y37382D01*
X261515Y37436D01*
X261483Y37493D01*
X261454Y37551D01*
X261430Y37611D01*
X261409Y37672D01*
X261391Y37734D01*
X261378Y37798D01*
X261368Y37862D01*
X261362Y37926D01*
X261360Y37991D01*
X261359Y37991D02*
X261359Y40673D01*
X261360Y40673D02*
X261362Y40738D01*
X261368Y40802D01*
X261378Y40866D01*
X261391Y40930D01*
X261409Y40992D01*
X261430Y41053D01*
X261454Y41113D01*
X261483Y41171D01*
X261515Y41228D01*
X261550Y41282D01*
X261588Y41334D01*
X261630Y41384D01*
X261674Y41431D01*
X261721Y41475D01*
X261771Y41517D01*
X261823Y41555D01*
X261877Y41590D01*
X261934Y41622D01*
X261992Y41651D01*
X262052Y41675D01*
X262113Y41696D01*
X262175Y41714D01*
X262239Y41727D01*
X262303Y41737D01*
X262367Y41743D01*
X262432Y41745D01*
X263504Y41745D01*
X265960Y36919D02*
X267300Y36919D01*
X267371Y36921D01*
X267443Y36927D01*
X267513Y36936D01*
X267583Y36949D01*
X267653Y36966D01*
X267721Y36987D01*
X267788Y37011D01*
X267854Y37039D01*
X267918Y37070D01*
X267981Y37105D01*
X268041Y37143D01*
X268100Y37184D01*
X268156Y37228D01*
X268210Y37275D01*
X268261Y37324D01*
X268309Y37377D01*
X268355Y37432D01*
X268397Y37489D01*
X268437Y37549D01*
X268473Y37610D01*
X268506Y37674D01*
X268535Y37739D01*
X268561Y37805D01*
X268584Y37873D01*
X268603Y37942D01*
X268618Y38012D01*
X268629Y38082D01*
X268637Y38153D01*
X268641Y38224D01*
X268641Y38296D01*
X268637Y38367D01*
X268629Y38438D01*
X268618Y38508D01*
X268603Y38578D01*
X268584Y38647D01*
X268561Y38715D01*
X268535Y38781D01*
X268506Y38846D01*
X268473Y38910D01*
X268437Y38971D01*
X268397Y39031D01*
X268355Y39088D01*
X268309Y39143D01*
X268261Y39196D01*
X268210Y39245D01*
X268156Y39292D01*
X268100Y39336D01*
X268041Y39377D01*
X267981Y39415D01*
X267918Y39450D01*
X267854Y39481D01*
X267788Y39509D01*
X267721Y39533D01*
X267653Y39554D01*
X267583Y39571D01*
X267513Y39584D01*
X267443Y39593D01*
X267371Y39599D01*
X267300Y39601D01*
X267568Y41745D02*
X265960Y41745D01*
X267568Y41745D02*
X267633Y41743D01*
X267697Y41737D01*
X267761Y41727D01*
X267825Y41714D01*
X267887Y41696D01*
X267948Y41675D01*
X268008Y41651D01*
X268066Y41622D01*
X268123Y41590D01*
X268177Y41555D01*
X268229Y41517D01*
X268279Y41475D01*
X268326Y41431D01*
X268370Y41384D01*
X268412Y41334D01*
X268450Y41282D01*
X268485Y41228D01*
X268517Y41171D01*
X268546Y41113D01*
X268570Y41053D01*
X268591Y40992D01*
X268609Y40930D01*
X268622Y40866D01*
X268632Y40802D01*
X268638Y40738D01*
X268640Y40673D01*
X268638Y40608D01*
X268632Y40544D01*
X268622Y40480D01*
X268609Y40416D01*
X268591Y40354D01*
X268570Y40293D01*
X268546Y40233D01*
X268517Y40175D01*
X268485Y40118D01*
X268450Y40064D01*
X268412Y40012D01*
X268370Y39962D01*
X268326Y39915D01*
X268279Y39871D01*
X268229Y39829D01*
X268177Y39791D01*
X268123Y39756D01*
X268066Y39724D01*
X268008Y39695D01*
X267948Y39671D01*
X267887Y39650D01*
X267825Y39632D01*
X267761Y39619D01*
X267697Y39609D01*
X267633Y39603D01*
X267568Y39601D01*
X267568Y39600D02*
X266496Y39600D01*
X263504Y126919D02*
X262432Y126919D01*
X262367Y126921D01*
X262303Y126927D01*
X262239Y126937D01*
X262175Y126950D01*
X262113Y126968D01*
X262052Y126989D01*
X261992Y127013D01*
X261934Y127042D01*
X261877Y127074D01*
X261823Y127109D01*
X261771Y127147D01*
X261721Y127189D01*
X261674Y127233D01*
X261630Y127280D01*
X261588Y127330D01*
X261550Y127382D01*
X261515Y127436D01*
X261483Y127493D01*
X261454Y127551D01*
X261430Y127611D01*
X261409Y127672D01*
X261391Y127734D01*
X261378Y127798D01*
X261368Y127862D01*
X261362Y127926D01*
X261360Y127991D01*
X261359Y127991D02*
X261359Y130673D01*
X261360Y130673D02*
X261362Y130738D01*
X261368Y130802D01*
X261378Y130866D01*
X261391Y130930D01*
X261409Y130992D01*
X261430Y131053D01*
X261454Y131113D01*
X261483Y131171D01*
X261515Y131228D01*
X261550Y131282D01*
X261588Y131334D01*
X261630Y131384D01*
X261674Y131431D01*
X261721Y131475D01*
X261771Y131517D01*
X261823Y131555D01*
X261877Y131590D01*
X261934Y131622D01*
X261992Y131651D01*
X262052Y131675D01*
X262113Y131696D01*
X262175Y131714D01*
X262239Y131727D01*
X262303Y131737D01*
X262367Y131743D01*
X262432Y131745D01*
X263504Y131745D01*
X265960Y126919D02*
X267568Y126919D01*
X267633Y126921D01*
X267697Y126927D01*
X267761Y126937D01*
X267825Y126950D01*
X267887Y126968D01*
X267948Y126989D01*
X268008Y127013D01*
X268066Y127042D01*
X268123Y127074D01*
X268177Y127109D01*
X268229Y127147D01*
X268279Y127189D01*
X268326Y127233D01*
X268370Y127280D01*
X268412Y127330D01*
X268450Y127382D01*
X268485Y127436D01*
X268517Y127493D01*
X268546Y127551D01*
X268570Y127611D01*
X268591Y127672D01*
X268609Y127734D01*
X268622Y127798D01*
X268632Y127862D01*
X268638Y127926D01*
X268640Y127991D01*
X268641Y127991D02*
X268641Y128528D01*
X268640Y128528D02*
X268638Y128593D01*
X268632Y128657D01*
X268622Y128721D01*
X268609Y128785D01*
X268591Y128847D01*
X268570Y128908D01*
X268546Y128968D01*
X268517Y129026D01*
X268485Y129083D01*
X268450Y129137D01*
X268412Y129189D01*
X268370Y129239D01*
X268326Y129286D01*
X268279Y129330D01*
X268229Y129372D01*
X268177Y129410D01*
X268123Y129445D01*
X268066Y129477D01*
X268008Y129506D01*
X267948Y129530D01*
X267887Y129551D01*
X267825Y129569D01*
X267761Y129582D01*
X267697Y129592D01*
X267633Y129598D01*
X267568Y129600D01*
X265960Y129600D01*
X265960Y131745D01*
X268641Y131745D01*
X243504Y11919D02*
X242432Y11919D01*
X242367Y11921D01*
X242303Y11927D01*
X242239Y11937D01*
X242175Y11950D01*
X242113Y11968D01*
X242052Y11989D01*
X241992Y12013D01*
X241934Y12042D01*
X241877Y12074D01*
X241823Y12109D01*
X241771Y12147D01*
X241721Y12189D01*
X241674Y12233D01*
X241630Y12280D01*
X241588Y12330D01*
X241550Y12382D01*
X241515Y12436D01*
X241483Y12493D01*
X241454Y12551D01*
X241430Y12611D01*
X241409Y12672D01*
X241391Y12734D01*
X241378Y12798D01*
X241368Y12862D01*
X241362Y12926D01*
X241360Y12991D01*
X241359Y12991D02*
X241359Y15673D01*
X241360Y15673D02*
X241362Y15738D01*
X241368Y15802D01*
X241378Y15866D01*
X241391Y15930D01*
X241409Y15992D01*
X241430Y16053D01*
X241454Y16113D01*
X241483Y16171D01*
X241515Y16228D01*
X241550Y16282D01*
X241588Y16334D01*
X241630Y16384D01*
X241674Y16431D01*
X241721Y16475D01*
X241771Y16517D01*
X241823Y16555D01*
X241877Y16590D01*
X241934Y16622D01*
X241992Y16651D01*
X242052Y16675D01*
X242113Y16696D01*
X242175Y16714D01*
X242239Y16727D01*
X242303Y16737D01*
X242367Y16743D01*
X242432Y16745D01*
X243504Y16745D01*
X247434Y16745D02*
X247502Y16743D01*
X247569Y16737D01*
X247636Y16728D01*
X247703Y16715D01*
X247768Y16698D01*
X247833Y16677D01*
X247896Y16653D01*
X247958Y16625D01*
X248018Y16594D01*
X248076Y16560D01*
X248132Y16522D01*
X248187Y16482D01*
X248238Y16438D01*
X248287Y16391D01*
X248334Y16342D01*
X248378Y16291D01*
X248418Y16236D01*
X248456Y16180D01*
X248490Y16122D01*
X248521Y16062D01*
X248549Y16000D01*
X248573Y15937D01*
X248594Y15872D01*
X248611Y15807D01*
X248624Y15740D01*
X248633Y15673D01*
X248639Y15606D01*
X248641Y15538D01*
X247434Y16745D02*
X247356Y16743D01*
X247278Y16737D01*
X247201Y16727D01*
X247124Y16714D01*
X247048Y16696D01*
X246973Y16675D01*
X246899Y16650D01*
X246827Y16621D01*
X246756Y16589D01*
X246687Y16553D01*
X246619Y16514D01*
X246554Y16471D01*
X246491Y16425D01*
X246430Y16376D01*
X246372Y16324D01*
X246317Y16269D01*
X246264Y16212D01*
X246215Y16152D01*
X246168Y16089D01*
X246125Y16025D01*
X246085Y15958D01*
X246048Y15889D01*
X246015Y15818D01*
X245985Y15746D01*
X245959Y15673D01*
X248239Y14600D02*
X248288Y14649D01*
X248335Y14701D01*
X248378Y14756D01*
X248419Y14813D01*
X248457Y14872D01*
X248491Y14933D01*
X248522Y14996D01*
X248550Y15060D01*
X248574Y15126D01*
X248594Y15192D01*
X248611Y15260D01*
X248624Y15329D01*
X248633Y15398D01*
X248639Y15468D01*
X248641Y15538D01*
X248239Y14600D02*
X245960Y11919D01*
X248641Y11919D01*
D12*
X369150Y16310D02*
X369150Y110700D01*
X320850Y110700D01*
X320850Y16310D01*
X369150Y16310D01*
X354970Y27010D02*
X354972Y27136D01*
X354978Y27262D01*
X354988Y27388D01*
X355002Y27514D01*
X355020Y27639D01*
X355042Y27763D01*
X355067Y27887D01*
X355097Y28010D01*
X355130Y28131D01*
X355168Y28252D01*
X355209Y28371D01*
X355254Y28490D01*
X355302Y28606D01*
X355354Y28721D01*
X355410Y28834D01*
X355470Y28946D01*
X355533Y29055D01*
X355599Y29163D01*
X355668Y29268D01*
X355741Y29371D01*
X355818Y29472D01*
X355897Y29570D01*
X355979Y29666D01*
X356065Y29759D01*
X356153Y29850D01*
X356244Y29937D01*
X356338Y30022D01*
X356434Y30103D01*
X356533Y30182D01*
X356634Y30257D01*
X356738Y30329D01*
X356844Y30398D01*
X356952Y30464D01*
X357062Y30526D01*
X357174Y30584D01*
X357287Y30639D01*
X357403Y30690D01*
X357520Y30738D01*
X357638Y30782D01*
X357758Y30822D01*
X357879Y30858D01*
X358001Y30891D01*
X358124Y30920D01*
X358248Y30944D01*
X358372Y30965D01*
X358497Y30982D01*
X358623Y30995D01*
X358749Y31004D01*
X358875Y31009D01*
X359002Y31010D01*
X359128Y31007D01*
X359254Y31000D01*
X359380Y30989D01*
X359505Y30974D01*
X359630Y30955D01*
X359754Y30932D01*
X359878Y30906D01*
X360000Y30875D01*
X360122Y30841D01*
X360242Y30802D01*
X360361Y30760D01*
X360479Y30715D01*
X360595Y30665D01*
X360710Y30612D01*
X360822Y30555D01*
X360933Y30495D01*
X361042Y30431D01*
X361149Y30364D01*
X361254Y30294D01*
X361357Y30220D01*
X361457Y30143D01*
X361555Y30063D01*
X361650Y29980D01*
X361742Y29894D01*
X361832Y29805D01*
X361919Y29713D01*
X362002Y29619D01*
X362083Y29522D01*
X362161Y29422D01*
X362236Y29320D01*
X362307Y29216D01*
X362375Y29109D01*
X362439Y29001D01*
X362500Y28890D01*
X362558Y28778D01*
X362612Y28664D01*
X362662Y28548D01*
X362709Y28431D01*
X362752Y28312D01*
X362791Y28192D01*
X362827Y28071D01*
X362858Y27948D01*
X362886Y27825D01*
X362910Y27701D01*
X362930Y27576D01*
X362946Y27451D01*
X362958Y27325D01*
X362966Y27199D01*
X362970Y27073D01*
X362970Y26947D01*
X362966Y26821D01*
X362958Y26695D01*
X362946Y26569D01*
X362930Y26444D01*
X362910Y26319D01*
X362886Y26195D01*
X362858Y26072D01*
X362827Y25949D01*
X362791Y25828D01*
X362752Y25708D01*
X362709Y25589D01*
X362662Y25472D01*
X362612Y25356D01*
X362558Y25242D01*
X362500Y25130D01*
X362439Y25019D01*
X362375Y24911D01*
X362307Y24804D01*
X362236Y24700D01*
X362161Y24598D01*
X362083Y24498D01*
X362002Y24401D01*
X361919Y24307D01*
X361832Y24215D01*
X361742Y24126D01*
X361650Y24040D01*
X361555Y23957D01*
X361457Y23877D01*
X361357Y23800D01*
X361254Y23726D01*
X361149Y23656D01*
X361042Y23589D01*
X360933Y23525D01*
X360822Y23465D01*
X360710Y23408D01*
X360595Y23355D01*
X360479Y23305D01*
X360361Y23260D01*
X360242Y23218D01*
X360122Y23179D01*
X360000Y23145D01*
X359878Y23114D01*
X359754Y23088D01*
X359630Y23065D01*
X359505Y23046D01*
X359380Y23031D01*
X359254Y23020D01*
X359128Y23013D01*
X359002Y23010D01*
X358875Y23011D01*
X358749Y23016D01*
X358623Y23025D01*
X358497Y23038D01*
X358372Y23055D01*
X358248Y23076D01*
X358124Y23100D01*
X358001Y23129D01*
X357879Y23162D01*
X357758Y23198D01*
X357638Y23238D01*
X357520Y23282D01*
X357403Y23330D01*
X357287Y23381D01*
X357174Y23436D01*
X357062Y23494D01*
X356952Y23556D01*
X356844Y23622D01*
X356738Y23691D01*
X356634Y23763D01*
X356533Y23838D01*
X356434Y23917D01*
X356338Y23998D01*
X356244Y24083D01*
X356153Y24170D01*
X356065Y24261D01*
X355979Y24354D01*
X355897Y24450D01*
X355818Y24548D01*
X355741Y24649D01*
X355668Y24752D01*
X355599Y24857D01*
X355533Y24965D01*
X355470Y25074D01*
X355410Y25186D01*
X355354Y25299D01*
X355302Y25414D01*
X355254Y25530D01*
X355209Y25649D01*
X355168Y25768D01*
X355130Y25889D01*
X355097Y26010D01*
X355067Y26133D01*
X355042Y26257D01*
X355020Y26381D01*
X355002Y26506D01*
X354988Y26632D01*
X354978Y26758D01*
X354972Y26884D01*
X354970Y27010D01*
D13*
X349077Y43562D02*
X340601Y43562D01*
X340601Y45917D01*
X340603Y46013D01*
X340609Y46109D01*
X340619Y46204D01*
X340632Y46299D01*
X340650Y46394D01*
X340671Y46488D01*
X340696Y46580D01*
X340725Y46672D01*
X340758Y46762D01*
X340794Y46851D01*
X340834Y46938D01*
X340878Y47024D01*
X340924Y47108D01*
X340975Y47190D01*
X341028Y47269D01*
X341085Y47347D01*
X341145Y47422D01*
X341208Y47495D01*
X341274Y47564D01*
X341342Y47632D01*
X341413Y47696D01*
X341487Y47757D01*
X341564Y47816D01*
X341642Y47871D01*
X341723Y47923D01*
X341806Y47971D01*
X341891Y48017D01*
X341977Y48058D01*
X342065Y48096D01*
X342155Y48131D01*
X342246Y48162D01*
X342338Y48189D01*
X342431Y48212D01*
X342525Y48231D01*
X342620Y48247D01*
X342715Y48259D01*
X342811Y48267D01*
X342907Y48271D01*
X343003Y48271D01*
X343099Y48267D01*
X343195Y48259D01*
X343290Y48247D01*
X343385Y48231D01*
X343479Y48212D01*
X343572Y48189D01*
X343664Y48162D01*
X343755Y48131D01*
X343845Y48096D01*
X343933Y48058D01*
X344019Y48017D01*
X344104Y47971D01*
X344187Y47923D01*
X344268Y47871D01*
X344346Y47816D01*
X344423Y47757D01*
X344497Y47696D01*
X344568Y47632D01*
X344636Y47564D01*
X344702Y47495D01*
X344765Y47422D01*
X344825Y47347D01*
X344882Y47269D01*
X344935Y47190D01*
X344986Y47108D01*
X345032Y47024D01*
X345076Y46938D01*
X345116Y46851D01*
X345152Y46762D01*
X345185Y46672D01*
X345214Y46580D01*
X345239Y46488D01*
X345260Y46394D01*
X345278Y46299D01*
X345291Y46204D01*
X345301Y46109D01*
X345307Y46013D01*
X345309Y45917D01*
X345310Y45917D02*
X345310Y43562D01*
X349077Y54594D02*
X349075Y54678D01*
X349069Y54763D01*
X349060Y54847D01*
X349047Y54930D01*
X349030Y55013D01*
X349009Y55095D01*
X348985Y55176D01*
X348957Y55256D01*
X348925Y55334D01*
X348890Y55411D01*
X348852Y55487D01*
X348810Y55560D01*
X348765Y55632D01*
X348717Y55701D01*
X348666Y55769D01*
X348612Y55834D01*
X348555Y55896D01*
X348495Y55956D01*
X348433Y56013D01*
X348368Y56067D01*
X348300Y56118D01*
X348231Y56166D01*
X348159Y56211D01*
X348086Y56253D01*
X348010Y56291D01*
X347933Y56326D01*
X347855Y56358D01*
X347775Y56386D01*
X347694Y56410D01*
X347612Y56431D01*
X347529Y56448D01*
X347446Y56461D01*
X347362Y56470D01*
X347278Y56476D01*
X347193Y56478D01*
X349077Y54594D02*
X349075Y54473D01*
X349070Y54352D01*
X349060Y54232D01*
X349048Y54112D01*
X349031Y53992D01*
X349011Y53873D01*
X348987Y53754D01*
X348960Y53637D01*
X348929Y53520D01*
X348895Y53404D01*
X348857Y53289D01*
X348816Y53176D01*
X348771Y53064D01*
X348723Y52953D01*
X348671Y52844D01*
X348616Y52736D01*
X348558Y52630D01*
X348497Y52526D01*
X348433Y52423D01*
X348365Y52323D01*
X348295Y52225D01*
X348222Y52129D01*
X348145Y52035D01*
X348066Y51944D01*
X347984Y51855D01*
X347900Y51769D01*
X342485Y52004D02*
X342400Y52006D01*
X342316Y52012D01*
X342232Y52021D01*
X342149Y52034D01*
X342066Y52051D01*
X341984Y52072D01*
X341903Y52096D01*
X341823Y52124D01*
X341745Y52156D01*
X341668Y52191D01*
X341592Y52229D01*
X341519Y52271D01*
X341447Y52316D01*
X341378Y52364D01*
X341310Y52415D01*
X341245Y52469D01*
X341183Y52526D01*
X341123Y52586D01*
X341066Y52648D01*
X341012Y52713D01*
X340961Y52781D01*
X340913Y52850D01*
X340868Y52922D01*
X340826Y52995D01*
X340788Y53071D01*
X340753Y53148D01*
X340721Y53226D01*
X340693Y53306D01*
X340669Y53387D01*
X340648Y53469D01*
X340631Y53552D01*
X340618Y53635D01*
X340609Y53719D01*
X340603Y53803D01*
X340601Y53888D01*
X340603Y54002D01*
X340608Y54115D01*
X340617Y54228D01*
X340630Y54341D01*
X340647Y54454D01*
X340667Y54566D01*
X340690Y54677D01*
X340717Y54787D01*
X340748Y54897D01*
X340782Y55005D01*
X340820Y55112D01*
X340861Y55218D01*
X340905Y55323D01*
X340953Y55426D01*
X341004Y55527D01*
X341059Y55627D01*
X341116Y55725D01*
X341177Y55821D01*
X341241Y55915D01*
X341307Y56007D01*
X344133Y52946D02*
X344088Y52872D01*
X344039Y52801D01*
X343987Y52732D01*
X343932Y52666D01*
X343874Y52602D01*
X343813Y52540D01*
X343750Y52482D01*
X343684Y52426D01*
X343615Y52374D01*
X343544Y52324D01*
X343471Y52278D01*
X343396Y52235D01*
X343320Y52196D01*
X343241Y52160D01*
X343161Y52127D01*
X343080Y52099D01*
X342997Y52074D01*
X342913Y52053D01*
X342829Y52035D01*
X342743Y52022D01*
X342657Y52012D01*
X342571Y52006D01*
X342485Y52004D01*
X345545Y55536D02*
X345590Y55610D01*
X345639Y55681D01*
X345691Y55750D01*
X345746Y55816D01*
X345804Y55880D01*
X345865Y55942D01*
X345928Y56000D01*
X345994Y56056D01*
X346063Y56109D01*
X346134Y56158D01*
X346207Y56204D01*
X346282Y56247D01*
X346358Y56286D01*
X346437Y56322D01*
X346517Y56355D01*
X346599Y56383D01*
X346681Y56408D01*
X346765Y56429D01*
X346849Y56447D01*
X346935Y56460D01*
X347021Y56470D01*
X347107Y56476D01*
X347193Y56478D01*
X345545Y55536D02*
X344133Y52946D01*
X342955Y60469D02*
X346723Y60469D01*
X342955Y60469D02*
X342859Y60471D01*
X342763Y60477D01*
X342668Y60487D01*
X342573Y60500D01*
X342478Y60518D01*
X342384Y60539D01*
X342292Y60564D01*
X342200Y60593D01*
X342110Y60626D01*
X342021Y60662D01*
X341934Y60702D01*
X341848Y60746D01*
X341764Y60792D01*
X341682Y60843D01*
X341603Y60896D01*
X341525Y60953D01*
X341450Y61013D01*
X341377Y61076D01*
X341308Y61142D01*
X341240Y61210D01*
X341176Y61281D01*
X341115Y61355D01*
X341056Y61432D01*
X341001Y61510D01*
X340949Y61591D01*
X340901Y61674D01*
X340855Y61759D01*
X340814Y61845D01*
X340776Y61933D01*
X340741Y62023D01*
X340710Y62114D01*
X340683Y62206D01*
X340660Y62299D01*
X340641Y62393D01*
X340625Y62488D01*
X340613Y62583D01*
X340605Y62679D01*
X340601Y62775D01*
X340601Y62871D01*
X340605Y62967D01*
X340613Y63063D01*
X340625Y63158D01*
X340641Y63253D01*
X340660Y63347D01*
X340683Y63440D01*
X340710Y63532D01*
X340741Y63623D01*
X340776Y63713D01*
X340814Y63801D01*
X340855Y63887D01*
X340901Y63972D01*
X340949Y64055D01*
X341001Y64136D01*
X341056Y64214D01*
X341115Y64291D01*
X341176Y64365D01*
X341240Y64436D01*
X341308Y64504D01*
X341377Y64570D01*
X341450Y64633D01*
X341525Y64693D01*
X341603Y64750D01*
X341682Y64803D01*
X341764Y64854D01*
X341848Y64900D01*
X341934Y64944D01*
X342021Y64984D01*
X342110Y65020D01*
X342200Y65053D01*
X342292Y65082D01*
X342384Y65107D01*
X342478Y65128D01*
X342573Y65146D01*
X342668Y65159D01*
X342763Y65169D01*
X342859Y65175D01*
X342955Y65177D01*
X342955Y65178D02*
X346723Y65178D01*
X346723Y65177D02*
X346819Y65175D01*
X346915Y65169D01*
X347010Y65159D01*
X347105Y65146D01*
X347200Y65128D01*
X347294Y65107D01*
X347386Y65082D01*
X347478Y65053D01*
X347568Y65020D01*
X347657Y64984D01*
X347744Y64944D01*
X347830Y64900D01*
X347914Y64854D01*
X347996Y64803D01*
X348075Y64750D01*
X348153Y64693D01*
X348228Y64633D01*
X348301Y64570D01*
X348370Y64504D01*
X348438Y64436D01*
X348502Y64365D01*
X348563Y64291D01*
X348622Y64214D01*
X348677Y64136D01*
X348729Y64055D01*
X348777Y63972D01*
X348823Y63887D01*
X348864Y63801D01*
X348902Y63713D01*
X348937Y63623D01*
X348968Y63532D01*
X348995Y63440D01*
X349018Y63347D01*
X349037Y63253D01*
X349053Y63158D01*
X349065Y63063D01*
X349073Y62967D01*
X349077Y62871D01*
X349077Y62775D01*
X349073Y62679D01*
X349065Y62583D01*
X349053Y62488D01*
X349037Y62393D01*
X349018Y62299D01*
X348995Y62206D01*
X348968Y62114D01*
X348937Y62023D01*
X348902Y61933D01*
X348864Y61845D01*
X348823Y61759D01*
X348777Y61674D01*
X348729Y61591D01*
X348677Y61510D01*
X348622Y61432D01*
X348563Y61355D01*
X348502Y61281D01*
X348438Y61210D01*
X348370Y61142D01*
X348301Y61076D01*
X348228Y61013D01*
X348153Y60953D01*
X348075Y60896D01*
X347996Y60843D01*
X347914Y60792D01*
X347830Y60746D01*
X347744Y60702D01*
X347657Y60662D01*
X347568Y60626D01*
X347478Y60593D01*
X347386Y60564D01*
X347294Y60539D01*
X347200Y60518D01*
X347105Y60500D01*
X347010Y60487D01*
X346915Y60477D01*
X346819Y60471D01*
X346723Y60469D01*
X349077Y71314D02*
X349077Y73198D01*
X349077Y71314D02*
X349075Y71229D01*
X349069Y71145D01*
X349060Y71061D01*
X349047Y70978D01*
X349030Y70895D01*
X349009Y70813D01*
X348985Y70732D01*
X348957Y70652D01*
X348925Y70574D01*
X348890Y70497D01*
X348852Y70421D01*
X348810Y70348D01*
X348765Y70276D01*
X348717Y70207D01*
X348666Y70139D01*
X348612Y70074D01*
X348555Y70012D01*
X348495Y69952D01*
X348433Y69895D01*
X348368Y69841D01*
X348300Y69790D01*
X348231Y69742D01*
X348159Y69697D01*
X348086Y69655D01*
X348010Y69617D01*
X347933Y69582D01*
X347855Y69550D01*
X347775Y69522D01*
X347694Y69498D01*
X347612Y69477D01*
X347529Y69460D01*
X347446Y69447D01*
X347362Y69438D01*
X347278Y69432D01*
X347193Y69430D01*
X347193Y69431D02*
X342485Y69431D01*
X342485Y69430D02*
X342400Y69432D01*
X342316Y69438D01*
X342232Y69447D01*
X342149Y69460D01*
X342066Y69477D01*
X341984Y69498D01*
X341903Y69522D01*
X341823Y69550D01*
X341745Y69582D01*
X341668Y69617D01*
X341592Y69655D01*
X341519Y69697D01*
X341447Y69742D01*
X341378Y69790D01*
X341310Y69841D01*
X341245Y69895D01*
X341183Y69952D01*
X341123Y70012D01*
X341066Y70074D01*
X341012Y70139D01*
X340961Y70207D01*
X340913Y70276D01*
X340868Y70348D01*
X340826Y70421D01*
X340788Y70497D01*
X340753Y70574D01*
X340721Y70652D01*
X340693Y70732D01*
X340669Y70813D01*
X340648Y70895D01*
X340631Y70978D01*
X340618Y71061D01*
X340609Y71145D01*
X340603Y71229D01*
X340601Y71314D01*
X340601Y73198D01*
X340601Y78852D02*
X347193Y76969D01*
X347193Y81678D01*
X345310Y80265D02*
X349077Y80265D01*
D14*
X269000Y90000D03*
D11*
X263998Y81316D02*
X263998Y76586D01*
X266100Y76586D01*
X268678Y76586D02*
X270780Y76586D01*
X268678Y76586D02*
X268678Y81316D01*
X270780Y81316D01*
X270255Y79214D02*
X268678Y79214D01*
X273339Y81316D02*
X273339Y76586D01*
X273339Y81316D02*
X274652Y81316D01*
X274723Y81314D01*
X274794Y81308D01*
X274865Y81299D01*
X274934Y81285D01*
X275004Y81268D01*
X275072Y81247D01*
X275138Y81223D01*
X275204Y81195D01*
X275267Y81163D01*
X275329Y81128D01*
X275389Y81090D01*
X275447Y81048D01*
X275503Y81003D01*
X275556Y80956D01*
X275606Y80906D01*
X275653Y80853D01*
X275698Y80797D01*
X275740Y80739D01*
X275778Y80679D01*
X275813Y80617D01*
X275845Y80554D01*
X275873Y80488D01*
X275897Y80422D01*
X275918Y80354D01*
X275935Y80284D01*
X275949Y80215D01*
X275958Y80144D01*
X275964Y80073D01*
X275966Y80002D01*
X275966Y77900D01*
X275964Y77829D01*
X275958Y77758D01*
X275949Y77687D01*
X275935Y77618D01*
X275918Y77548D01*
X275897Y77480D01*
X275873Y77414D01*
X275845Y77348D01*
X275813Y77285D01*
X275778Y77223D01*
X275740Y77163D01*
X275698Y77105D01*
X275653Y77049D01*
X275606Y76996D01*
X275556Y76946D01*
X275503Y76899D01*
X275447Y76854D01*
X275389Y76812D01*
X275329Y76774D01*
X275267Y76739D01*
X275204Y76707D01*
X275138Y76679D01*
X275072Y76655D01*
X275004Y76634D01*
X274934Y76617D01*
X274865Y76603D01*
X274794Y76594D01*
X274723Y76588D01*
X274652Y76586D01*
X273339Y76586D01*
X250948Y66745D02*
X250948Y61919D01*
X250948Y66745D02*
X252289Y66745D01*
X252360Y66743D01*
X252432Y66737D01*
X252502Y66728D01*
X252572Y66715D01*
X252642Y66698D01*
X252710Y66677D01*
X252777Y66653D01*
X252843Y66625D01*
X252907Y66594D01*
X252970Y66559D01*
X253030Y66521D01*
X253089Y66480D01*
X253145Y66436D01*
X253199Y66389D01*
X253250Y66340D01*
X253298Y66287D01*
X253344Y66232D01*
X253386Y66175D01*
X253426Y66115D01*
X253462Y66054D01*
X253495Y65990D01*
X253524Y65925D01*
X253550Y65859D01*
X253573Y65791D01*
X253592Y65722D01*
X253607Y65652D01*
X253618Y65582D01*
X253626Y65511D01*
X253630Y65440D01*
X253630Y65368D01*
X253626Y65297D01*
X253618Y65226D01*
X253607Y65156D01*
X253592Y65086D01*
X253573Y65017D01*
X253550Y64949D01*
X253524Y64883D01*
X253495Y64818D01*
X253462Y64754D01*
X253426Y64693D01*
X253386Y64633D01*
X253344Y64576D01*
X253298Y64521D01*
X253250Y64468D01*
X253199Y64419D01*
X253145Y64372D01*
X253089Y64328D01*
X253030Y64287D01*
X252970Y64249D01*
X252907Y64214D01*
X252843Y64183D01*
X252777Y64155D01*
X252710Y64131D01*
X252642Y64110D01*
X252572Y64093D01*
X252502Y64080D01*
X252432Y64071D01*
X252360Y64065D01*
X252289Y64063D01*
X252289Y64064D02*
X250948Y64064D01*
X252557Y64064D02*
X253629Y61919D01*
X256371Y65673D02*
X257711Y66745D01*
X257711Y61919D01*
X256371Y61919D02*
X259052Y61919D01*
D12*
X286500Y177255D02*
X413500Y177255D01*
X413500Y169635D01*
X286500Y169635D02*
X286500Y177255D01*
X281420Y165825D02*
X281420Y160745D01*
X285230Y163285D01*
X281420Y165825D01*
X57300Y26500D02*
X6500Y26500D01*
X6500Y39200D01*
X6500Y140800D01*
X6500Y153500D01*
X57300Y153500D01*
X44600Y140800D02*
X6500Y140800D01*
X44600Y140800D02*
X44600Y128100D01*
X44600Y102700D01*
X44600Y77300D01*
X44600Y39200D01*
X6500Y39200D01*
X57300Y153500D02*
X82700Y153500D01*
X82700Y140800D01*
X57300Y140800D01*
X57300Y39200D02*
X82700Y39200D01*
X82700Y26500D01*
X57300Y26500D01*
X57300Y153500D01*
X44600Y128100D02*
X19200Y128100D01*
X19200Y102700D02*
X44600Y102700D01*
X44600Y77300D02*
X19200Y77300D01*
X19200Y51900D02*
X44600Y51900D01*
D15*
X161780Y97901D03*
D12*
X154500Y99801D02*
X115500Y99801D01*
X115500Y150199D02*
X154500Y150199D01*
D13*
X139187Y109080D02*
X132711Y109080D01*
X132711Y110879D01*
X132713Y110962D01*
X132719Y111045D01*
X132728Y111128D01*
X132742Y111210D01*
X132759Y111291D01*
X132780Y111371D01*
X132804Y111451D01*
X132832Y111529D01*
X132864Y111606D01*
X132900Y111681D01*
X132938Y111754D01*
X132980Y111826D01*
X133026Y111896D01*
X133074Y111963D01*
X133126Y112028D01*
X133181Y112091D01*
X133238Y112151D01*
X133298Y112208D01*
X133361Y112263D01*
X133426Y112315D01*
X133493Y112363D01*
X133563Y112409D01*
X133635Y112451D01*
X133708Y112489D01*
X133783Y112525D01*
X133860Y112557D01*
X133938Y112585D01*
X134018Y112609D01*
X134098Y112630D01*
X134179Y112647D01*
X134261Y112661D01*
X134344Y112670D01*
X134427Y112676D01*
X134510Y112678D01*
X134593Y112676D01*
X134676Y112670D01*
X134759Y112661D01*
X134841Y112647D01*
X134922Y112630D01*
X135002Y112609D01*
X135082Y112585D01*
X135160Y112557D01*
X135237Y112525D01*
X135312Y112489D01*
X135385Y112451D01*
X135457Y112409D01*
X135527Y112363D01*
X135594Y112315D01*
X135659Y112263D01*
X135722Y112208D01*
X135782Y112151D01*
X135839Y112091D01*
X135894Y112028D01*
X135946Y111963D01*
X135994Y111896D01*
X136040Y111826D01*
X136082Y111754D01*
X136120Y111681D01*
X136156Y111606D01*
X136188Y111529D01*
X136216Y111451D01*
X136240Y111371D01*
X136261Y111291D01*
X136278Y111210D01*
X136292Y111128D01*
X136301Y111045D01*
X136307Y110962D01*
X136309Y110879D01*
X136309Y109080D01*
X136309Y111239D02*
X139187Y112678D01*
X139187Y118121D02*
X139185Y118196D01*
X139179Y118271D01*
X139169Y118346D01*
X139156Y118420D01*
X139138Y118493D01*
X139117Y118566D01*
X139091Y118637D01*
X139063Y118706D01*
X139030Y118774D01*
X138994Y118841D01*
X138955Y118905D01*
X138912Y118967D01*
X138866Y119027D01*
X138817Y119084D01*
X138766Y119139D01*
X138711Y119190D01*
X138654Y119239D01*
X138594Y119285D01*
X138532Y119328D01*
X138468Y119367D01*
X138401Y119403D01*
X138333Y119436D01*
X138264Y119464D01*
X138193Y119490D01*
X138120Y119511D01*
X138047Y119529D01*
X137973Y119542D01*
X137898Y119552D01*
X137823Y119558D01*
X137748Y119560D01*
X139187Y118121D02*
X139185Y118012D01*
X139179Y117903D01*
X139169Y117794D01*
X139156Y117686D01*
X139138Y117578D01*
X139117Y117471D01*
X139092Y117365D01*
X139063Y117260D01*
X139030Y117156D01*
X138993Y117053D01*
X138953Y116952D01*
X138909Y116852D01*
X138862Y116754D01*
X138811Y116657D01*
X138757Y116562D01*
X138699Y116470D01*
X138639Y116379D01*
X138574Y116291D01*
X138507Y116205D01*
X138437Y116122D01*
X138364Y116041D01*
X138288Y115962D01*
X134150Y116142D02*
X134075Y116144D01*
X134000Y116150D01*
X133925Y116160D01*
X133851Y116173D01*
X133778Y116191D01*
X133705Y116212D01*
X133634Y116238D01*
X133565Y116266D01*
X133497Y116299D01*
X133431Y116335D01*
X133366Y116374D01*
X133304Y116417D01*
X133244Y116463D01*
X133187Y116512D01*
X133132Y116563D01*
X133081Y116618D01*
X133032Y116675D01*
X132986Y116735D01*
X132943Y116797D01*
X132904Y116862D01*
X132868Y116928D01*
X132835Y116996D01*
X132807Y117065D01*
X132781Y117136D01*
X132760Y117209D01*
X132742Y117282D01*
X132729Y117356D01*
X132719Y117431D01*
X132713Y117506D01*
X132711Y117581D01*
X132713Y117683D01*
X132719Y117785D01*
X132728Y117887D01*
X132742Y117988D01*
X132759Y118089D01*
X132780Y118189D01*
X132805Y118288D01*
X132834Y118386D01*
X132866Y118483D01*
X132902Y118578D01*
X132942Y118672D01*
X132985Y118765D01*
X133031Y118856D01*
X133081Y118945D01*
X133134Y119032D01*
X133191Y119117D01*
X133251Y119200D01*
X135410Y116861D02*
X135369Y116796D01*
X135326Y116734D01*
X135279Y116674D01*
X135229Y116617D01*
X135177Y116562D01*
X135121Y116510D01*
X135063Y116462D01*
X135003Y116416D01*
X134940Y116373D01*
X134875Y116334D01*
X134809Y116298D01*
X134740Y116265D01*
X134670Y116236D01*
X134598Y116211D01*
X134525Y116190D01*
X134451Y116172D01*
X134377Y116159D01*
X134302Y116149D01*
X134226Y116143D01*
X134150Y116141D01*
X136488Y118840D02*
X136529Y118905D01*
X136572Y118967D01*
X136619Y119027D01*
X136669Y119084D01*
X136721Y119139D01*
X136777Y119191D01*
X136835Y119240D01*
X136895Y119285D01*
X136958Y119328D01*
X137023Y119367D01*
X137090Y119403D01*
X137158Y119436D01*
X137228Y119465D01*
X137300Y119490D01*
X137373Y119511D01*
X137447Y119529D01*
X137521Y119542D01*
X137596Y119552D01*
X137672Y119558D01*
X137748Y119560D01*
X136489Y118840D02*
X135409Y116861D01*
X137748Y122922D02*
X132711Y124361D01*
X137748Y122922D02*
X137748Y126520D01*
X136309Y125440D02*
X139187Y125440D01*
X137388Y130122D02*
X137305Y130124D01*
X137222Y130130D01*
X137139Y130139D01*
X137057Y130153D01*
X136976Y130170D01*
X136896Y130191D01*
X136816Y130215D01*
X136738Y130243D01*
X136661Y130275D01*
X136586Y130311D01*
X136513Y130349D01*
X136441Y130391D01*
X136371Y130437D01*
X136304Y130485D01*
X136239Y130537D01*
X136176Y130592D01*
X136116Y130649D01*
X136059Y130709D01*
X136004Y130772D01*
X135952Y130837D01*
X135904Y130904D01*
X135858Y130974D01*
X135816Y131046D01*
X135778Y131119D01*
X135742Y131194D01*
X135710Y131271D01*
X135682Y131349D01*
X135658Y131429D01*
X135637Y131509D01*
X135620Y131590D01*
X135606Y131672D01*
X135597Y131755D01*
X135591Y131838D01*
X135589Y131921D01*
X135591Y132004D01*
X135597Y132087D01*
X135606Y132170D01*
X135620Y132252D01*
X135637Y132333D01*
X135658Y132413D01*
X135682Y132493D01*
X135710Y132571D01*
X135742Y132648D01*
X135778Y132723D01*
X135816Y132796D01*
X135858Y132868D01*
X135904Y132938D01*
X135952Y133005D01*
X136004Y133070D01*
X136059Y133133D01*
X136116Y133193D01*
X136176Y133250D01*
X136239Y133305D01*
X136304Y133357D01*
X136371Y133405D01*
X136441Y133451D01*
X136513Y133493D01*
X136586Y133531D01*
X136661Y133567D01*
X136738Y133599D01*
X136816Y133627D01*
X136896Y133651D01*
X136976Y133672D01*
X137057Y133689D01*
X137139Y133703D01*
X137222Y133712D01*
X137305Y133718D01*
X137388Y133720D01*
X137471Y133718D01*
X137554Y133712D01*
X137637Y133703D01*
X137719Y133689D01*
X137800Y133672D01*
X137880Y133651D01*
X137960Y133627D01*
X138038Y133599D01*
X138115Y133567D01*
X138190Y133531D01*
X138263Y133493D01*
X138335Y133451D01*
X138405Y133405D01*
X138472Y133357D01*
X138537Y133305D01*
X138600Y133250D01*
X138660Y133193D01*
X138717Y133133D01*
X138772Y133070D01*
X138824Y133005D01*
X138872Y132938D01*
X138918Y132868D01*
X138960Y132796D01*
X138998Y132723D01*
X139034Y132648D01*
X139066Y132571D01*
X139094Y132493D01*
X139118Y132413D01*
X139139Y132333D01*
X139156Y132252D01*
X139170Y132170D01*
X139179Y132087D01*
X139185Y132004D01*
X139187Y131921D01*
X139185Y131838D01*
X139179Y131755D01*
X139170Y131672D01*
X139156Y131590D01*
X139139Y131509D01*
X139118Y131429D01*
X139094Y131349D01*
X139066Y131271D01*
X139034Y131194D01*
X138998Y131119D01*
X138960Y131046D01*
X138918Y130974D01*
X138872Y130904D01*
X138824Y130837D01*
X138772Y130772D01*
X138717Y130709D01*
X138660Y130649D01*
X138600Y130592D01*
X138537Y130537D01*
X138472Y130485D01*
X138405Y130437D01*
X138335Y130391D01*
X138263Y130349D01*
X138190Y130311D01*
X138115Y130275D01*
X138038Y130243D01*
X137960Y130215D01*
X137880Y130191D01*
X137800Y130170D01*
X137719Y130153D01*
X137637Y130139D01*
X137554Y130130D01*
X137471Y130124D01*
X137388Y130122D01*
X134150Y130482D02*
X134075Y130484D01*
X134000Y130490D01*
X133925Y130500D01*
X133851Y130513D01*
X133778Y130531D01*
X133705Y130552D01*
X133634Y130578D01*
X133565Y130606D01*
X133497Y130639D01*
X133431Y130675D01*
X133366Y130714D01*
X133304Y130757D01*
X133244Y130803D01*
X133187Y130852D01*
X133132Y130903D01*
X133081Y130958D01*
X133032Y131015D01*
X132986Y131075D01*
X132943Y131137D01*
X132904Y131202D01*
X132868Y131268D01*
X132835Y131336D01*
X132807Y131405D01*
X132781Y131476D01*
X132760Y131549D01*
X132742Y131622D01*
X132729Y131696D01*
X132719Y131771D01*
X132713Y131846D01*
X132711Y131921D01*
X132713Y131996D01*
X132719Y132071D01*
X132729Y132146D01*
X132742Y132220D01*
X132760Y132293D01*
X132781Y132366D01*
X132807Y132437D01*
X132835Y132506D01*
X132868Y132574D01*
X132904Y132641D01*
X132943Y132705D01*
X132986Y132767D01*
X133032Y132827D01*
X133081Y132884D01*
X133132Y132939D01*
X133187Y132990D01*
X133244Y133039D01*
X133304Y133085D01*
X133366Y133128D01*
X133431Y133167D01*
X133497Y133203D01*
X133565Y133236D01*
X133634Y133264D01*
X133705Y133290D01*
X133778Y133311D01*
X133851Y133329D01*
X133925Y133342D01*
X134000Y133352D01*
X134075Y133358D01*
X134150Y133360D01*
X134225Y133358D01*
X134300Y133352D01*
X134375Y133342D01*
X134449Y133329D01*
X134522Y133311D01*
X134595Y133290D01*
X134666Y133264D01*
X134735Y133236D01*
X134803Y133203D01*
X134869Y133167D01*
X134934Y133128D01*
X134996Y133085D01*
X135056Y133039D01*
X135113Y132990D01*
X135168Y132939D01*
X135219Y132884D01*
X135268Y132827D01*
X135314Y132767D01*
X135357Y132705D01*
X135396Y132641D01*
X135432Y132574D01*
X135465Y132506D01*
X135493Y132437D01*
X135519Y132366D01*
X135540Y132293D01*
X135558Y132220D01*
X135571Y132146D01*
X135581Y132071D01*
X135587Y131996D01*
X135589Y131921D01*
X135587Y131846D01*
X135581Y131771D01*
X135571Y131696D01*
X135558Y131622D01*
X135540Y131549D01*
X135519Y131476D01*
X135493Y131405D01*
X135465Y131336D01*
X135432Y131268D01*
X135396Y131202D01*
X135357Y131137D01*
X135314Y131075D01*
X135268Y131015D01*
X135219Y130958D01*
X135168Y130903D01*
X135113Y130852D01*
X135056Y130803D01*
X134996Y130757D01*
X134934Y130714D01*
X134870Y130675D01*
X134803Y130639D01*
X134735Y130606D01*
X134666Y130578D01*
X134595Y130552D01*
X134522Y130531D01*
X134449Y130513D01*
X134375Y130500D01*
X134300Y130490D01*
X134225Y130484D01*
X134150Y130482D01*
X139187Y137322D02*
X139187Y139481D01*
X139185Y139556D01*
X139179Y139631D01*
X139169Y139706D01*
X139156Y139780D01*
X139138Y139853D01*
X139117Y139926D01*
X139091Y139997D01*
X139063Y140066D01*
X139030Y140134D01*
X138994Y140201D01*
X138955Y140265D01*
X138912Y140327D01*
X138866Y140387D01*
X138817Y140444D01*
X138766Y140499D01*
X138711Y140550D01*
X138654Y140599D01*
X138594Y140645D01*
X138532Y140688D01*
X138468Y140727D01*
X138401Y140763D01*
X138333Y140796D01*
X138264Y140824D01*
X138193Y140850D01*
X138120Y140871D01*
X138047Y140889D01*
X137973Y140902D01*
X137898Y140912D01*
X137823Y140918D01*
X137748Y140920D01*
X137028Y140920D01*
X136953Y140918D01*
X136878Y140912D01*
X136803Y140902D01*
X136729Y140889D01*
X136656Y140871D01*
X136583Y140850D01*
X136512Y140824D01*
X136443Y140796D01*
X136375Y140763D01*
X136309Y140727D01*
X136244Y140688D01*
X136182Y140645D01*
X136122Y140599D01*
X136065Y140550D01*
X136010Y140499D01*
X135959Y140444D01*
X135910Y140387D01*
X135864Y140327D01*
X135821Y140265D01*
X135782Y140201D01*
X135746Y140134D01*
X135713Y140066D01*
X135685Y139997D01*
X135659Y139926D01*
X135638Y139853D01*
X135620Y139780D01*
X135607Y139706D01*
X135597Y139631D01*
X135591Y139556D01*
X135589Y139481D01*
X135589Y137322D01*
X132711Y137322D01*
X132711Y140920D01*
D12*
X125000Y29000D02*
X145000Y29000D01*
X145000Y11000D02*
X125000Y11000D01*
X133000Y19000D02*
X133000Y21000D01*
X133000Y19000D02*
X136000Y20000D01*
X133000Y21000D01*
X139000Y22000D02*
X139000Y18000D01*
X158500Y72000D02*
X111500Y72000D01*
X111500Y60080D01*
X111500Y49920D02*
X111500Y38000D01*
X158500Y38000D01*
X111500Y49920D02*
X111641Y49922D01*
X111782Y49928D01*
X111923Y49938D01*
X112064Y49951D01*
X112204Y49969D01*
X112343Y49991D01*
X112482Y50016D01*
X112621Y50045D01*
X112758Y50078D01*
X112894Y50115D01*
X113029Y50156D01*
X113164Y50200D01*
X113296Y50248D01*
X113428Y50300D01*
X113558Y50355D01*
X113686Y50414D01*
X113813Y50477D01*
X113937Y50543D01*
X114060Y50612D01*
X114181Y50685D01*
X114300Y50761D01*
X114417Y50841D01*
X114531Y50924D01*
X114644Y51009D01*
X114753Y51098D01*
X114861Y51190D01*
X114965Y51285D01*
X115067Y51383D01*
X115166Y51484D01*
X115263Y51587D01*
X115356Y51693D01*
X115446Y51801D01*
X115534Y51912D01*
X115618Y52025D01*
X115699Y52141D01*
X115777Y52259D01*
X115852Y52379D01*
X115923Y52501D01*
X115991Y52625D01*
X116055Y52751D01*
X116116Y52878D01*
X116173Y53007D01*
X116226Y53138D01*
X116276Y53270D01*
X116323Y53403D01*
X116365Y53538D01*
X116404Y53674D01*
X116439Y53811D01*
X116470Y53948D01*
X116497Y54087D01*
X116521Y54226D01*
X116540Y54366D01*
X116556Y54506D01*
X116568Y54647D01*
X116576Y54788D01*
X116580Y54929D01*
X116580Y55071D01*
X116576Y55212D01*
X116568Y55353D01*
X116556Y55494D01*
X116540Y55634D01*
X116521Y55774D01*
X116497Y55913D01*
X116470Y56052D01*
X116439Y56189D01*
X116404Y56326D01*
X116365Y56462D01*
X116323Y56597D01*
X116276Y56730D01*
X116226Y56862D01*
X116173Y56993D01*
X116116Y57122D01*
X116055Y57249D01*
X115991Y57375D01*
X115923Y57499D01*
X115852Y57621D01*
X115777Y57741D01*
X115699Y57859D01*
X115618Y57975D01*
X115534Y58088D01*
X115446Y58199D01*
X115356Y58307D01*
X115263Y58413D01*
X115166Y58516D01*
X115067Y58617D01*
X114965Y58715D01*
X114861Y58810D01*
X114753Y58902D01*
X114644Y58991D01*
X114531Y59076D01*
X114417Y59159D01*
X114300Y59239D01*
X114181Y59315D01*
X114060Y59388D01*
X113937Y59457D01*
X113813Y59523D01*
X113686Y59586D01*
X113558Y59645D01*
X113428Y59700D01*
X113296Y59752D01*
X113164Y59800D01*
X113029Y59844D01*
X112894Y59885D01*
X112758Y59922D01*
X112621Y59955D01*
X112482Y59984D01*
X112343Y60009D01*
X112204Y60031D01*
X112064Y60049D01*
X111923Y60062D01*
X111782Y60072D01*
X111641Y60078D01*
X111500Y60080D01*
X158500Y60080D02*
X158359Y60078D01*
X158218Y60072D01*
X158077Y60062D01*
X157936Y60049D01*
X157796Y60031D01*
X157657Y60009D01*
X157518Y59984D01*
X157379Y59955D01*
X157242Y59922D01*
X157106Y59885D01*
X156971Y59844D01*
X156836Y59800D01*
X156704Y59752D01*
X156572Y59700D01*
X156442Y59645D01*
X156314Y59586D01*
X156187Y59523D01*
X156063Y59457D01*
X155940Y59388D01*
X155819Y59315D01*
X155700Y59239D01*
X155583Y59159D01*
X155469Y59076D01*
X155356Y58991D01*
X155247Y58902D01*
X155139Y58810D01*
X155035Y58715D01*
X154933Y58617D01*
X154834Y58516D01*
X154737Y58413D01*
X154644Y58307D01*
X154554Y58199D01*
X154466Y58088D01*
X154382Y57975D01*
X154301Y57859D01*
X154223Y57741D01*
X154148Y57621D01*
X154077Y57499D01*
X154009Y57375D01*
X153945Y57249D01*
X153884Y57122D01*
X153827Y56993D01*
X153774Y56862D01*
X153724Y56730D01*
X153677Y56597D01*
X153635Y56462D01*
X153596Y56326D01*
X153561Y56189D01*
X153530Y56052D01*
X153503Y55913D01*
X153479Y55774D01*
X153460Y55634D01*
X153444Y55494D01*
X153432Y55353D01*
X153424Y55212D01*
X153420Y55071D01*
X153420Y54929D01*
X153424Y54788D01*
X153432Y54647D01*
X153444Y54506D01*
X153460Y54366D01*
X153479Y54226D01*
X153503Y54087D01*
X153530Y53948D01*
X153561Y53811D01*
X153596Y53674D01*
X153635Y53538D01*
X153677Y53403D01*
X153724Y53270D01*
X153774Y53138D01*
X153827Y53007D01*
X153884Y52878D01*
X153945Y52751D01*
X154009Y52625D01*
X154077Y52501D01*
X154148Y52379D01*
X154223Y52259D01*
X154301Y52141D01*
X154382Y52025D01*
X154466Y51912D01*
X154554Y51801D01*
X154644Y51693D01*
X154737Y51587D01*
X154834Y51484D01*
X154933Y51383D01*
X155035Y51285D01*
X155139Y51190D01*
X155247Y51098D01*
X155356Y51009D01*
X155469Y50924D01*
X155583Y50841D01*
X155700Y50761D01*
X155819Y50685D01*
X155940Y50612D01*
X156063Y50543D01*
X156187Y50477D01*
X156314Y50414D01*
X156442Y50355D01*
X156572Y50300D01*
X156704Y50248D01*
X156836Y50200D01*
X156971Y50156D01*
X157106Y50115D01*
X157242Y50078D01*
X157379Y50045D01*
X157518Y50016D01*
X157657Y49991D01*
X157796Y49969D01*
X157936Y49951D01*
X158077Y49938D01*
X158218Y49928D01*
X158359Y49922D01*
X158500Y49920D01*
X158500Y38000D01*
X158500Y60080D02*
X158500Y71510D01*
D11*
X130467Y56445D02*
X130467Y50215D01*
X130467Y56445D02*
X133236Y56445D01*
X133236Y53676D02*
X130467Y53676D01*
X136072Y55061D02*
X137802Y56445D01*
X137802Y50215D01*
X136072Y50215D02*
X139533Y50215D01*
M02*
