G04 EAGLE Gerber RS-274X export*
G75*
%MOMM*%
%FSLAX34Y34*%
%LPD*%
%INSilk bottom*%
%IPPOS*%
%AMOC8*
5,1,8,0,0,1.08239X$1,22.5*%
G01*
%ADD10C,0.001000*%
%ADD11C,0.203200*%


D10*
X3490000Y180000D02*
X10000Y180000D01*
X8978Y179948D01*
X7985Y179797D01*
X7026Y179550D01*
X6108Y179214D01*
X5233Y178793D01*
X4409Y178292D01*
X3639Y177717D01*
X2929Y177071D01*
X2284Y176361D01*
X1708Y175591D01*
X1207Y174767D01*
X786Y173893D01*
X450Y172974D01*
X203Y172015D01*
X52Y171022D01*
X0Y170000D01*
X0Y10000D01*
X52Y8978D01*
X203Y7985D01*
X450Y7026D01*
X786Y6108D01*
X1207Y5233D01*
X1708Y4409D01*
X2284Y3639D01*
X2929Y2929D01*
X3639Y2284D01*
X4409Y1708D01*
X5233Y1207D01*
X6108Y786D01*
X7026Y450D01*
X7985Y203D01*
X8978Y52D01*
X10000Y0D01*
X3490000Y0D01*
X3491022Y52D01*
X3492015Y203D01*
X3492974Y450D01*
X3493893Y786D01*
X3494767Y1207D01*
X3495591Y1708D01*
X3496361Y2284D01*
X3497071Y2929D01*
X3497717Y3639D01*
X3498292Y4409D01*
X3498793Y5233D01*
X3499214Y6108D01*
X3499550Y7026D01*
X3499797Y7985D01*
X3499948Y8978D01*
X3500000Y10000D01*
X3500000Y170000D01*
X3499948Y171022D01*
X3499797Y172015D01*
X3499550Y172974D01*
X3499214Y173893D01*
X3498793Y174767D01*
X3498292Y175591D01*
X3497717Y176361D01*
X3497071Y177071D01*
X3496361Y177717D01*
X3495591Y178292D01*
X3494767Y178793D01*
X3493893Y179214D01*
X3492974Y179550D01*
X3492015Y179797D01*
X3491022Y179948D01*
X3490000Y180000D01*
D11*
X38984Y37615D02*
X31016Y40271D01*
X38984Y42927D01*
X38984Y47471D02*
X31016Y47471D01*
X31016Y46586D02*
X31016Y48357D01*
X38984Y48357D02*
X38984Y46586D01*
X38984Y52758D02*
X31016Y52758D01*
X31016Y57185D02*
X38984Y52758D01*
X38984Y57185D02*
X31016Y57185D01*
X35443Y72194D02*
X35443Y74407D01*
X35442Y74407D02*
X35440Y74500D01*
X35434Y74592D01*
X35425Y74684D01*
X35411Y74776D01*
X35394Y74867D01*
X35372Y74957D01*
X35348Y75047D01*
X35319Y75135D01*
X35287Y75222D01*
X35251Y75307D01*
X35211Y75391D01*
X35168Y75473D01*
X35122Y75553D01*
X35072Y75632D01*
X35019Y75708D01*
X34963Y75782D01*
X34904Y75853D01*
X34842Y75922D01*
X34777Y75988D01*
X34710Y76052D01*
X34640Y76112D01*
X34567Y76170D01*
X34492Y76224D01*
X34415Y76275D01*
X34336Y76324D01*
X34254Y76368D01*
X34171Y76409D01*
X34087Y76447D01*
X34000Y76481D01*
X33913Y76512D01*
X33824Y76538D01*
X33734Y76562D01*
X33644Y76581D01*
X33552Y76596D01*
X33460Y76608D01*
X33368Y76616D01*
X33275Y76620D01*
X33183Y76620D01*
X33090Y76616D01*
X32998Y76608D01*
X32906Y76596D01*
X32814Y76581D01*
X32724Y76562D01*
X32634Y76538D01*
X32545Y76512D01*
X32458Y76481D01*
X32371Y76447D01*
X32287Y76409D01*
X32204Y76368D01*
X32123Y76324D01*
X32043Y76275D01*
X31966Y76224D01*
X31891Y76170D01*
X31818Y76112D01*
X31748Y76052D01*
X31681Y75988D01*
X31616Y75922D01*
X31554Y75853D01*
X31495Y75782D01*
X31439Y75708D01*
X31386Y75632D01*
X31336Y75553D01*
X31290Y75473D01*
X31247Y75391D01*
X31207Y75307D01*
X31171Y75222D01*
X31139Y75135D01*
X31110Y75047D01*
X31086Y74957D01*
X31064Y74867D01*
X31047Y74776D01*
X31033Y74684D01*
X31024Y74592D01*
X31018Y74500D01*
X31016Y74407D01*
X31016Y72194D01*
X38984Y72194D01*
X38984Y74407D01*
X38982Y74490D01*
X38976Y74573D01*
X38967Y74655D01*
X38953Y74737D01*
X38936Y74818D01*
X38914Y74899D01*
X38889Y74978D01*
X38861Y75056D01*
X38829Y75132D01*
X38793Y75207D01*
X38754Y75280D01*
X38711Y75352D01*
X38665Y75421D01*
X38616Y75488D01*
X38564Y75552D01*
X38509Y75614D01*
X38451Y75674D01*
X38390Y75730D01*
X38326Y75784D01*
X38261Y75835D01*
X38193Y75882D01*
X38122Y75927D01*
X38050Y75968D01*
X37976Y76005D01*
X37900Y76039D01*
X37823Y76070D01*
X37744Y76096D01*
X37665Y76119D01*
X37584Y76139D01*
X37502Y76154D01*
X37420Y76166D01*
X37337Y76174D01*
X37255Y76178D01*
X37171Y76178D01*
X37089Y76174D01*
X37006Y76166D01*
X36924Y76154D01*
X36842Y76139D01*
X36761Y76119D01*
X36682Y76096D01*
X36603Y76070D01*
X36526Y76039D01*
X36450Y76005D01*
X36376Y75968D01*
X36304Y75927D01*
X36233Y75882D01*
X36165Y75835D01*
X36100Y75784D01*
X36036Y75730D01*
X35975Y75674D01*
X35917Y75614D01*
X35862Y75552D01*
X35810Y75488D01*
X35761Y75421D01*
X35715Y75352D01*
X35672Y75280D01*
X35633Y75207D01*
X35597Y75132D01*
X35565Y75056D01*
X35537Y74978D01*
X35512Y74899D01*
X35490Y74818D01*
X35473Y74737D01*
X35459Y74655D01*
X35450Y74573D01*
X35444Y74490D01*
X35442Y74407D01*
X31016Y99415D02*
X38984Y102071D01*
X31016Y104727D01*
X33008Y104063D02*
X33008Y100079D01*
X35443Y121857D02*
X35443Y123185D01*
X31016Y123185D01*
X31016Y120529D01*
X31018Y120447D01*
X31024Y120366D01*
X31033Y120284D01*
X31046Y120204D01*
X31063Y120124D01*
X31084Y120044D01*
X31108Y119966D01*
X31136Y119889D01*
X31167Y119814D01*
X31202Y119740D01*
X31240Y119667D01*
X31281Y119597D01*
X31326Y119528D01*
X31374Y119462D01*
X31425Y119398D01*
X31478Y119336D01*
X31535Y119277D01*
X31594Y119220D01*
X31656Y119167D01*
X31720Y119116D01*
X31786Y119068D01*
X31855Y119023D01*
X31925Y118982D01*
X31998Y118944D01*
X32072Y118909D01*
X32147Y118878D01*
X32224Y118850D01*
X32302Y118826D01*
X32382Y118805D01*
X32462Y118788D01*
X32542Y118775D01*
X32624Y118766D01*
X32705Y118760D01*
X32787Y118758D01*
X37213Y118758D01*
X37295Y118760D01*
X37376Y118766D01*
X37458Y118775D01*
X37538Y118788D01*
X37618Y118805D01*
X37698Y118826D01*
X37776Y118850D01*
X37853Y118878D01*
X37928Y118909D01*
X38002Y118944D01*
X38075Y118982D01*
X38145Y119023D01*
X38214Y119068D01*
X38280Y119116D01*
X38344Y119167D01*
X38406Y119220D01*
X38465Y119277D01*
X38522Y119336D01*
X38575Y119398D01*
X38626Y119462D01*
X38674Y119528D01*
X38719Y119597D01*
X38760Y119667D01*
X38798Y119740D01*
X38833Y119814D01*
X38864Y119889D01*
X38892Y119966D01*
X38916Y120044D01*
X38937Y120124D01*
X38954Y120204D01*
X38967Y120284D01*
X38976Y120366D01*
X38982Y120447D01*
X38984Y120529D01*
X38984Y123185D01*
X38984Y128358D02*
X31016Y128358D01*
X31016Y132785D02*
X38984Y128358D01*
X38984Y132785D02*
X31016Y132785D01*
X31016Y137958D02*
X38984Y137958D01*
X38984Y140171D01*
X38982Y140262D01*
X38976Y140354D01*
X38967Y140445D01*
X38954Y140535D01*
X38937Y140625D01*
X38916Y140714D01*
X38892Y140802D01*
X38864Y140890D01*
X38833Y140975D01*
X38798Y141060D01*
X38759Y141143D01*
X38717Y141224D01*
X38672Y141304D01*
X38624Y141381D01*
X38572Y141457D01*
X38517Y141530D01*
X38460Y141601D01*
X38399Y141670D01*
X38336Y141736D01*
X38270Y141799D01*
X38201Y141860D01*
X38130Y141917D01*
X38057Y141972D01*
X37981Y142024D01*
X37904Y142072D01*
X37824Y142117D01*
X37743Y142159D01*
X37660Y142198D01*
X37575Y142233D01*
X37490Y142264D01*
X37402Y142292D01*
X37314Y142316D01*
X37225Y142337D01*
X37135Y142354D01*
X37045Y142367D01*
X36954Y142376D01*
X36862Y142382D01*
X36771Y142384D01*
X36771Y142385D02*
X33229Y142385D01*
X33229Y142384D02*
X33138Y142382D01*
X33046Y142376D01*
X32955Y142367D01*
X32865Y142354D01*
X32775Y142337D01*
X32686Y142316D01*
X32598Y142292D01*
X32510Y142264D01*
X32425Y142233D01*
X32340Y142198D01*
X32257Y142159D01*
X32176Y142117D01*
X32096Y142072D01*
X32019Y142024D01*
X31943Y141972D01*
X31870Y141917D01*
X31799Y141860D01*
X31730Y141799D01*
X31664Y141736D01*
X31601Y141670D01*
X31540Y141601D01*
X31483Y141530D01*
X31428Y141457D01*
X31376Y141381D01*
X31328Y141304D01*
X31283Y141224D01*
X31241Y141143D01*
X31202Y141060D01*
X31167Y140975D01*
X31136Y140890D01*
X31108Y140802D01*
X31084Y140714D01*
X31063Y140625D01*
X31046Y140535D01*
X31033Y140445D01*
X31024Y140354D01*
X31018Y140262D01*
X31016Y140171D01*
X31016Y137958D01*
M02*
