G04 EAGLE Gerber RS-274X export*
G75*
%MOMM*%
%FSLAX34Y34*%
%LPD*%
%INBottom layer*%
%IPPOS*%
%AMOC8*
5,1,8,0,0,1.08239X$1,22.5*%
G01*
%ADD10C,0.001000*%
%ADD11C,1.350000*%
%ADD12C,2.200000*%
%ADD13C,0.604800*%
%ADD14C,0.200000*%

G36*
X3468150Y17505D02*
X3468150Y17505D01*
X3468200Y17503D01*
X3468372Y17525D01*
X3468545Y17541D01*
X3468593Y17554D01*
X3468643Y17560D01*
X3468808Y17613D01*
X3468976Y17659D01*
X3469021Y17681D01*
X3469068Y17696D01*
X3469222Y17777D01*
X3469378Y17852D01*
X3469419Y17882D01*
X3469463Y17905D01*
X3469600Y18012D01*
X3469740Y18114D01*
X3469775Y18150D01*
X3469814Y18181D01*
X3469930Y18311D01*
X3470050Y18436D01*
X3470077Y18478D01*
X3470111Y18516D01*
X3470201Y18664D01*
X3470297Y18808D01*
X3470317Y18855D01*
X3470343Y18897D01*
X3470405Y19059D01*
X3470474Y19219D01*
X3470485Y19267D01*
X3470503Y19314D01*
X3470536Y19485D01*
X3470575Y19654D01*
X3470578Y19704D01*
X3470587Y19753D01*
X3470599Y20000D01*
X3470599Y160000D01*
X3470596Y160035D01*
X3470597Y160058D01*
X3470596Y160069D01*
X3470597Y160100D01*
X3470575Y160272D01*
X3470559Y160445D01*
X3470546Y160493D01*
X3470540Y160543D01*
X3470487Y160708D01*
X3470441Y160876D01*
X3470419Y160921D01*
X3470404Y160968D01*
X3470323Y161122D01*
X3470248Y161278D01*
X3470218Y161319D01*
X3470195Y161363D01*
X3470088Y161500D01*
X3469986Y161640D01*
X3469950Y161675D01*
X3469919Y161714D01*
X3469789Y161830D01*
X3469664Y161950D01*
X3469622Y161977D01*
X3469584Y162011D01*
X3469436Y162101D01*
X3469292Y162197D01*
X3469246Y162217D01*
X3469203Y162243D01*
X3469041Y162305D01*
X3468881Y162374D01*
X3468833Y162385D01*
X3468786Y162403D01*
X3468615Y162436D01*
X3468446Y162475D01*
X3468396Y162478D01*
X3468347Y162487D01*
X3468100Y162499D01*
X3220000Y162499D01*
X3219911Y162491D01*
X3219823Y162493D01*
X3219690Y162471D01*
X3219555Y162459D01*
X3219469Y162436D01*
X3219382Y162422D01*
X3219254Y162377D01*
X3219124Y162341D01*
X3219044Y162302D01*
X3218960Y162273D01*
X3218741Y162159D01*
X3098741Y92159D01*
X3098723Y92146D01*
X3098703Y92136D01*
X3098541Y92017D01*
X3098377Y91900D01*
X3098361Y91884D01*
X3098343Y91871D01*
X3098205Y91725D01*
X3098064Y91581D01*
X3098052Y91562D01*
X3098037Y91546D01*
X3097926Y91377D01*
X3097814Y91211D01*
X3097805Y91191D01*
X3097793Y91172D01*
X3097714Y90986D01*
X3097633Y90802D01*
X3097628Y90781D01*
X3097619Y90760D01*
X3097575Y90563D01*
X3097528Y90368D01*
X3097527Y90346D01*
X3097522Y90324D01*
X3097514Y90123D01*
X3097502Y89922D01*
X3097505Y89900D01*
X3097504Y89878D01*
X3097531Y89679D01*
X3097556Y89479D01*
X3097562Y89458D01*
X3097565Y89436D01*
X3097628Y89245D01*
X3097688Y89052D01*
X3097698Y89032D01*
X3097705Y89011D01*
X3097801Y88834D01*
X3097893Y88655D01*
X3097907Y88638D01*
X3097917Y88618D01*
X3098043Y88461D01*
X3098166Y88302D01*
X3098183Y88287D01*
X3098197Y88270D01*
X3098349Y88137D01*
X3098498Y88003D01*
X3098517Y87991D01*
X3098533Y87976D01*
X3098741Y87841D01*
X3218741Y17841D01*
X3218821Y17803D01*
X3218897Y17757D01*
X3219023Y17709D01*
X3219145Y17652D01*
X3219231Y17629D01*
X3219314Y17597D01*
X3219447Y17571D01*
X3219577Y17537D01*
X3219665Y17530D01*
X3219753Y17513D01*
X3220000Y17501D01*
X3468100Y17501D01*
X3468150Y17505D01*
G37*
G36*
X495011Y17502D02*
X495011Y17502D01*
X495022Y17501D01*
X495233Y17522D01*
X495445Y17541D01*
X495456Y17544D01*
X495467Y17545D01*
X495670Y17603D01*
X495876Y17659D01*
X495886Y17664D01*
X495896Y17667D01*
X496085Y17760D01*
X496278Y17852D01*
X496287Y17859D01*
X496297Y17864D01*
X496467Y17989D01*
X496640Y18114D01*
X496648Y18122D01*
X496657Y18129D01*
X496803Y18284D01*
X496950Y18436D01*
X496956Y18446D01*
X496963Y18454D01*
X497080Y18632D01*
X497197Y18808D01*
X497201Y18819D01*
X497207Y18828D01*
X497290Y19025D01*
X497374Y19219D01*
X497376Y19229D01*
X497381Y19240D01*
X497427Y19449D01*
X497475Y19654D01*
X497476Y19665D01*
X497478Y19676D01*
X497487Y19888D01*
X497497Y20100D01*
X497496Y20111D01*
X497496Y20122D01*
X497467Y20332D01*
X497440Y20543D01*
X497436Y20553D01*
X497435Y20564D01*
X497369Y20766D01*
X497304Y20968D01*
X497299Y20978D01*
X497295Y20989D01*
X497194Y21176D01*
X497095Y21363D01*
X497088Y21372D01*
X497083Y21382D01*
X496950Y21548D01*
X496819Y21714D01*
X496810Y21722D01*
X496803Y21730D01*
X496643Y21870D01*
X496484Y22011D01*
X496475Y22016D01*
X496467Y22024D01*
X496259Y22159D01*
X379960Y90000D01*
X496259Y157841D01*
X496268Y157848D01*
X496278Y157852D01*
X496451Y157977D01*
X496624Y158100D01*
X496631Y158108D01*
X496640Y158114D01*
X496787Y158267D01*
X496936Y158419D01*
X496942Y158428D01*
X496950Y158436D01*
X497067Y158613D01*
X497186Y158789D01*
X497191Y158799D01*
X497197Y158808D01*
X497281Y159003D01*
X497367Y159198D01*
X497370Y159208D01*
X497374Y159219D01*
X497422Y159425D01*
X497472Y159632D01*
X497473Y159643D01*
X497475Y159654D01*
X497486Y159866D01*
X497498Y160078D01*
X497497Y160089D01*
X497497Y160100D01*
X497470Y160310D01*
X497444Y160521D01*
X497441Y160532D01*
X497440Y160543D01*
X497375Y160745D01*
X497312Y160948D01*
X497307Y160958D01*
X497304Y160968D01*
X497205Y161156D01*
X497107Y161345D01*
X497100Y161353D01*
X497095Y161363D01*
X496964Y161530D01*
X496834Y161698D01*
X496826Y161706D01*
X496819Y161714D01*
X496659Y161856D01*
X496502Y161997D01*
X496493Y162003D01*
X496484Y162011D01*
X496303Y162121D01*
X496123Y162233D01*
X496112Y162237D01*
X496103Y162243D01*
X495904Y162319D01*
X495707Y162397D01*
X495696Y162399D01*
X495686Y162403D01*
X495476Y162443D01*
X495269Y162485D01*
X495258Y162485D01*
X495247Y162487D01*
X495000Y162499D01*
X417380Y162499D01*
X417271Y162490D01*
X417162Y162490D01*
X417049Y162470D01*
X416935Y162459D01*
X416830Y162430D01*
X416723Y162411D01*
X416615Y162371D01*
X416504Y162341D01*
X416406Y162294D01*
X416304Y162256D01*
X416205Y162197D01*
X416102Y162148D01*
X416013Y162084D01*
X415919Y162028D01*
X415833Y161953D01*
X415740Y161886D01*
X415664Y161807D01*
X415582Y161736D01*
X415510Y161646D01*
X415430Y161564D01*
X415370Y161473D01*
X415301Y161388D01*
X415247Y161287D01*
X415183Y161192D01*
X415140Y161091D01*
X415088Y160996D01*
X415052Y160887D01*
X415006Y160781D01*
X414981Y160675D01*
X414947Y160572D01*
X414909Y160363D01*
X414905Y160346D01*
X414905Y160340D01*
X414902Y160328D01*
X414604Y158074D01*
X413984Y156115D01*
X413034Y154292D01*
X411782Y152663D01*
X410265Y151275D01*
X408531Y150173D01*
X406632Y149388D01*
X404625Y148944D01*
X402406Y148849D01*
X292630Y148849D01*
X290765Y149105D01*
X289019Y149665D01*
X287396Y150520D01*
X285947Y151644D01*
X284715Y153003D01*
X283737Y154554D01*
X283044Y156252D01*
X282656Y158045D01*
X282577Y160096D01*
X282577Y160098D01*
X282577Y160100D01*
X282551Y160304D01*
X282520Y160539D01*
X282520Y160541D01*
X282520Y160543D01*
X282451Y160757D01*
X282385Y160965D01*
X282385Y160967D01*
X282384Y160968D01*
X282276Y161172D01*
X282177Y161360D01*
X282176Y161361D01*
X282175Y161363D01*
X282036Y161539D01*
X281901Y161712D01*
X281900Y161713D01*
X281899Y161714D01*
X281732Y161862D01*
X281567Y162009D01*
X281566Y162009D01*
X281564Y162011D01*
X281381Y162122D01*
X281186Y162241D01*
X281184Y162242D01*
X281183Y162243D01*
X280978Y162322D01*
X280769Y162402D01*
X280768Y162403D01*
X280766Y162403D01*
X280537Y162447D01*
X280331Y162487D01*
X280329Y162487D01*
X280327Y162487D01*
X280080Y162499D01*
X140400Y162499D01*
X140350Y162495D01*
X140300Y162497D01*
X140128Y162475D01*
X139955Y162459D01*
X139907Y162446D01*
X139857Y162440D01*
X139692Y162387D01*
X139524Y162341D01*
X139479Y162319D01*
X139432Y162304D01*
X139278Y162223D01*
X139122Y162148D01*
X139081Y162118D01*
X139037Y162095D01*
X138901Y161988D01*
X138760Y161886D01*
X138725Y161850D01*
X138686Y161819D01*
X138570Y161689D01*
X138450Y161564D01*
X138423Y161522D01*
X138389Y161484D01*
X138299Y161336D01*
X138203Y161192D01*
X138183Y161146D01*
X138157Y161103D01*
X138095Y160941D01*
X138026Y160781D01*
X138015Y160733D01*
X137997Y160686D01*
X137964Y160515D01*
X137925Y160346D01*
X137922Y160296D01*
X137913Y160247D01*
X137901Y160000D01*
X137901Y20000D01*
X137905Y19950D01*
X137903Y19900D01*
X137925Y19728D01*
X137941Y19555D01*
X137954Y19507D01*
X137960Y19457D01*
X138013Y19292D01*
X138059Y19124D01*
X138081Y19079D01*
X138096Y19032D01*
X138177Y18878D01*
X138252Y18722D01*
X138282Y18681D01*
X138305Y18637D01*
X138412Y18501D01*
X138514Y18360D01*
X138550Y18325D01*
X138581Y18286D01*
X138711Y18170D01*
X138836Y18050D01*
X138878Y18023D01*
X138916Y17989D01*
X139064Y17899D01*
X139208Y17803D01*
X139255Y17783D01*
X139297Y17757D01*
X139459Y17695D01*
X139619Y17626D01*
X139667Y17615D01*
X139714Y17597D01*
X139885Y17564D01*
X140054Y17525D01*
X140104Y17522D01*
X140153Y17513D01*
X140400Y17501D01*
X495000Y17501D01*
X495011Y17502D01*
G37*
G36*
X2925011Y17502D02*
X2925011Y17502D01*
X2925022Y17501D01*
X2925233Y17522D01*
X2925445Y17541D01*
X2925456Y17544D01*
X2925467Y17545D01*
X2925670Y17603D01*
X2925876Y17659D01*
X2925886Y17664D01*
X2925896Y17667D01*
X2926085Y17760D01*
X2926278Y17852D01*
X2926287Y17859D01*
X2926297Y17864D01*
X2926467Y17989D01*
X2926640Y18114D01*
X2926648Y18122D01*
X2926657Y18129D01*
X2926803Y18284D01*
X2926950Y18436D01*
X2926956Y18446D01*
X2926963Y18454D01*
X2927080Y18632D01*
X2927197Y18808D01*
X2927201Y18819D01*
X2927207Y18828D01*
X2927290Y19025D01*
X2927374Y19219D01*
X2927376Y19229D01*
X2927381Y19240D01*
X2927427Y19449D01*
X2927475Y19654D01*
X2927476Y19665D01*
X2927478Y19676D01*
X2927487Y19888D01*
X2927497Y20100D01*
X2927496Y20111D01*
X2927496Y20122D01*
X2927467Y20332D01*
X2927440Y20543D01*
X2927436Y20553D01*
X2927435Y20564D01*
X2927369Y20766D01*
X2927304Y20968D01*
X2927299Y20978D01*
X2927295Y20989D01*
X2927194Y21176D01*
X2927095Y21363D01*
X2927088Y21372D01*
X2927083Y21382D01*
X2926950Y21548D01*
X2926819Y21714D01*
X2926810Y21722D01*
X2926803Y21730D01*
X2926643Y21870D01*
X2926484Y22011D01*
X2926475Y22016D01*
X2926467Y22024D01*
X2926259Y22159D01*
X2809960Y90000D01*
X2926259Y157841D01*
X2926268Y157848D01*
X2926278Y157852D01*
X2926451Y157977D01*
X2926624Y158100D01*
X2926631Y158108D01*
X2926640Y158114D01*
X2926787Y158267D01*
X2926936Y158419D01*
X2926942Y158428D01*
X2926950Y158436D01*
X2927067Y158613D01*
X2927186Y158789D01*
X2927191Y158799D01*
X2927197Y158808D01*
X2927281Y159003D01*
X2927367Y159198D01*
X2927370Y159208D01*
X2927374Y159219D01*
X2927422Y159425D01*
X2927472Y159632D01*
X2927473Y159643D01*
X2927475Y159654D01*
X2927486Y159866D01*
X2927498Y160078D01*
X2927497Y160089D01*
X2927497Y160100D01*
X2927470Y160310D01*
X2927444Y160521D01*
X2927441Y160532D01*
X2927440Y160543D01*
X2927375Y160745D01*
X2927312Y160948D01*
X2927307Y160958D01*
X2927304Y160968D01*
X2927205Y161156D01*
X2927107Y161345D01*
X2927100Y161353D01*
X2927095Y161363D01*
X2926964Y161530D01*
X2926834Y161698D01*
X2926826Y161706D01*
X2926819Y161714D01*
X2926659Y161856D01*
X2926502Y161997D01*
X2926493Y162003D01*
X2926484Y162011D01*
X2926303Y162121D01*
X2926123Y162233D01*
X2926112Y162237D01*
X2926103Y162243D01*
X2925904Y162319D01*
X2925707Y162397D01*
X2925696Y162399D01*
X2925686Y162403D01*
X2925476Y162443D01*
X2925269Y162485D01*
X2925258Y162485D01*
X2925247Y162487D01*
X2925000Y162499D01*
X2677700Y162499D01*
X2677611Y162491D01*
X2677523Y162493D01*
X2677390Y162471D01*
X2677255Y162459D01*
X2677169Y162436D01*
X2677082Y162422D01*
X2676954Y162377D01*
X2676824Y162341D01*
X2676744Y162302D01*
X2676660Y162273D01*
X2676441Y162159D01*
X2556441Y92159D01*
X2556423Y92146D01*
X2556403Y92136D01*
X2556241Y92017D01*
X2556077Y91900D01*
X2556061Y91884D01*
X2556043Y91871D01*
X2555905Y91725D01*
X2555764Y91581D01*
X2555752Y91562D01*
X2555737Y91546D01*
X2555626Y91377D01*
X2555514Y91211D01*
X2555505Y91191D01*
X2555493Y91172D01*
X2555414Y90986D01*
X2555333Y90802D01*
X2555328Y90781D01*
X2555319Y90760D01*
X2555275Y90563D01*
X2555228Y90368D01*
X2555227Y90346D01*
X2555222Y90324D01*
X2555214Y90123D01*
X2555202Y89922D01*
X2555205Y89900D01*
X2555204Y89878D01*
X2555231Y89679D01*
X2555256Y89479D01*
X2555262Y89458D01*
X2555265Y89436D01*
X2555328Y89245D01*
X2555388Y89052D01*
X2555398Y89032D01*
X2555405Y89011D01*
X2555501Y88834D01*
X2555593Y88655D01*
X2555607Y88638D01*
X2555617Y88618D01*
X2555743Y88461D01*
X2555866Y88302D01*
X2555883Y88287D01*
X2555897Y88270D01*
X2556049Y88137D01*
X2556198Y88003D01*
X2556217Y87991D01*
X2556233Y87976D01*
X2556441Y87841D01*
X2676441Y17841D01*
X2676521Y17803D01*
X2676597Y17757D01*
X2676723Y17709D01*
X2676845Y17652D01*
X2676931Y17629D01*
X2677014Y17597D01*
X2677147Y17571D01*
X2677277Y17537D01*
X2677365Y17530D01*
X2677453Y17513D01*
X2677700Y17501D01*
X2925000Y17501D01*
X2925011Y17502D01*
G37*
G36*
X2115011Y17502D02*
X2115011Y17502D01*
X2115022Y17501D01*
X2115233Y17522D01*
X2115445Y17541D01*
X2115456Y17544D01*
X2115467Y17545D01*
X2115670Y17603D01*
X2115876Y17659D01*
X2115886Y17664D01*
X2115896Y17667D01*
X2116085Y17760D01*
X2116278Y17852D01*
X2116287Y17859D01*
X2116297Y17864D01*
X2116467Y17989D01*
X2116640Y18114D01*
X2116648Y18122D01*
X2116657Y18129D01*
X2116803Y18284D01*
X2116950Y18436D01*
X2116956Y18446D01*
X2116963Y18454D01*
X2117080Y18632D01*
X2117197Y18808D01*
X2117201Y18819D01*
X2117207Y18828D01*
X2117290Y19025D01*
X2117374Y19219D01*
X2117376Y19229D01*
X2117381Y19240D01*
X2117427Y19449D01*
X2117475Y19654D01*
X2117476Y19665D01*
X2117478Y19676D01*
X2117487Y19888D01*
X2117497Y20100D01*
X2117496Y20111D01*
X2117496Y20122D01*
X2117467Y20332D01*
X2117440Y20543D01*
X2117436Y20553D01*
X2117435Y20564D01*
X2117369Y20766D01*
X2117304Y20968D01*
X2117299Y20978D01*
X2117295Y20989D01*
X2117194Y21176D01*
X2117095Y21363D01*
X2117088Y21372D01*
X2117083Y21382D01*
X2116950Y21548D01*
X2116819Y21714D01*
X2116810Y21722D01*
X2116803Y21730D01*
X2116643Y21870D01*
X2116484Y22011D01*
X2116475Y22016D01*
X2116467Y22024D01*
X2116259Y22159D01*
X1999960Y90000D01*
X2116259Y157841D01*
X2116268Y157848D01*
X2116278Y157852D01*
X2116451Y157977D01*
X2116624Y158100D01*
X2116631Y158108D01*
X2116640Y158114D01*
X2116787Y158267D01*
X2116936Y158419D01*
X2116942Y158428D01*
X2116950Y158436D01*
X2117067Y158613D01*
X2117186Y158789D01*
X2117191Y158799D01*
X2117197Y158808D01*
X2117281Y159003D01*
X2117367Y159198D01*
X2117370Y159208D01*
X2117374Y159219D01*
X2117422Y159425D01*
X2117472Y159632D01*
X2117473Y159643D01*
X2117475Y159654D01*
X2117486Y159866D01*
X2117498Y160078D01*
X2117497Y160089D01*
X2117497Y160100D01*
X2117470Y160310D01*
X2117444Y160521D01*
X2117441Y160532D01*
X2117440Y160543D01*
X2117375Y160745D01*
X2117312Y160948D01*
X2117307Y160958D01*
X2117304Y160968D01*
X2117205Y161156D01*
X2117107Y161345D01*
X2117100Y161353D01*
X2117095Y161363D01*
X2116964Y161530D01*
X2116834Y161698D01*
X2116826Y161706D01*
X2116819Y161714D01*
X2116659Y161856D01*
X2116502Y161997D01*
X2116493Y162003D01*
X2116484Y162011D01*
X2116303Y162121D01*
X2116123Y162233D01*
X2116112Y162237D01*
X2116103Y162243D01*
X2115904Y162319D01*
X2115707Y162397D01*
X2115696Y162399D01*
X2115686Y162403D01*
X2115476Y162443D01*
X2115269Y162485D01*
X2115258Y162485D01*
X2115247Y162487D01*
X2115000Y162499D01*
X1867700Y162499D01*
X1867611Y162491D01*
X1867523Y162493D01*
X1867390Y162471D01*
X1867255Y162459D01*
X1867169Y162436D01*
X1867082Y162422D01*
X1866954Y162377D01*
X1866824Y162341D01*
X1866744Y162302D01*
X1866660Y162273D01*
X1866441Y162159D01*
X1746441Y92159D01*
X1746423Y92146D01*
X1746403Y92136D01*
X1746241Y92017D01*
X1746077Y91900D01*
X1746061Y91884D01*
X1746043Y91871D01*
X1745905Y91725D01*
X1745764Y91581D01*
X1745752Y91562D01*
X1745737Y91546D01*
X1745626Y91377D01*
X1745514Y91211D01*
X1745505Y91191D01*
X1745493Y91172D01*
X1745414Y90986D01*
X1745333Y90802D01*
X1745328Y90781D01*
X1745319Y90760D01*
X1745275Y90563D01*
X1745228Y90368D01*
X1745227Y90346D01*
X1745222Y90324D01*
X1745214Y90123D01*
X1745202Y89922D01*
X1745205Y89900D01*
X1745204Y89878D01*
X1745231Y89679D01*
X1745256Y89479D01*
X1745262Y89458D01*
X1745265Y89436D01*
X1745328Y89245D01*
X1745388Y89052D01*
X1745398Y89032D01*
X1745405Y89011D01*
X1745501Y88834D01*
X1745593Y88655D01*
X1745607Y88638D01*
X1745617Y88618D01*
X1745743Y88461D01*
X1745866Y88302D01*
X1745883Y88287D01*
X1745897Y88270D01*
X1746049Y88137D01*
X1746198Y88003D01*
X1746217Y87991D01*
X1746233Y87976D01*
X1746441Y87841D01*
X1866441Y17841D01*
X1866521Y17803D01*
X1866597Y17757D01*
X1866723Y17709D01*
X1866845Y17652D01*
X1866931Y17629D01*
X1867014Y17597D01*
X1867147Y17571D01*
X1867277Y17537D01*
X1867365Y17530D01*
X1867453Y17513D01*
X1867700Y17501D01*
X2115000Y17501D01*
X2115011Y17502D01*
G37*
G36*
X765011Y17502D02*
X765011Y17502D01*
X765022Y17501D01*
X765233Y17522D01*
X765445Y17541D01*
X765456Y17544D01*
X765467Y17545D01*
X765670Y17603D01*
X765876Y17659D01*
X765886Y17664D01*
X765896Y17667D01*
X766085Y17760D01*
X766278Y17852D01*
X766287Y17859D01*
X766297Y17864D01*
X766467Y17989D01*
X766640Y18114D01*
X766648Y18122D01*
X766657Y18129D01*
X766803Y18284D01*
X766950Y18436D01*
X766956Y18446D01*
X766963Y18454D01*
X767080Y18632D01*
X767197Y18808D01*
X767201Y18819D01*
X767207Y18828D01*
X767290Y19025D01*
X767374Y19219D01*
X767376Y19229D01*
X767381Y19240D01*
X767427Y19449D01*
X767475Y19654D01*
X767476Y19665D01*
X767478Y19676D01*
X767487Y19888D01*
X767497Y20100D01*
X767496Y20111D01*
X767496Y20122D01*
X767467Y20332D01*
X767440Y20543D01*
X767436Y20553D01*
X767435Y20564D01*
X767369Y20766D01*
X767304Y20968D01*
X767299Y20978D01*
X767295Y20989D01*
X767194Y21176D01*
X767095Y21363D01*
X767088Y21372D01*
X767083Y21382D01*
X766950Y21548D01*
X766819Y21714D01*
X766810Y21722D01*
X766803Y21730D01*
X766643Y21870D01*
X766484Y22011D01*
X766475Y22016D01*
X766467Y22024D01*
X766259Y22159D01*
X649960Y90000D01*
X766259Y157841D01*
X766268Y157848D01*
X766278Y157852D01*
X766451Y157977D01*
X766624Y158100D01*
X766631Y158108D01*
X766640Y158114D01*
X766787Y158267D01*
X766936Y158419D01*
X766942Y158428D01*
X766950Y158436D01*
X767067Y158613D01*
X767186Y158789D01*
X767191Y158799D01*
X767197Y158808D01*
X767281Y159003D01*
X767367Y159198D01*
X767370Y159208D01*
X767374Y159219D01*
X767422Y159425D01*
X767472Y159632D01*
X767473Y159643D01*
X767475Y159654D01*
X767486Y159866D01*
X767498Y160078D01*
X767497Y160089D01*
X767497Y160100D01*
X767470Y160310D01*
X767444Y160521D01*
X767441Y160532D01*
X767440Y160543D01*
X767375Y160745D01*
X767312Y160948D01*
X767307Y160958D01*
X767304Y160968D01*
X767205Y161156D01*
X767107Y161345D01*
X767100Y161353D01*
X767095Y161363D01*
X766964Y161530D01*
X766834Y161698D01*
X766826Y161706D01*
X766819Y161714D01*
X766659Y161856D01*
X766502Y161997D01*
X766493Y162003D01*
X766484Y162011D01*
X766303Y162121D01*
X766123Y162233D01*
X766112Y162237D01*
X766103Y162243D01*
X765904Y162319D01*
X765707Y162397D01*
X765696Y162399D01*
X765686Y162403D01*
X765476Y162443D01*
X765269Y162485D01*
X765258Y162485D01*
X765247Y162487D01*
X765000Y162499D01*
X517700Y162499D01*
X517611Y162491D01*
X517523Y162493D01*
X517390Y162471D01*
X517255Y162459D01*
X517169Y162436D01*
X517082Y162422D01*
X516954Y162377D01*
X516824Y162341D01*
X516744Y162302D01*
X516660Y162273D01*
X516441Y162159D01*
X396441Y92159D01*
X396423Y92146D01*
X396403Y92136D01*
X396241Y92017D01*
X396077Y91900D01*
X396061Y91884D01*
X396043Y91871D01*
X395905Y91725D01*
X395764Y91581D01*
X395752Y91562D01*
X395737Y91546D01*
X395626Y91377D01*
X395514Y91211D01*
X395505Y91191D01*
X395493Y91172D01*
X395414Y90986D01*
X395333Y90802D01*
X395328Y90781D01*
X395319Y90760D01*
X395275Y90563D01*
X395228Y90368D01*
X395227Y90346D01*
X395222Y90324D01*
X395214Y90123D01*
X395202Y89922D01*
X395205Y89900D01*
X395204Y89878D01*
X395231Y89679D01*
X395256Y89479D01*
X395262Y89458D01*
X395265Y89436D01*
X395328Y89245D01*
X395388Y89052D01*
X395398Y89032D01*
X395405Y89011D01*
X395501Y88834D01*
X395593Y88655D01*
X395607Y88638D01*
X395617Y88618D01*
X395743Y88461D01*
X395866Y88302D01*
X395883Y88287D01*
X395897Y88270D01*
X396049Y88137D01*
X396198Y88003D01*
X396217Y87991D01*
X396233Y87976D01*
X396441Y87841D01*
X516441Y17841D01*
X516521Y17803D01*
X516597Y17757D01*
X516723Y17709D01*
X516845Y17652D01*
X516931Y17629D01*
X517014Y17597D01*
X517147Y17571D01*
X517277Y17537D01*
X517365Y17530D01*
X517453Y17513D01*
X517700Y17501D01*
X765000Y17501D01*
X765011Y17502D01*
G37*
G36*
X1845011Y17502D02*
X1845011Y17502D01*
X1845022Y17501D01*
X1845233Y17522D01*
X1845445Y17541D01*
X1845456Y17544D01*
X1845467Y17545D01*
X1845670Y17603D01*
X1845876Y17659D01*
X1845886Y17664D01*
X1845896Y17667D01*
X1846085Y17760D01*
X1846278Y17852D01*
X1846287Y17859D01*
X1846297Y17864D01*
X1846467Y17989D01*
X1846640Y18114D01*
X1846648Y18122D01*
X1846657Y18129D01*
X1846803Y18284D01*
X1846950Y18436D01*
X1846956Y18446D01*
X1846963Y18454D01*
X1847080Y18632D01*
X1847197Y18808D01*
X1847201Y18819D01*
X1847207Y18828D01*
X1847290Y19025D01*
X1847374Y19219D01*
X1847376Y19229D01*
X1847381Y19240D01*
X1847427Y19449D01*
X1847475Y19654D01*
X1847476Y19665D01*
X1847478Y19676D01*
X1847487Y19888D01*
X1847497Y20100D01*
X1847496Y20111D01*
X1847496Y20122D01*
X1847467Y20332D01*
X1847440Y20543D01*
X1847436Y20553D01*
X1847435Y20564D01*
X1847369Y20766D01*
X1847304Y20968D01*
X1847299Y20978D01*
X1847295Y20989D01*
X1847194Y21176D01*
X1847095Y21363D01*
X1847088Y21372D01*
X1847083Y21382D01*
X1846950Y21548D01*
X1846819Y21714D01*
X1846810Y21722D01*
X1846803Y21730D01*
X1846643Y21870D01*
X1846484Y22011D01*
X1846475Y22016D01*
X1846467Y22024D01*
X1846259Y22159D01*
X1729960Y90000D01*
X1846259Y157841D01*
X1846268Y157848D01*
X1846278Y157852D01*
X1846451Y157977D01*
X1846624Y158100D01*
X1846631Y158108D01*
X1846640Y158114D01*
X1846787Y158267D01*
X1846936Y158419D01*
X1846942Y158428D01*
X1846950Y158436D01*
X1847067Y158613D01*
X1847186Y158789D01*
X1847191Y158799D01*
X1847197Y158808D01*
X1847281Y159003D01*
X1847367Y159198D01*
X1847370Y159208D01*
X1847374Y159219D01*
X1847422Y159425D01*
X1847472Y159632D01*
X1847473Y159643D01*
X1847475Y159654D01*
X1847486Y159866D01*
X1847498Y160078D01*
X1847497Y160089D01*
X1847497Y160100D01*
X1847470Y160310D01*
X1847444Y160521D01*
X1847441Y160532D01*
X1847440Y160543D01*
X1847375Y160745D01*
X1847312Y160948D01*
X1847307Y160958D01*
X1847304Y160968D01*
X1847205Y161156D01*
X1847107Y161345D01*
X1847100Y161353D01*
X1847095Y161363D01*
X1846964Y161530D01*
X1846834Y161698D01*
X1846826Y161706D01*
X1846819Y161714D01*
X1846659Y161856D01*
X1846502Y161997D01*
X1846493Y162003D01*
X1846484Y162011D01*
X1846303Y162121D01*
X1846123Y162233D01*
X1846112Y162237D01*
X1846103Y162243D01*
X1845904Y162319D01*
X1845707Y162397D01*
X1845696Y162399D01*
X1845686Y162403D01*
X1845476Y162443D01*
X1845269Y162485D01*
X1845258Y162485D01*
X1845247Y162487D01*
X1845000Y162499D01*
X1597700Y162499D01*
X1597611Y162491D01*
X1597523Y162493D01*
X1597390Y162471D01*
X1597255Y162459D01*
X1597169Y162436D01*
X1597082Y162422D01*
X1596954Y162377D01*
X1596824Y162341D01*
X1596744Y162302D01*
X1596660Y162273D01*
X1596441Y162159D01*
X1476441Y92159D01*
X1476423Y92146D01*
X1476403Y92136D01*
X1476241Y92017D01*
X1476077Y91900D01*
X1476061Y91884D01*
X1476043Y91871D01*
X1475905Y91725D01*
X1475764Y91581D01*
X1475752Y91562D01*
X1475737Y91546D01*
X1475626Y91377D01*
X1475514Y91211D01*
X1475505Y91191D01*
X1475493Y91172D01*
X1475414Y90986D01*
X1475333Y90802D01*
X1475328Y90781D01*
X1475319Y90760D01*
X1475275Y90563D01*
X1475228Y90368D01*
X1475227Y90346D01*
X1475222Y90324D01*
X1475214Y90123D01*
X1475202Y89922D01*
X1475205Y89900D01*
X1475204Y89878D01*
X1475231Y89679D01*
X1475256Y89479D01*
X1475262Y89458D01*
X1475265Y89436D01*
X1475328Y89245D01*
X1475388Y89052D01*
X1475398Y89032D01*
X1475405Y89011D01*
X1475501Y88834D01*
X1475593Y88655D01*
X1475607Y88638D01*
X1475617Y88618D01*
X1475743Y88461D01*
X1475866Y88302D01*
X1475883Y88287D01*
X1475897Y88270D01*
X1476049Y88137D01*
X1476198Y88003D01*
X1476217Y87991D01*
X1476233Y87976D01*
X1476441Y87841D01*
X1596441Y17841D01*
X1596521Y17803D01*
X1596597Y17757D01*
X1596723Y17709D01*
X1596845Y17652D01*
X1596931Y17629D01*
X1597014Y17597D01*
X1597147Y17571D01*
X1597277Y17537D01*
X1597365Y17530D01*
X1597453Y17513D01*
X1597700Y17501D01*
X1845000Y17501D01*
X1845011Y17502D01*
G37*
G36*
X2385011Y17502D02*
X2385011Y17502D01*
X2385022Y17501D01*
X2385233Y17522D01*
X2385445Y17541D01*
X2385456Y17544D01*
X2385467Y17545D01*
X2385670Y17603D01*
X2385876Y17659D01*
X2385886Y17664D01*
X2385896Y17667D01*
X2386085Y17760D01*
X2386278Y17852D01*
X2386287Y17859D01*
X2386297Y17864D01*
X2386467Y17989D01*
X2386640Y18114D01*
X2386648Y18122D01*
X2386657Y18129D01*
X2386803Y18284D01*
X2386950Y18436D01*
X2386956Y18446D01*
X2386963Y18454D01*
X2387080Y18632D01*
X2387197Y18808D01*
X2387201Y18819D01*
X2387207Y18828D01*
X2387290Y19025D01*
X2387374Y19219D01*
X2387376Y19229D01*
X2387381Y19240D01*
X2387427Y19449D01*
X2387475Y19654D01*
X2387476Y19665D01*
X2387478Y19676D01*
X2387487Y19888D01*
X2387497Y20100D01*
X2387496Y20111D01*
X2387496Y20122D01*
X2387467Y20332D01*
X2387440Y20543D01*
X2387436Y20553D01*
X2387435Y20564D01*
X2387369Y20766D01*
X2387304Y20968D01*
X2387299Y20978D01*
X2387295Y20989D01*
X2387194Y21176D01*
X2387095Y21363D01*
X2387088Y21372D01*
X2387083Y21382D01*
X2386950Y21548D01*
X2386819Y21714D01*
X2386810Y21722D01*
X2386803Y21730D01*
X2386643Y21870D01*
X2386484Y22011D01*
X2386475Y22016D01*
X2386467Y22024D01*
X2386259Y22159D01*
X2269960Y90000D01*
X2386259Y157841D01*
X2386268Y157848D01*
X2386278Y157852D01*
X2386451Y157977D01*
X2386624Y158100D01*
X2386631Y158108D01*
X2386640Y158114D01*
X2386787Y158267D01*
X2386936Y158419D01*
X2386942Y158428D01*
X2386950Y158436D01*
X2387067Y158613D01*
X2387186Y158789D01*
X2387191Y158799D01*
X2387197Y158808D01*
X2387281Y159003D01*
X2387367Y159198D01*
X2387370Y159208D01*
X2387374Y159219D01*
X2387422Y159425D01*
X2387472Y159632D01*
X2387473Y159643D01*
X2387475Y159654D01*
X2387486Y159866D01*
X2387498Y160078D01*
X2387497Y160089D01*
X2387497Y160100D01*
X2387470Y160310D01*
X2387444Y160521D01*
X2387441Y160532D01*
X2387440Y160543D01*
X2387375Y160745D01*
X2387312Y160948D01*
X2387307Y160958D01*
X2387304Y160968D01*
X2387205Y161156D01*
X2387107Y161345D01*
X2387100Y161353D01*
X2387095Y161363D01*
X2386964Y161530D01*
X2386834Y161698D01*
X2386826Y161706D01*
X2386819Y161714D01*
X2386659Y161856D01*
X2386502Y161997D01*
X2386493Y162003D01*
X2386484Y162011D01*
X2386303Y162121D01*
X2386123Y162233D01*
X2386112Y162237D01*
X2386103Y162243D01*
X2385904Y162319D01*
X2385707Y162397D01*
X2385696Y162399D01*
X2385686Y162403D01*
X2385476Y162443D01*
X2385269Y162485D01*
X2385258Y162485D01*
X2385247Y162487D01*
X2385000Y162499D01*
X2137700Y162499D01*
X2137611Y162491D01*
X2137523Y162493D01*
X2137390Y162471D01*
X2137255Y162459D01*
X2137169Y162436D01*
X2137082Y162422D01*
X2136954Y162377D01*
X2136824Y162341D01*
X2136744Y162302D01*
X2136660Y162273D01*
X2136441Y162159D01*
X2016441Y92159D01*
X2016423Y92146D01*
X2016403Y92136D01*
X2016241Y92017D01*
X2016077Y91900D01*
X2016061Y91884D01*
X2016043Y91871D01*
X2015905Y91725D01*
X2015764Y91581D01*
X2015752Y91562D01*
X2015737Y91546D01*
X2015626Y91377D01*
X2015514Y91211D01*
X2015505Y91191D01*
X2015493Y91172D01*
X2015414Y90986D01*
X2015333Y90802D01*
X2015328Y90781D01*
X2015319Y90760D01*
X2015275Y90563D01*
X2015228Y90368D01*
X2015227Y90346D01*
X2015222Y90324D01*
X2015214Y90123D01*
X2015202Y89922D01*
X2015205Y89900D01*
X2015204Y89878D01*
X2015231Y89679D01*
X2015256Y89479D01*
X2015262Y89458D01*
X2015265Y89436D01*
X2015328Y89245D01*
X2015388Y89052D01*
X2015398Y89032D01*
X2015405Y89011D01*
X2015501Y88834D01*
X2015593Y88655D01*
X2015607Y88638D01*
X2015617Y88618D01*
X2015743Y88461D01*
X2015866Y88302D01*
X2015883Y88287D01*
X2015897Y88270D01*
X2016049Y88137D01*
X2016198Y88003D01*
X2016217Y87991D01*
X2016233Y87976D01*
X2016441Y87841D01*
X2136441Y17841D01*
X2136521Y17803D01*
X2136597Y17757D01*
X2136723Y17709D01*
X2136845Y17652D01*
X2136931Y17629D01*
X2137014Y17597D01*
X2137147Y17571D01*
X2137277Y17537D01*
X2137365Y17530D01*
X2137453Y17513D01*
X2137700Y17501D01*
X2385000Y17501D01*
X2385011Y17502D01*
G37*
G36*
X1035011Y17502D02*
X1035011Y17502D01*
X1035022Y17501D01*
X1035233Y17522D01*
X1035445Y17541D01*
X1035456Y17544D01*
X1035467Y17545D01*
X1035670Y17603D01*
X1035876Y17659D01*
X1035886Y17664D01*
X1035896Y17667D01*
X1036085Y17760D01*
X1036278Y17852D01*
X1036287Y17859D01*
X1036297Y17864D01*
X1036467Y17989D01*
X1036640Y18114D01*
X1036648Y18122D01*
X1036657Y18129D01*
X1036803Y18284D01*
X1036950Y18436D01*
X1036956Y18446D01*
X1036963Y18454D01*
X1037080Y18632D01*
X1037197Y18808D01*
X1037201Y18819D01*
X1037207Y18828D01*
X1037290Y19025D01*
X1037374Y19219D01*
X1037376Y19229D01*
X1037381Y19240D01*
X1037427Y19449D01*
X1037475Y19654D01*
X1037476Y19665D01*
X1037478Y19676D01*
X1037487Y19888D01*
X1037497Y20100D01*
X1037496Y20111D01*
X1037496Y20122D01*
X1037467Y20332D01*
X1037440Y20543D01*
X1037436Y20553D01*
X1037435Y20564D01*
X1037369Y20766D01*
X1037304Y20968D01*
X1037299Y20978D01*
X1037295Y20989D01*
X1037194Y21176D01*
X1037095Y21363D01*
X1037088Y21372D01*
X1037083Y21382D01*
X1036950Y21548D01*
X1036819Y21714D01*
X1036810Y21722D01*
X1036803Y21730D01*
X1036643Y21870D01*
X1036484Y22011D01*
X1036475Y22016D01*
X1036467Y22024D01*
X1036259Y22159D01*
X919960Y90000D01*
X1036259Y157841D01*
X1036268Y157848D01*
X1036278Y157852D01*
X1036451Y157977D01*
X1036624Y158100D01*
X1036631Y158108D01*
X1036640Y158114D01*
X1036787Y158267D01*
X1036936Y158419D01*
X1036942Y158428D01*
X1036950Y158436D01*
X1037067Y158613D01*
X1037186Y158789D01*
X1037191Y158799D01*
X1037197Y158808D01*
X1037281Y159003D01*
X1037367Y159198D01*
X1037370Y159208D01*
X1037374Y159219D01*
X1037422Y159425D01*
X1037472Y159632D01*
X1037473Y159643D01*
X1037475Y159654D01*
X1037486Y159866D01*
X1037498Y160078D01*
X1037497Y160089D01*
X1037497Y160100D01*
X1037470Y160310D01*
X1037444Y160521D01*
X1037441Y160532D01*
X1037440Y160543D01*
X1037375Y160745D01*
X1037312Y160948D01*
X1037307Y160958D01*
X1037304Y160968D01*
X1037205Y161156D01*
X1037107Y161345D01*
X1037100Y161353D01*
X1037095Y161363D01*
X1036964Y161530D01*
X1036834Y161698D01*
X1036826Y161706D01*
X1036819Y161714D01*
X1036659Y161856D01*
X1036502Y161997D01*
X1036493Y162003D01*
X1036484Y162011D01*
X1036303Y162121D01*
X1036123Y162233D01*
X1036112Y162237D01*
X1036103Y162243D01*
X1035904Y162319D01*
X1035707Y162397D01*
X1035696Y162399D01*
X1035686Y162403D01*
X1035476Y162443D01*
X1035269Y162485D01*
X1035258Y162485D01*
X1035247Y162487D01*
X1035000Y162499D01*
X787700Y162499D01*
X787611Y162491D01*
X787523Y162493D01*
X787390Y162471D01*
X787255Y162459D01*
X787169Y162436D01*
X787082Y162422D01*
X786954Y162377D01*
X786824Y162341D01*
X786744Y162302D01*
X786660Y162273D01*
X786441Y162159D01*
X666441Y92159D01*
X666423Y92146D01*
X666403Y92136D01*
X666241Y92017D01*
X666077Y91900D01*
X666061Y91884D01*
X666043Y91871D01*
X665905Y91725D01*
X665764Y91581D01*
X665752Y91562D01*
X665737Y91546D01*
X665626Y91377D01*
X665514Y91211D01*
X665505Y91191D01*
X665493Y91172D01*
X665414Y90986D01*
X665333Y90802D01*
X665328Y90781D01*
X665319Y90760D01*
X665275Y90563D01*
X665228Y90368D01*
X665227Y90346D01*
X665222Y90324D01*
X665214Y90123D01*
X665202Y89922D01*
X665205Y89900D01*
X665204Y89878D01*
X665231Y89679D01*
X665256Y89479D01*
X665262Y89458D01*
X665265Y89436D01*
X665328Y89245D01*
X665388Y89052D01*
X665398Y89032D01*
X665405Y89011D01*
X665501Y88834D01*
X665593Y88655D01*
X665607Y88638D01*
X665617Y88618D01*
X665743Y88461D01*
X665866Y88302D01*
X665883Y88287D01*
X665897Y88270D01*
X666049Y88137D01*
X666198Y88003D01*
X666217Y87991D01*
X666233Y87976D01*
X666441Y87841D01*
X786441Y17841D01*
X786521Y17803D01*
X786597Y17757D01*
X786723Y17709D01*
X786845Y17652D01*
X786931Y17629D01*
X787014Y17597D01*
X787147Y17571D01*
X787277Y17537D01*
X787365Y17530D01*
X787453Y17513D01*
X787700Y17501D01*
X1035000Y17501D01*
X1035011Y17502D01*
G37*
G36*
X3195011Y17502D02*
X3195011Y17502D01*
X3195022Y17501D01*
X3195233Y17522D01*
X3195445Y17541D01*
X3195456Y17544D01*
X3195467Y17545D01*
X3195670Y17603D01*
X3195876Y17659D01*
X3195886Y17664D01*
X3195896Y17667D01*
X3196085Y17760D01*
X3196278Y17852D01*
X3196287Y17859D01*
X3196297Y17864D01*
X3196467Y17989D01*
X3196640Y18114D01*
X3196648Y18122D01*
X3196657Y18129D01*
X3196803Y18284D01*
X3196950Y18436D01*
X3196956Y18446D01*
X3196963Y18454D01*
X3197080Y18632D01*
X3197197Y18808D01*
X3197201Y18819D01*
X3197207Y18828D01*
X3197290Y19025D01*
X3197374Y19219D01*
X3197376Y19229D01*
X3197381Y19240D01*
X3197427Y19449D01*
X3197475Y19654D01*
X3197476Y19665D01*
X3197478Y19676D01*
X3197487Y19888D01*
X3197497Y20100D01*
X3197496Y20111D01*
X3197496Y20122D01*
X3197467Y20332D01*
X3197440Y20543D01*
X3197436Y20553D01*
X3197435Y20564D01*
X3197369Y20766D01*
X3197304Y20968D01*
X3197299Y20978D01*
X3197295Y20989D01*
X3197194Y21176D01*
X3197095Y21363D01*
X3197088Y21372D01*
X3197083Y21382D01*
X3196950Y21548D01*
X3196819Y21714D01*
X3196810Y21722D01*
X3196803Y21730D01*
X3196643Y21870D01*
X3196484Y22011D01*
X3196475Y22016D01*
X3196467Y22024D01*
X3196259Y22159D01*
X3079960Y90000D01*
X3196259Y157841D01*
X3196268Y157848D01*
X3196278Y157852D01*
X3196451Y157977D01*
X3196624Y158100D01*
X3196631Y158108D01*
X3196640Y158114D01*
X3196787Y158267D01*
X3196936Y158419D01*
X3196942Y158428D01*
X3196950Y158436D01*
X3197067Y158613D01*
X3197186Y158789D01*
X3197191Y158799D01*
X3197197Y158808D01*
X3197281Y159003D01*
X3197367Y159198D01*
X3197370Y159208D01*
X3197374Y159219D01*
X3197422Y159425D01*
X3197472Y159632D01*
X3197473Y159643D01*
X3197475Y159654D01*
X3197486Y159866D01*
X3197498Y160078D01*
X3197497Y160089D01*
X3197497Y160100D01*
X3197470Y160310D01*
X3197444Y160521D01*
X3197441Y160532D01*
X3197440Y160543D01*
X3197375Y160745D01*
X3197312Y160948D01*
X3197307Y160958D01*
X3197304Y160968D01*
X3197205Y161156D01*
X3197107Y161345D01*
X3197100Y161353D01*
X3197095Y161363D01*
X3196964Y161530D01*
X3196834Y161698D01*
X3196826Y161706D01*
X3196819Y161714D01*
X3196659Y161856D01*
X3196502Y161997D01*
X3196493Y162003D01*
X3196484Y162011D01*
X3196303Y162121D01*
X3196123Y162233D01*
X3196112Y162237D01*
X3196103Y162243D01*
X3195904Y162319D01*
X3195707Y162397D01*
X3195696Y162399D01*
X3195686Y162403D01*
X3195476Y162443D01*
X3195269Y162485D01*
X3195258Y162485D01*
X3195247Y162487D01*
X3195000Y162499D01*
X2947700Y162499D01*
X2947611Y162491D01*
X2947523Y162493D01*
X2947390Y162471D01*
X2947255Y162459D01*
X2947169Y162436D01*
X2947082Y162422D01*
X2946954Y162377D01*
X2946824Y162341D01*
X2946744Y162302D01*
X2946660Y162273D01*
X2946441Y162159D01*
X2826441Y92159D01*
X2826423Y92146D01*
X2826403Y92136D01*
X2826241Y92017D01*
X2826077Y91900D01*
X2826061Y91884D01*
X2826043Y91871D01*
X2825905Y91725D01*
X2825764Y91581D01*
X2825752Y91562D01*
X2825737Y91546D01*
X2825626Y91377D01*
X2825514Y91211D01*
X2825505Y91191D01*
X2825493Y91172D01*
X2825414Y90986D01*
X2825333Y90802D01*
X2825328Y90781D01*
X2825319Y90760D01*
X2825275Y90563D01*
X2825228Y90368D01*
X2825227Y90346D01*
X2825222Y90324D01*
X2825214Y90123D01*
X2825202Y89922D01*
X2825205Y89900D01*
X2825204Y89878D01*
X2825231Y89679D01*
X2825256Y89479D01*
X2825262Y89458D01*
X2825265Y89436D01*
X2825328Y89245D01*
X2825388Y89052D01*
X2825398Y89032D01*
X2825405Y89011D01*
X2825501Y88834D01*
X2825593Y88655D01*
X2825607Y88638D01*
X2825617Y88618D01*
X2825743Y88461D01*
X2825866Y88302D01*
X2825883Y88287D01*
X2825897Y88270D01*
X2826049Y88137D01*
X2826198Y88003D01*
X2826217Y87991D01*
X2826233Y87976D01*
X2826441Y87841D01*
X2946441Y17841D01*
X2946521Y17803D01*
X2946597Y17757D01*
X2946723Y17709D01*
X2946845Y17652D01*
X2946931Y17629D01*
X2947014Y17597D01*
X2947147Y17571D01*
X2947277Y17537D01*
X2947365Y17530D01*
X2947453Y17513D01*
X2947700Y17501D01*
X3195000Y17501D01*
X3195011Y17502D01*
G37*
G36*
X1575011Y17502D02*
X1575011Y17502D01*
X1575022Y17501D01*
X1575233Y17522D01*
X1575445Y17541D01*
X1575456Y17544D01*
X1575467Y17545D01*
X1575670Y17603D01*
X1575876Y17659D01*
X1575886Y17664D01*
X1575896Y17667D01*
X1576085Y17760D01*
X1576278Y17852D01*
X1576287Y17859D01*
X1576297Y17864D01*
X1576467Y17989D01*
X1576640Y18114D01*
X1576648Y18122D01*
X1576657Y18129D01*
X1576803Y18284D01*
X1576950Y18436D01*
X1576956Y18446D01*
X1576963Y18454D01*
X1577080Y18632D01*
X1577197Y18808D01*
X1577201Y18819D01*
X1577207Y18828D01*
X1577290Y19025D01*
X1577374Y19219D01*
X1577376Y19229D01*
X1577381Y19240D01*
X1577427Y19449D01*
X1577475Y19654D01*
X1577476Y19665D01*
X1577478Y19676D01*
X1577487Y19888D01*
X1577497Y20100D01*
X1577496Y20111D01*
X1577496Y20122D01*
X1577467Y20332D01*
X1577440Y20543D01*
X1577436Y20553D01*
X1577435Y20564D01*
X1577369Y20766D01*
X1577304Y20968D01*
X1577299Y20978D01*
X1577295Y20989D01*
X1577194Y21176D01*
X1577095Y21363D01*
X1577088Y21372D01*
X1577083Y21382D01*
X1576950Y21548D01*
X1576819Y21714D01*
X1576810Y21722D01*
X1576803Y21730D01*
X1576643Y21870D01*
X1576484Y22011D01*
X1576475Y22016D01*
X1576467Y22024D01*
X1576259Y22159D01*
X1459960Y90000D01*
X1576259Y157841D01*
X1576268Y157848D01*
X1576278Y157852D01*
X1576451Y157977D01*
X1576624Y158100D01*
X1576631Y158108D01*
X1576640Y158114D01*
X1576787Y158267D01*
X1576936Y158419D01*
X1576942Y158428D01*
X1576950Y158436D01*
X1577067Y158613D01*
X1577186Y158789D01*
X1577191Y158799D01*
X1577197Y158808D01*
X1577281Y159003D01*
X1577367Y159198D01*
X1577370Y159208D01*
X1577374Y159219D01*
X1577422Y159425D01*
X1577472Y159632D01*
X1577473Y159643D01*
X1577475Y159654D01*
X1577486Y159866D01*
X1577498Y160078D01*
X1577497Y160089D01*
X1577497Y160100D01*
X1577470Y160310D01*
X1577444Y160521D01*
X1577441Y160532D01*
X1577440Y160543D01*
X1577375Y160745D01*
X1577312Y160948D01*
X1577307Y160958D01*
X1577304Y160968D01*
X1577205Y161156D01*
X1577107Y161345D01*
X1577100Y161353D01*
X1577095Y161363D01*
X1576964Y161530D01*
X1576834Y161698D01*
X1576826Y161706D01*
X1576819Y161714D01*
X1576659Y161856D01*
X1576502Y161997D01*
X1576493Y162003D01*
X1576484Y162011D01*
X1576303Y162121D01*
X1576123Y162233D01*
X1576112Y162237D01*
X1576103Y162243D01*
X1575904Y162319D01*
X1575707Y162397D01*
X1575696Y162399D01*
X1575686Y162403D01*
X1575476Y162443D01*
X1575269Y162485D01*
X1575258Y162485D01*
X1575247Y162487D01*
X1575000Y162499D01*
X1327700Y162499D01*
X1327611Y162491D01*
X1327523Y162493D01*
X1327390Y162471D01*
X1327255Y162459D01*
X1327169Y162436D01*
X1327082Y162422D01*
X1326954Y162377D01*
X1326824Y162341D01*
X1326744Y162302D01*
X1326660Y162273D01*
X1326441Y162159D01*
X1206441Y92159D01*
X1206423Y92146D01*
X1206403Y92136D01*
X1206241Y92017D01*
X1206077Y91900D01*
X1206061Y91884D01*
X1206043Y91871D01*
X1205905Y91725D01*
X1205764Y91581D01*
X1205752Y91562D01*
X1205737Y91546D01*
X1205626Y91377D01*
X1205514Y91211D01*
X1205505Y91191D01*
X1205493Y91172D01*
X1205414Y90986D01*
X1205333Y90802D01*
X1205328Y90781D01*
X1205319Y90760D01*
X1205275Y90563D01*
X1205228Y90368D01*
X1205227Y90346D01*
X1205222Y90324D01*
X1205214Y90123D01*
X1205202Y89922D01*
X1205205Y89900D01*
X1205204Y89878D01*
X1205231Y89679D01*
X1205256Y89479D01*
X1205262Y89458D01*
X1205265Y89436D01*
X1205328Y89245D01*
X1205388Y89052D01*
X1205398Y89032D01*
X1205405Y89011D01*
X1205501Y88834D01*
X1205593Y88655D01*
X1205607Y88638D01*
X1205617Y88618D01*
X1205743Y88461D01*
X1205866Y88302D01*
X1205883Y88287D01*
X1205897Y88270D01*
X1206049Y88137D01*
X1206198Y88003D01*
X1206217Y87991D01*
X1206233Y87976D01*
X1206441Y87841D01*
X1326441Y17841D01*
X1326521Y17803D01*
X1326597Y17757D01*
X1326723Y17709D01*
X1326845Y17652D01*
X1326931Y17629D01*
X1327014Y17597D01*
X1327147Y17571D01*
X1327277Y17537D01*
X1327365Y17530D01*
X1327453Y17513D01*
X1327700Y17501D01*
X1575000Y17501D01*
X1575011Y17502D01*
G37*
G36*
X1305011Y17502D02*
X1305011Y17502D01*
X1305022Y17501D01*
X1305233Y17522D01*
X1305445Y17541D01*
X1305456Y17544D01*
X1305467Y17545D01*
X1305670Y17603D01*
X1305876Y17659D01*
X1305886Y17664D01*
X1305896Y17667D01*
X1306085Y17760D01*
X1306278Y17852D01*
X1306287Y17859D01*
X1306297Y17864D01*
X1306467Y17989D01*
X1306640Y18114D01*
X1306648Y18122D01*
X1306657Y18129D01*
X1306803Y18284D01*
X1306950Y18436D01*
X1306956Y18446D01*
X1306963Y18454D01*
X1307080Y18632D01*
X1307197Y18808D01*
X1307201Y18819D01*
X1307207Y18828D01*
X1307290Y19025D01*
X1307374Y19219D01*
X1307376Y19229D01*
X1307381Y19240D01*
X1307427Y19449D01*
X1307475Y19654D01*
X1307476Y19665D01*
X1307478Y19676D01*
X1307487Y19888D01*
X1307497Y20100D01*
X1307496Y20111D01*
X1307496Y20122D01*
X1307467Y20332D01*
X1307440Y20543D01*
X1307436Y20553D01*
X1307435Y20564D01*
X1307369Y20766D01*
X1307304Y20968D01*
X1307299Y20978D01*
X1307295Y20989D01*
X1307194Y21176D01*
X1307095Y21363D01*
X1307088Y21372D01*
X1307083Y21382D01*
X1306950Y21548D01*
X1306819Y21714D01*
X1306810Y21722D01*
X1306803Y21730D01*
X1306643Y21870D01*
X1306484Y22011D01*
X1306475Y22016D01*
X1306467Y22024D01*
X1306259Y22159D01*
X1189960Y90000D01*
X1306259Y157841D01*
X1306268Y157848D01*
X1306278Y157852D01*
X1306451Y157977D01*
X1306624Y158100D01*
X1306631Y158108D01*
X1306640Y158114D01*
X1306787Y158267D01*
X1306936Y158419D01*
X1306942Y158428D01*
X1306950Y158436D01*
X1307067Y158613D01*
X1307186Y158789D01*
X1307191Y158799D01*
X1307197Y158808D01*
X1307281Y159003D01*
X1307367Y159198D01*
X1307370Y159208D01*
X1307374Y159219D01*
X1307422Y159425D01*
X1307472Y159632D01*
X1307473Y159643D01*
X1307475Y159654D01*
X1307486Y159866D01*
X1307498Y160078D01*
X1307497Y160089D01*
X1307497Y160100D01*
X1307470Y160310D01*
X1307444Y160521D01*
X1307441Y160532D01*
X1307440Y160543D01*
X1307375Y160745D01*
X1307312Y160948D01*
X1307307Y160958D01*
X1307304Y160968D01*
X1307205Y161156D01*
X1307107Y161345D01*
X1307100Y161353D01*
X1307095Y161363D01*
X1306964Y161530D01*
X1306834Y161698D01*
X1306826Y161706D01*
X1306819Y161714D01*
X1306659Y161856D01*
X1306502Y161997D01*
X1306493Y162003D01*
X1306484Y162011D01*
X1306303Y162121D01*
X1306123Y162233D01*
X1306112Y162237D01*
X1306103Y162243D01*
X1305904Y162319D01*
X1305707Y162397D01*
X1305696Y162399D01*
X1305686Y162403D01*
X1305476Y162443D01*
X1305269Y162485D01*
X1305258Y162485D01*
X1305247Y162487D01*
X1305000Y162499D01*
X1057700Y162499D01*
X1057611Y162491D01*
X1057523Y162493D01*
X1057390Y162471D01*
X1057255Y162459D01*
X1057169Y162436D01*
X1057082Y162422D01*
X1056954Y162377D01*
X1056824Y162341D01*
X1056744Y162302D01*
X1056660Y162273D01*
X1056441Y162159D01*
X936441Y92159D01*
X936423Y92146D01*
X936403Y92136D01*
X936241Y92017D01*
X936077Y91900D01*
X936061Y91884D01*
X936043Y91871D01*
X935905Y91725D01*
X935764Y91581D01*
X935752Y91562D01*
X935737Y91546D01*
X935626Y91377D01*
X935514Y91211D01*
X935505Y91191D01*
X935493Y91172D01*
X935414Y90986D01*
X935333Y90802D01*
X935328Y90781D01*
X935319Y90760D01*
X935275Y90563D01*
X935228Y90368D01*
X935227Y90346D01*
X935222Y90324D01*
X935214Y90123D01*
X935202Y89922D01*
X935205Y89900D01*
X935204Y89878D01*
X935231Y89679D01*
X935256Y89479D01*
X935262Y89458D01*
X935265Y89436D01*
X935328Y89245D01*
X935388Y89052D01*
X935398Y89032D01*
X935405Y89011D01*
X935501Y88834D01*
X935593Y88655D01*
X935607Y88638D01*
X935617Y88618D01*
X935743Y88461D01*
X935866Y88302D01*
X935883Y88287D01*
X935897Y88270D01*
X936049Y88137D01*
X936198Y88003D01*
X936217Y87991D01*
X936233Y87976D01*
X936441Y87841D01*
X1056441Y17841D01*
X1056521Y17803D01*
X1056597Y17757D01*
X1056723Y17709D01*
X1056845Y17652D01*
X1056931Y17629D01*
X1057014Y17597D01*
X1057147Y17571D01*
X1057277Y17537D01*
X1057365Y17530D01*
X1057453Y17513D01*
X1057700Y17501D01*
X1305000Y17501D01*
X1305011Y17502D01*
G37*
G36*
X2655011Y17502D02*
X2655011Y17502D01*
X2655022Y17501D01*
X2655233Y17522D01*
X2655445Y17541D01*
X2655456Y17544D01*
X2655467Y17545D01*
X2655670Y17603D01*
X2655876Y17659D01*
X2655886Y17664D01*
X2655896Y17667D01*
X2656085Y17760D01*
X2656278Y17852D01*
X2656287Y17859D01*
X2656297Y17864D01*
X2656467Y17989D01*
X2656640Y18114D01*
X2656648Y18122D01*
X2656657Y18129D01*
X2656803Y18284D01*
X2656950Y18436D01*
X2656956Y18446D01*
X2656963Y18454D01*
X2657080Y18632D01*
X2657197Y18808D01*
X2657201Y18819D01*
X2657207Y18828D01*
X2657290Y19025D01*
X2657374Y19219D01*
X2657376Y19229D01*
X2657381Y19240D01*
X2657427Y19449D01*
X2657475Y19654D01*
X2657476Y19665D01*
X2657478Y19676D01*
X2657487Y19888D01*
X2657497Y20100D01*
X2657496Y20111D01*
X2657496Y20122D01*
X2657467Y20332D01*
X2657440Y20543D01*
X2657436Y20553D01*
X2657435Y20564D01*
X2657369Y20766D01*
X2657304Y20968D01*
X2657299Y20978D01*
X2657295Y20989D01*
X2657194Y21176D01*
X2657095Y21363D01*
X2657088Y21372D01*
X2657083Y21382D01*
X2656950Y21548D01*
X2656819Y21714D01*
X2656810Y21722D01*
X2656803Y21730D01*
X2656643Y21870D01*
X2656484Y22011D01*
X2656475Y22016D01*
X2656467Y22024D01*
X2656259Y22159D01*
X2539960Y90000D01*
X2656259Y157841D01*
X2656268Y157848D01*
X2656278Y157852D01*
X2656451Y157977D01*
X2656624Y158100D01*
X2656631Y158108D01*
X2656640Y158114D01*
X2656787Y158267D01*
X2656936Y158419D01*
X2656942Y158428D01*
X2656950Y158436D01*
X2657067Y158613D01*
X2657186Y158789D01*
X2657191Y158799D01*
X2657197Y158808D01*
X2657281Y159003D01*
X2657367Y159198D01*
X2657370Y159208D01*
X2657374Y159219D01*
X2657422Y159425D01*
X2657472Y159632D01*
X2657473Y159643D01*
X2657475Y159654D01*
X2657486Y159866D01*
X2657498Y160078D01*
X2657497Y160089D01*
X2657497Y160100D01*
X2657470Y160310D01*
X2657444Y160521D01*
X2657441Y160532D01*
X2657440Y160543D01*
X2657375Y160745D01*
X2657312Y160948D01*
X2657307Y160958D01*
X2657304Y160968D01*
X2657205Y161156D01*
X2657107Y161345D01*
X2657100Y161353D01*
X2657095Y161363D01*
X2656964Y161530D01*
X2656834Y161698D01*
X2656826Y161706D01*
X2656819Y161714D01*
X2656659Y161856D01*
X2656502Y161997D01*
X2656493Y162003D01*
X2656484Y162011D01*
X2656303Y162121D01*
X2656123Y162233D01*
X2656112Y162237D01*
X2656103Y162243D01*
X2655904Y162319D01*
X2655707Y162397D01*
X2655696Y162399D01*
X2655686Y162403D01*
X2655476Y162443D01*
X2655269Y162485D01*
X2655258Y162485D01*
X2655247Y162487D01*
X2655000Y162499D01*
X2407700Y162499D01*
X2407611Y162491D01*
X2407523Y162493D01*
X2407390Y162471D01*
X2407255Y162459D01*
X2407169Y162436D01*
X2407082Y162422D01*
X2406954Y162377D01*
X2406824Y162341D01*
X2406744Y162302D01*
X2406660Y162273D01*
X2406441Y162159D01*
X2286441Y92159D01*
X2286423Y92146D01*
X2286403Y92136D01*
X2286241Y92017D01*
X2286077Y91900D01*
X2286061Y91884D01*
X2286043Y91871D01*
X2285905Y91725D01*
X2285764Y91581D01*
X2285752Y91562D01*
X2285737Y91546D01*
X2285626Y91377D01*
X2285514Y91211D01*
X2285505Y91191D01*
X2285493Y91172D01*
X2285414Y90986D01*
X2285333Y90802D01*
X2285328Y90781D01*
X2285319Y90760D01*
X2285275Y90563D01*
X2285228Y90368D01*
X2285227Y90346D01*
X2285222Y90324D01*
X2285214Y90123D01*
X2285202Y89922D01*
X2285205Y89900D01*
X2285204Y89878D01*
X2285231Y89679D01*
X2285256Y89479D01*
X2285262Y89458D01*
X2285265Y89436D01*
X2285328Y89245D01*
X2285388Y89052D01*
X2285398Y89032D01*
X2285405Y89011D01*
X2285501Y88834D01*
X2285593Y88655D01*
X2285607Y88638D01*
X2285617Y88618D01*
X2285743Y88461D01*
X2285866Y88302D01*
X2285883Y88287D01*
X2285897Y88270D01*
X2286049Y88137D01*
X2286198Y88003D01*
X2286217Y87991D01*
X2286233Y87976D01*
X2286441Y87841D01*
X2406441Y17841D01*
X2406521Y17803D01*
X2406597Y17757D01*
X2406723Y17709D01*
X2406845Y17652D01*
X2406931Y17629D01*
X2407014Y17597D01*
X2407147Y17571D01*
X2407277Y17537D01*
X2407365Y17530D01*
X2407453Y17513D01*
X2407700Y17501D01*
X2655000Y17501D01*
X2655011Y17502D01*
G37*
D10*
X3490000Y180000D02*
X10000Y180000D01*
X8978Y179948D01*
X7985Y179797D01*
X7026Y179550D01*
X6108Y179214D01*
X5233Y178793D01*
X4409Y178292D01*
X3639Y177717D01*
X2929Y177071D01*
X2284Y176361D01*
X1708Y175591D01*
X1207Y174767D01*
X786Y173893D01*
X450Y172974D01*
X203Y172015D01*
X52Y171022D01*
X0Y170000D01*
X0Y10000D01*
X52Y8978D01*
X203Y7985D01*
X450Y7026D01*
X786Y6108D01*
X1207Y5233D01*
X1708Y4409D01*
X2284Y3639D01*
X2929Y2929D01*
X3639Y2284D01*
X4409Y1708D01*
X5233Y1207D01*
X6108Y786D01*
X7026Y450D01*
X7985Y203D01*
X8978Y52D01*
X10000Y0D01*
X3490000Y0D01*
X3491022Y52D01*
X3492015Y203D01*
X3492974Y450D01*
X3493893Y786D01*
X3494767Y1207D01*
X3495591Y1708D01*
X3496361Y2284D01*
X3497071Y2929D01*
X3497717Y3639D01*
X3498292Y4409D01*
X3498793Y5233D01*
X3499214Y6108D01*
X3499550Y7026D01*
X3499797Y7985D01*
X3499948Y8978D01*
X3500000Y10000D01*
X3500000Y170000D01*
X3499948Y171022D01*
X3499797Y172015D01*
X3499550Y172974D01*
X3499214Y173893D01*
X3498793Y174767D01*
X3498292Y175591D01*
X3497717Y176361D01*
X3497071Y177071D01*
X3496361Y177717D01*
X3495591Y178292D01*
X3494767Y178793D01*
X3493893Y179214D01*
X3492974Y179550D01*
X3492015Y179797D01*
X3491022Y179948D01*
X3490000Y180000D01*
D11*
X299200Y163285D03*
X324600Y163285D03*
X350000Y163285D03*
X375400Y163285D03*
X400800Y163285D03*
D12*
X81000Y102700D02*
X59000Y102700D01*
X59000Y128100D02*
X81000Y128100D01*
X81000Y77300D02*
X59000Y77300D01*
X59000Y51900D02*
X81000Y51900D01*
D13*
X365000Y92540D03*
X457200Y90000D03*
X727200Y90000D03*
X997200Y90000D03*
X1267200Y90000D03*
X1537200Y90000D03*
X1807200Y90000D03*
X2077200Y90000D03*
X2347200Y90000D03*
X2617200Y90000D03*
X2887200Y90000D03*
X3350000Y90000D03*
X100000Y75000D03*
X187500Y10000D03*
D14*
X100000Y44654D02*
X100000Y75000D01*
X100000Y44654D02*
X134654Y10000D01*
X187500Y10000D01*
X70600Y127500D02*
X70000Y128100D01*
X70600Y127500D02*
X86596Y127500D01*
X100000Y114096D01*
X100000Y75000D01*
X122500Y150000D02*
X120000Y152500D01*
X122500Y150000D02*
X122500Y30000D01*
X132500Y20000D01*
D13*
X120000Y152500D03*
X132500Y20000D03*
D14*
X128750Y36250D02*
X128750Y106250D01*
X215000Y12500D02*
X315000Y12500D01*
D13*
X128750Y106250D03*
X128750Y36250D03*
X315000Y12500D03*
X215000Y12500D03*
D14*
X299200Y163285D02*
X292711Y169774D01*
X131040Y169774D01*
X126952Y165686D01*
X126952Y108048D01*
X128750Y106250D01*
X286250Y160000D02*
X287500Y158750D01*
D13*
X287500Y158750D03*
X132500Y145000D03*
D14*
X132500Y159471D01*
X139076Y166046D01*
X281916Y166046D01*
X286250Y161712D01*
X286250Y160000D01*
D13*
X93750Y112500D03*
D14*
X70200Y77500D02*
X70000Y77300D01*
X70200Y77500D02*
X74926Y77500D01*
X94524Y97098D01*
X94524Y111726D01*
X93750Y112500D01*
M02*
