G04 EAGLE Gerber RS-274X export*
G75*
%MOMM*%
%FSLAX34Y34*%
%LPD*%
%INStiffener_Board_TOP*%
%IPPOS*%
%AMOC8*
5,1,8,0,0,1.08239X$1,22.5*%
G01*
%ADD10C,0.001000*%


D10*
X3490000Y0D02*
X3460000Y0D01*
X3458978Y52D01*
X3457985Y203D01*
X3457026Y450D01*
X3456108Y786D01*
X3455233Y1207D01*
X3454409Y1708D01*
X3453639Y2284D01*
X3452929Y2929D01*
X3452284Y3639D01*
X3451708Y4409D01*
X3451207Y5233D01*
X3450786Y6108D01*
X3450450Y7026D01*
X3450203Y7985D01*
X3450052Y8978D01*
X3450000Y10000D01*
X3450000Y170000D01*
X3450052Y171022D01*
X3450203Y172015D01*
X3450450Y172974D01*
X3450786Y173893D01*
X3451207Y174767D01*
X3451708Y175591D01*
X3452284Y176361D01*
X3452929Y177071D01*
X3453639Y177717D01*
X3454409Y178292D01*
X3455233Y178793D01*
X3456108Y179214D01*
X3457026Y179550D01*
X3457985Y179797D01*
X3458978Y179948D01*
X3460000Y180000D01*
X3490000Y180000D01*
X3491022Y179948D01*
X3492015Y179797D01*
X3492974Y179550D01*
X3493893Y179214D01*
X3494767Y178793D01*
X3495591Y178292D01*
X3496361Y177717D01*
X3497071Y177071D01*
X3497717Y176361D01*
X3498292Y175591D01*
X3498793Y174767D01*
X3499214Y173893D01*
X3499550Y172974D01*
X3499797Y172015D01*
X3499948Y171022D01*
X3500000Y170000D01*
X3500000Y10000D01*
X3499948Y8978D01*
X3499797Y7985D01*
X3499550Y7026D01*
X3499214Y6108D01*
X3498793Y5233D01*
X3498292Y4409D01*
X3497717Y3639D01*
X3497071Y2929D01*
X3496361Y2284D01*
X3495591Y1708D01*
X3494767Y1207D01*
X3493893Y786D01*
X3492974Y450D01*
X3492015Y203D01*
X3491022Y52D01*
X3490000Y0D01*
M02*
